<?xml version="1.0" encoding="utf-8"?>
<!-- Generator: Adobe Illustrator 22.0.1, SVG Export Plug-In . SVG Version: 6.00 Build 0)  -->
<svg version="1.1" xmlns="http://www.w3.org/2000/svg" xmlns:xlink="http://www.w3.org/1999/xlink" x="0px" y="0px"
	 viewBox="0 0 800 800" style="enable-background:new 0 0 800 800;" xml:space="preserve">
<style type="text/css">
	.st0{fill:#0066A5;}
	.st1{fill:#FFFFFF;}
	.st2{fill:none;}
	.st3{fill:#00AEFF;}
	.st4{fill:#AE28AC;}
	.st5{fill:#FF33AC;}
	.st6{fill:#B75F4B;}
	.st7{fill:#ED964F;}
	.st8{fill:#693B55;}
	.st9{fill:#3A2C22;}
	.st10{fill:#DA1E00;}
	.st11{fill:#FF7900;}
	.st12{fill:#006200;}
	.st13{fill:#00C400;}
	.st14{fill:#A56219;}
	.st15{fill:#C17E3D;}
	.st16{fill:#824F1C;}
	.st17{fill:#6B3A11;}
	.st18{fill:#B2B2B2;}
	.st19{display:none;}
	.st20{display:inline;}
	.st21{fill:none;stroke:#161615;stroke-miterlimit:10;}
</style>
<g id="Layer_1">
	<g>
		<g id="XMLID_1_">
			<g>
				<polygon class="st0" points="-5326.1,412.5 -5326.1,438.4 -5351.9,438.4 -5351.9,464.2 -5326.1,464.2 -5326.1,490 -5300.3,490 
					-5300.3,464.2 -5300.3,438.4 -5300.3,412.5 				"/>
				<rect x="-5377.8" y="412.5" class="st0" width="25.8" height="25.8"/>
				<polygon class="st0" points="-5403.5,567.4 -5403.5,593.2 -5377.8,593.2 -5377.8,567.4 -5377.8,541.6 -5403.5,541.6 				"/>
				<polygon class="st0" points="-5454.2,592.2 -5480,592.2 -5480,618 -5454.2,618 -5428.4,618 -5402.5,618 -5402.5,592.2 
					-5428.4,592.2 				"/>
			</g>
			<rect x="-5481" y="541.6" class="st1" width="25.8" height="25.8"/>
			<g>
				<rect x="-5480" y="540.6" class="st2" width="25.8" height="25.8"/>
				<polygon class="st3" points="-5351.9,386.7 -5351.9,360.9 -5377.8,360.9 -5377.8,335.1 -5403.5,335.1 -5403.5,360.9 
					-5403.5,386.7 -5403.5,412.5 -5403.5,438.4 -5403.5,464.2 -5403.5,490 -5403.5,515.8 -5429.4,515.8 -5455.2,515.8 -5481,515.8 
					-5481,541.6 -5455.2,541.6 -5455.2,567.4 -5481,567.4 -5481,541.6 -5506.8,541.6 -5506.8,567.4 -5506.8,593.2 -5481,593.2 
					-5455.2,593.2 -5429.4,593.2 -5403.5,593.2 -5403.5,567.4 -5403.5,541.6 -5377.8,541.6 -5377.8,515.8 -5377.8,490 
					-5377.8,464.2 -5377.8,438.4 -5377.8,412.5 -5351.9,412.5 -5351.9,438.4 -5326.1,438.4 -5326.1,412.5 -5326.1,386.7 				"/>
			</g>
			<rect x="-5687.2" y="567.4" class="st1" width="25.8" height="25.8"/>
			<g>
				<rect x="-5687.2" y="567.4" class="st2" width="25.8" height="25.8"/>
				<polygon class="st4" points="-5532.4,438.3 -5532.4,464.1 -5558.2,464.1 -5558.2,489.9 -5532.4,489.9 -5532.4,515.7 
					-5506.6,515.7 -5506.6,489.9 -5506.6,464.1 -5506.6,438.3 				"/>
				<polygon class="st5" points="-5532.4,438.3 -5532.4,412.5 -5558.2,412.5 -5558.2,386.7 -5584,386.7 -5584,360.9 -5609.8,360.9 
					-5609.8,386.7 -5609.8,412.5 -5609.8,438.3 -5609.8,464.1 -5609.8,489.9 -5609.8,515.7 -5609.8,541.5 -5635.6,541.5 
					-5661.4,541.5 -5687.2,541.5 -5687.2,567.4 -5661.4,567.4 -5661.4,593.2 -5687.2,593.2 -5687.2,567.4 -5713,567.4 -5713,593.2 
					-5713,619 -5687.2,619 -5661.4,619 -5635.6,619 -5609.8,619 -5609.8,593.2 -5609.8,567.4 -5584,567.4 -5584,541.5 -5584,515.7 
					-5584,489.9 -5584,464.1 -5584,438.3 -5558.2,438.3 -5558.2,464.1 -5532.4,464.1 				"/>
				<rect x="-5584" y="438.3" class="st4" width="25.8" height="25.8"/>
				<polygon class="st4" points="-5609.8,593.2 -5609.8,619 -5584,619 -5584,593.2 -5584,567.4 -5609.8,567.4 				"/>
				<polygon class="st4" points="-5661.4,619 -5687.2,619 -5687.2,644.8 -5661.4,644.8 -5635.6,644.8 -5609.8,644.8 -5609.8,619 
					-5635.6,619 				"/>
			</g>
			<g>
				<rect x="-4965.7" y="179.9" class="st6" width="25.8" height="25.8"/>
				<polygon class="st7" points="-4991.5,179.9 -5017.3,179.9 -5043.1,179.9 -5043.1,205.7 -5017.3,205.7 -4991.5,205.7 
					-4965.7,205.7 -4965.7,179.9 				"/>
				<polygon class="st6" points="-5043.1,205.7 -5043.1,179.9 -5068.9,179.9 -5094.7,179.9 -5094.7,205.7 -5094.7,231.5 
					-5094.7,257.3 -5068.9,257.3 -5043.1,257.3 -5017.3,257.3 -5017.3,231.5 -4991.5,231.5 -4991.5,205.7 -5017.3,205.7 				"/>
				<polygon class="st7" points="-5043.1,179.9 -5043.1,154.1 -5068.9,154.1 -5094.7,154.1 -5094.7,179.9 -5068.9,179.9 				"/>
				<polygon class="st6" points="-5172.1,205.7 -5197.9,205.7 -5197.9,179.9 -5223.8,179.9 -5223.8,205.7 -5223.8,231.5 
					-5223.8,257.3 -5197.9,257.3 -5197.9,231.5 -5172.1,231.5 -5146.3,231.5 -5120.5,231.5 -5120.5,205.7 -5146.3,205.7 				"/>
				<polygon class="st7" points="-5172.1,205.7 -5146.3,205.7 -5146.3,179.9 -5172.1,179.9 -5197.9,179.9 -5197.9,205.7 				"/>
				<rect x="-5223.8" y="154.1" class="st7" width="25.8" height="25.8"/>
				<rect x="-5275.4" y="179.9" class="st7" width="25.8" height="25.8"/>
				<polygon class="st6" points="-5301.2,205.7 -5327,205.7 -5352.8,205.7 -5378.6,205.7 -5404.4,205.7 -5430.2,205.7 -5456,205.7 
					-5481.8,205.7 -5507.6,205.7 -5533.4,205.7 -5559.2,205.7 -5559.2,179.9 -5585,179.9 -5585,205.7 -5585,231.5 -5585,257.3 
					-5559.2,257.3 -5559.2,231.5 -5533.4,231.5 -5507.6,231.5 -5481.8,231.5 -5456,231.5 -5430.2,231.5 -5404.4,231.5 
					-5378.6,231.5 -5352.8,231.5 -5327,231.5 -5301.2,231.5 -5275.4,231.5 -5249.5,231.5 -5249.5,205.7 -5275.4,205.7 				"/>
				<rect x="-5327" y="179.9" class="st7" width="25.8" height="25.8"/>
				<rect x="-5378.6" y="179.9" class="st7" width="25.8" height="25.8"/>
				<rect x="-5430.2" y="179.9" class="st7" width="25.8" height="25.8"/>
				<rect x="-5481.8" y="179.9" class="st7" width="25.8" height="25.8"/>
				<rect x="-5559.2" y="179.9" class="st7" width="25.8" height="25.8"/>
				<rect x="-5585" y="154.1" class="st7" width="25.8" height="25.8"/>
				<rect x="-5636.6" y="179.9" class="st7" width="25.8" height="25.8"/>
				<polygon class="st6" points="-5636.6,179.9 -5662.5,179.9 -5688.3,179.9 -5688.3,205.7 -5688.3,231.5 -5688.3,257.3 
					-5662.5,257.3 -5636.6,257.3 -5636.6,231.5 -5610.8,231.5 -5610.8,205.7 -5636.6,205.7 				"/>
				<polygon class="st7" points="-5636.6,179.9 -5636.6,154.1 -5662.5,154.1 -5688.3,154.1 -5688.3,179.9 -5662.5,179.9 				"/>
			</g>
			<g>
				<polygon class="st2" points="-5688.3,154.1 -5688.3,179.9 -5688.3,205.7 -5688.3,231.5 -5688.3,257.3 -5662.5,257.3 
					-5636.6,257.3 -5636.6,231.5 -5610.8,231.5 -5610.8,205.7 -5610.8,179.9 -5636.6,179.9 -5636.6,154.1 -5662.5,154.1 				"/>
				<polygon class="st2" points="-5223.8,205.7 -5223.8,231.5 -5223.8,257.3 -5197.9,257.3 -5197.9,231.5 -5172.1,231.5 
					-5146.3,231.5 -5120.5,231.5 -5120.5,205.7 -5146.3,205.7 -5146.3,179.9 -5172.1,179.9 -5197.9,179.9 -5197.9,154.1 
					-5223.8,154.1 -5223.8,179.9 				"/>
				<polygon class="st2" points="-5585,205.7 -5585,231.5 -5585,257.3 -5559.2,257.3 -5559.2,231.5 -5533.4,231.5 -5507.6,231.5 
					-5481.8,231.5 -5456,231.5 -5430.2,231.5 -5404.4,231.5 -5378.6,231.5 -5352.8,231.5 -5327,231.5 -5301.2,231.5 -5275.4,231.5 
					-5249.5,231.5 -5249.5,205.7 -5249.5,179.9 -5275.4,179.9 -5275.4,205.7 -5301.2,205.7 -5301.2,179.9 -5327,179.9 -5327,205.7 
					-5352.8,205.7 -5352.8,179.9 -5378.6,179.9 -5378.6,205.7 -5404.4,205.7 -5404.4,179.9 -5430.2,179.9 -5430.2,205.7 
					-5456,205.7 -5456,179.9 -5481.8,179.9 -5481.8,205.7 -5507.6,205.7 -5533.4,205.7 -5533.4,179.9 -5559.2,179.9 -5559.2,154.1 
					-5585,154.1 -5585,179.9 				"/>
				<polygon class="st8" points="-4965.7,154.1 -4991.5,154.1 -5017.3,154.1 -5043.1,154.1 -5043.1,179.9 -5017.3,179.9 
					-4991.5,179.9 -4965.7,179.9 -4939.9,179.9 -4939.9,154.1 				"/>
				<rect x="-4991.5" y="205.7" class="st8" width="25.8" height="25.8"/>
				<rect x="-5017.3" y="231.5" class="st8" width="25.8" height="25.8"/>
				<polygon class="st8" points="-5068.9,128.3 -5094.7,128.3 -5094.7,154.1 -5068.9,154.1 -5043.1,154.1 -5043.1,128.3 				"/>
				<polygon class="st9" points="-5094.7,283.1 -5094.7,308.9 -5068.9,308.9 -5043.1,308.9 -5043.1,283.1 -5068.9,283.1 				"/>
				<polygon class="st8" points="-5068.9,283.1 -5043.1,283.1 -5017.3,283.1 -5017.3,257.3 -5043.1,257.3 -5068.9,257.3 
					-5094.7,257.3 -5094.7,283.1 				"/>
				<polygon class="st8" points="-5120.5,179.9 -5120.5,205.7 -5120.5,231.5 -5146.3,231.5 -5172.1,231.5 -5197.9,231.5 
					-5197.9,257.3 -5172.1,257.3 -5146.3,257.3 -5120.5,257.3 -5094.7,257.3 -5094.7,231.5 -5094.7,205.7 -5094.7,179.9 
					-5094.7,154.1 -5120.5,154.1 				"/>
				<polygon class="st9" points="-5146.3,257.3 -5172.1,257.3 -5197.9,257.3 -5197.9,283.1 -5172.1,283.1 -5146.3,283.1 
					-5120.5,283.1 -5094.7,283.1 -5094.7,257.3 -5120.5,257.3 				"/>
				<polygon class="st9" points="-5146.3,179.9 -5146.3,205.7 -5120.5,205.7 -5120.5,179.9 -5120.5,154.1 -5146.3,154.1 
					-5172.1,154.1 -5172.1,179.9 				"/>
				<rect x="-5197.9" y="154.1" class="st8" width="25.8" height="25.8"/>
				<rect x="-5223.8" y="283.1" class="st9" width="25.8" height="25.8"/>
				<rect x="-5223.8" y="257.3" class="st8" width="25.8" height="25.8"/>
				<rect x="-5223.8" y="128.3" class="st8" width="25.8" height="25.8"/>
				<polygon class="st9" points="-5249.5,257.3 -5275.4,257.3 -5301.2,257.3 -5327,257.3 -5352.8,257.3 -5378.6,257.3 
					-5404.4,257.3 -5430.2,257.3 -5456,257.3 -5481.8,257.3 -5507.6,257.3 -5533.4,257.3 -5559.2,257.3 -5559.2,283.1 
					-5533.4,283.1 -5507.6,283.1 -5481.8,283.1 -5456,283.1 -5430.2,283.1 -5404.4,283.1 -5378.6,283.1 -5352.8,283.1 -5327,283.1 
					-5301.2,283.1 -5275.4,283.1 -5249.5,283.1 -5223.8,283.1 -5223.8,257.3 				"/>
				<polygon class="st8" points="-5249.5,179.9 -5249.5,205.7 -5249.5,231.5 -5275.4,231.5 -5301.2,231.5 -5327,231.5 
					-5352.8,231.5 -5378.6,231.5 -5404.4,231.5 -5430.2,231.5 -5456,231.5 -5481.8,231.5 -5507.6,231.5 -5533.4,231.5 
					-5559.2,231.5 -5559.2,257.3 -5533.4,257.3 -5507.6,257.3 -5481.8,257.3 -5456,257.3 -5430.2,257.3 -5404.4,257.3 
					-5378.6,257.3 -5352.8,257.3 -5327,257.3 -5301.2,257.3 -5275.4,257.3 -5249.5,257.3 -5223.8,257.3 -5223.8,231.5 
					-5223.8,205.7 -5223.8,179.9 -5223.8,154.1 -5249.5,154.1 -5275.4,154.1 -5275.4,179.9 				"/>
				<polygon class="st9" points="-5301.2,205.7 -5275.4,205.7 -5275.4,179.9 -5275.4,154.1 -5301.2,154.1 -5301.2,179.9 				"/>
				<rect x="-5327" y="154.1" class="st8" width="25.8" height="25.8"/>
				<polygon class="st9" points="-5352.8,205.7 -5327,205.7 -5327,179.9 -5327,154.1 -5352.8,154.1 -5352.8,179.9 				"/>
				<rect x="-5378.6" y="154.1" class="st8" width="25.8" height="25.8"/>
				<polygon class="st9" points="-5404.4,205.7 -5378.6,205.7 -5378.6,179.9 -5378.6,154.1 -5404.4,154.1 -5404.4,179.9 				"/>
				<rect x="-5430.2" y="154.1" class="st8" width="25.8" height="25.8"/>
				<polygon class="st9" points="-5456,205.7 -5430.2,205.7 -5430.2,179.9 -5430.2,154.1 -5456,154.1 -5456,179.9 				"/>
				<rect x="-5481.8" y="154.1" class="st8" width="25.8" height="25.8"/>
				<polygon class="st9" points="-5533.4,205.7 -5507.6,205.7 -5481.8,205.7 -5481.8,179.9 -5481.8,154.1 -5507.6,154.1 
					-5533.4,154.1 -5533.4,179.9 				"/>
				<rect x="-5559.2" y="154.1" class="st8" width="25.8" height="25.8"/>
				<rect x="-5585" y="283.1" class="st9" width="25.8" height="25.8"/>
				<rect x="-5585" y="257.3" class="st8" width="25.8" height="25.8"/>
				<rect x="-5585" y="128.3" class="st8" width="25.8" height="25.8"/>
				<polygon class="st9" points="-5610.8,257.3 -5636.6,257.3 -5636.6,283.1 -5610.8,283.1 -5585,283.1 -5585,257.3 				"/>
				<polygon class="st8" points="-5610.8,179.9 -5610.8,205.7 -5610.8,231.5 -5636.6,231.5 -5636.6,257.3 -5610.8,257.3 
					-5585,257.3 -5585,231.5 -5585,205.7 -5585,179.9 -5585,154.1 -5610.8,154.1 -5636.6,154.1 -5636.6,179.9 				"/>
				<polygon class="st8" points="-5662.5,257.3 -5688.3,257.3 -5688.3,283.1 -5662.5,283.1 -5636.6,283.1 -5636.6,257.3 				"/>
				<polygon class="st9" points="-5688.3,283.1 -5688.3,257.3 -5688.3,231.5 -5688.3,205.7 -5688.3,179.9 -5688.3,154.1 
					-5688.3,128.3 -5714.1,128.3 -5714.1,154.1 -5714.1,179.9 -5714.1,205.7 -5714.1,231.5 -5714.1,257.3 -5714.1,283.1 
					-5714.1,308.9 -5688.3,308.9 -5662.5,308.9 -5636.6,308.9 -5636.6,283.1 -5662.5,283.1 				"/>
				<polygon class="st8" points="-5662.5,154.1 -5636.6,154.1 -5636.6,128.3 -5662.5,128.3 -5688.3,128.3 -5688.3,154.1 				"/>
			</g>
		</g>
	</g>
	<g>
		<g>
			<polygon class="st10" points="-5172.1,489.5 -5172.1,515.4 -5197.9,515.4 -5197.9,541.2 -5172.1,541.2 -5172.1,567 -5146.3,567 
				-5146.3,541.2 -5146.3,515.4 -5146.3,489.5 			"/>
			<rect x="-5223.8" y="489.5" class="st10" width="25.8" height="25.8"/>
			<polygon class="st10" points="-5249.5,644.4 -5249.5,670.2 -5223.8,670.2 -5223.8,644.4 -5223.8,618.6 -5249.5,618.6 			"/>
			<polygon class="st10" points="-5300.2,669.2 -5326,669.2 -5326,695 -5300.2,695 -5274.4,695 -5248.5,695 -5248.5,669.2 
				-5274.4,669.2 			"/>
		</g>
	</g>
	<rect x="-5327" y="618.6" class="st1" width="25.8" height="25.8"/>
	<polygon class="st11" points="-5197.9,463.7 -5197.9,437.9 -5223.8,437.9 -5223.8,412.1 -5249.5,412.1 -5249.5,437.9 
		-5249.5,463.7 -5249.5,489.5 -5249.5,515.4 -5249.5,541.2 -5249.5,567 -5249.5,592.8 -5275.4,592.8 -5301.2,592.8 -5327,592.8 
		-5327,618.6 -5301.2,618.6 -5301.2,644.4 -5327,644.4 -5327,618.6 -5352.8,618.6 -5352.8,644.4 -5352.8,670.2 -5327,670.2 
		-5301.2,670.2 -5275.4,670.2 -5249.5,670.2 -5249.5,644.4 -5249.5,618.6 -5223.8,618.6 -5223.8,592.8 -5223.8,567 -5223.8,541.2 
		-5223.8,515.4 -5223.8,489.5 -5197.9,489.5 -5197.9,515.4 -5172.1,515.4 -5172.1,489.5 -5172.1,463.7 	"/>
	<g>
		<g>
			<polygon class="st12" points="-4965.1,463.5 -4965.1,489.4 -4990.9,489.4 -4990.9,515.2 -4965.1,515.2 -4965.1,541 -4939.3,541 
				-4939.3,515.2 -4939.3,489.4 -4939.3,463.5 			"/>
			<rect x="-5016.8" y="463.5" class="st12" width="25.8" height="25.8"/>
			<polygon class="st12" points="-5042.5,618.4 -5042.5,644.2 -5016.8,644.2 -5016.8,618.4 -5016.8,592.6 -5042.5,592.6 			"/>
			<polygon class="st12" points="-5093.2,643.2 -5119,643.2 -5119,669 -5093.2,669 -5067.4,669 -5041.5,669 -5041.5,643.2 
				-5067.4,643.2 			"/>
		</g>
	</g>
	<rect x="-5120" y="592.6" class="st1" width="25.8" height="25.8"/>
	<polygon class="st13" points="-4990.9,437.7 -4990.9,411.9 -5016.8,411.9 -5016.8,386.1 -5042.5,386.1 -5042.5,411.9 
		-5042.5,437.7 -5042.5,463.5 -5042.5,489.4 -5042.5,515.2 -5042.5,541 -5042.5,566.8 -5068.4,566.8 -5094.2,566.8 -5120,566.8 
		-5120,592.6 -5094.2,592.6 -5094.2,618.4 -5120,618.4 -5120,592.6 -5145.8,592.6 -5145.8,618.4 -5145.8,644.2 -5120,644.2 
		-5094.2,644.2 -5068.4,644.2 -5042.5,644.2 -5042.5,618.4 -5042.5,592.6 -5016.8,592.6 -5016.8,566.8 -5016.8,541 -5016.8,515.2 
		-5016.8,489.4 -5016.8,463.5 -4990.9,463.5 -4990.9,489.4 -4965.1,489.4 -4965.1,463.5 -4965.1,437.7 	"/>
	<g>
		<rect x="-5740" y="-1" class="st2" width="800" height="800"/>
		<line class="st2" x1="-5740" y1="773.2" x2="-4940" y2="773.2"/>
		<line class="st2" x1="-5740" y1="747.4" x2="-4940" y2="747.4"/>
		<line class="st2" x1="-5740" y1="721.6" x2="-4940" y2="721.6"/>
		<line class="st2" x1="-5740" y1="695.8" x2="-4940" y2="695.8"/>
		<line class="st2" x1="-5740" y1="670" x2="-4940" y2="670"/>
		<line class="st2" x1="-5740" y1="644.2" x2="-4940" y2="644.2"/>
		<line class="st2" x1="-5740" y1="618.4" x2="-4940" y2="618.4"/>
		<line class="st2" x1="-5740" y1="592.5" x2="-4940" y2="592.5"/>
		<line class="st2" x1="-5740" y1="566.7" x2="-4940" y2="566.7"/>
		<line class="st2" x1="-5740" y1="540.9" x2="-4940" y2="540.9"/>
		<line class="st2" x1="-5740" y1="515.1" x2="-4940" y2="515.1"/>
		<line class="st2" x1="-5740" y1="489.3" x2="-4940" y2="489.3"/>
		<line class="st2" x1="-5740" y1="463.5" x2="-4940" y2="463.5"/>
		<line class="st2" x1="-5740" y1="437.7" x2="-4940" y2="437.7"/>
		<line class="st2" x1="-5740" y1="411.9" x2="-4940" y2="411.9"/>
		<line class="st2" x1="-5740" y1="386.1" x2="-4940" y2="386.1"/>
		<line class="st2" x1="-5740" y1="360.3" x2="-4940" y2="360.3"/>
		<line class="st2" x1="-5740" y1="334.5" x2="-4940" y2="334.5"/>
		<line class="st2" x1="-5740" y1="308.7" x2="-4940" y2="308.7"/>
		<line class="st2" x1="-5740" y1="282.9" x2="-4940" y2="282.9"/>
		<line class="st2" x1="-5740" y1="257.1" x2="-4940" y2="257.1"/>
		<line class="st2" x1="-5740" y1="231.3" x2="-4940" y2="231.3"/>
		<line class="st2" x1="-5740" y1="205.5" x2="-4940" y2="205.5"/>
		<line class="st2" x1="-5740" y1="179.6" x2="-4940" y2="179.6"/>
		<line class="st2" x1="-5740" y1="153.8" x2="-4940" y2="153.8"/>
		<line class="st2" x1="-5740" y1="128" x2="-4940" y2="128"/>
		<line class="st2" x1="-5740" y1="102.2" x2="-4940" y2="102.2"/>
		<line class="st2" x1="-5740" y1="76.4" x2="-4940" y2="76.4"/>
		<line class="st2" x1="-5740" y1="50.6" x2="-4940" y2="50.6"/>
		<line class="st2" x1="-5740" y1="24.8" x2="-4940" y2="24.8"/>
		<line class="st2" x1="-4965.8" y1="-1" x2="-4965.8" y2="799"/>
		<line class="st2" x1="-4991.6" y1="-1" x2="-4991.6" y2="799"/>
		<line class="st2" x1="-5017.4" y1="-1" x2="-5017.4" y2="799"/>
		<line class="st2" x1="-5043.2" y1="-1" x2="-5043.2" y2="799"/>
		<line class="st2" x1="-5069" y1="-1" x2="-5069" y2="799"/>
		<line class="st2" x1="-5094.8" y1="-1" x2="-5094.8" y2="799"/>
		<line class="st2" x1="-5120.6" y1="-1" x2="-5120.6" y2="799"/>
		<line class="st2" x1="-5146.5" y1="-1" x2="-5146.5" y2="799"/>
		<line class="st2" x1="-5172.3" y1="-1" x2="-5172.3" y2="799"/>
		<line class="st2" x1="-5198.1" y1="-1" x2="-5198.1" y2="799"/>
		<line class="st2" x1="-5223.9" y1="-1" x2="-5223.9" y2="799"/>
		<line class="st2" x1="-5249.7" y1="-1" x2="-5249.7" y2="799"/>
		<line class="st2" x1="-5275.5" y1="-1" x2="-5275.5" y2="799"/>
		<line class="st2" x1="-5301.3" y1="-1" x2="-5301.3" y2="799"/>
		<line class="st2" x1="-5327.1" y1="-1" x2="-5327.1" y2="799"/>
		<line class="st2" x1="-5352.9" y1="-1" x2="-5352.9" y2="799"/>
		<line class="st2" x1="-5378.7" y1="-1" x2="-5378.7" y2="799"/>
		<line class="st2" x1="-5404.5" y1="-1" x2="-5404.5" y2="799"/>
		<line class="st2" x1="-5430.3" y1="-1" x2="-5430.3" y2="799"/>
		<line class="st2" x1="-5456.1" y1="-1" x2="-5456.1" y2="799"/>
		<line class="st2" x1="-5481.9" y1="-1" x2="-5481.9" y2="799"/>
		<line class="st2" x1="-5507.7" y1="-1" x2="-5507.7" y2="799"/>
		<line class="st2" x1="-5533.5" y1="-1" x2="-5533.5" y2="799"/>
		<line class="st2" x1="-5559.4" y1="-1" x2="-5559.4" y2="799"/>
		<line class="st2" x1="-5585.2" y1="-1" x2="-5585.2" y2="799"/>
		<line class="st2" x1="-5611" y1="-1" x2="-5611" y2="799"/>
		<line class="st2" x1="-5636.8" y1="-1" x2="-5636.8" y2="799"/>
		<line class="st2" x1="-5662.6" y1="-1" x2="-5662.6" y2="799"/>
		<line class="st2" x1="-5688.4" y1="-1" x2="-5688.4" y2="799"/>
		<line class="st2" x1="-5714.2" y1="-1" x2="-5714.2" y2="799"/>
	</g>
	<g>
		<g>
			<polygon class="st0" points="-4506.1,438.6 -4506.1,464.4 -4531.9,464.4 -4531.9,490.2 -4506.1,490.2 -4506.1,516 -4480.3,516 
				-4480.3,490.2 -4480.3,464.4 -4480.3,438.6 			"/>
			<rect x="-4557.8" y="438.6" class="st0" width="25.8" height="25.8"/>
			<polygon class="st0" points="-4583.5,593.5 -4583.5,619.3 -4557.8,619.3 -4557.8,593.5 -4557.8,567.6 -4583.5,567.6 			"/>
			<polygon class="st0" points="-4634.2,618.3 -4660,618.3 -4660,644.1 -4634.2,644.1 -4608.4,644.1 -4582.5,644.1 -4582.5,618.3 
				-4608.4,618.3 			"/>
		</g>
		<rect x="-4661" y="567.6" class="st1" width="25.8" height="25.8"/>
		<g>
			<rect x="-4660" y="566.6" class="st2" width="25.8" height="25.8"/>
			<polygon class="st3" points="-4531.9,412.8 -4531.9,387 -4557.8,387 -4557.8,361.2 -4583.5,361.2 -4583.5,387 -4583.5,412.8 
				-4583.5,438.6 -4583.5,464.4 -4583.5,490.2 -4583.5,516 -4583.5,541.8 -4609.4,541.8 -4635.2,541.8 -4661,541.8 -4661,567.6 
				-4635.2,567.6 -4635.2,593.5 -4661,593.5 -4661,567.6 -4686.8,567.6 -4686.8,593.5 -4686.8,619.3 -4661,619.3 -4635.2,619.3 
				-4609.4,619.3 -4583.5,619.3 -4583.5,593.5 -4583.5,567.6 -4557.8,567.6 -4557.8,541.8 -4557.8,516 -4557.8,490.2 -4557.8,464.4 
				-4557.8,438.6 -4531.9,438.6 -4531.9,464.4 -4506.1,464.4 -4506.1,438.6 -4506.1,412.8 			"/>
		</g>
	</g>
	<g>
		<rect x="-4867.2" y="541.9" class="st1" width="25.8" height="25.8"/>
		<g>
			<rect x="-4867.2" y="541.9" class="st2" width="25.8" height="25.8"/>
			<polygon class="st4" points="-4712.4,412.8 -4712.4,438.6 -4738.2,438.6 -4738.2,464.4 -4712.4,464.4 -4712.4,490.2 
				-4686.6,490.2 -4686.6,464.4 -4686.6,438.6 -4686.6,412.8 			"/>
			<polygon class="st5" points="-4712.4,412.8 -4712.4,387 -4738.2,387 -4738.2,361.2 -4764,361.2 -4764,335.4 -4789.8,335.4 
				-4789.8,361.2 -4789.8,387 -4789.8,412.8 -4789.8,438.6 -4789.8,464.4 -4789.8,490.2 -4789.8,516 -4815.6,516 -4841.4,516 
				-4867.2,516 -4867.2,541.9 -4841.4,541.9 -4841.4,567.7 -4867.2,567.7 -4867.2,541.9 -4893,541.9 -4893,567.7 -4893,593.5 
				-4867.2,593.5 -4841.4,593.5 -4815.6,593.5 -4789.8,593.5 -4789.8,567.7 -4789.8,541.9 -4764,541.9 -4764,516 -4764,490.2 
				-4764,464.4 -4764,438.6 -4764,412.8 -4738.2,412.8 -4738.2,438.6 -4712.4,438.6 			"/>
			<rect x="-4764" y="412.8" class="st4" width="25.8" height="25.8"/>
			<polygon class="st4" points="-4789.8,567.7 -4789.8,593.5 -4764,593.5 -4764,567.7 -4764,541.9 -4789.8,541.9 			"/>
			<polygon class="st4" points="-4841.4,593.5 -4867.2,593.5 -4867.2,619.3 -4841.4,619.3 -4815.6,619.3 -4789.8,619.3 
				-4789.8,593.5 -4815.6,593.5 			"/>
		</g>
	</g>
	<g>
		<g>
			<rect x="-4145.7" y="154.8" class="st6" width="25.8" height="25.8"/>
			<polygon class="st7" points="-4171.5,154.8 -4197.3,154.8 -4223.1,154.8 -4223.1,180.6 -4197.3,180.6 -4171.5,180.6 
				-4145.7,180.6 -4145.7,154.8 			"/>
			<polygon class="st6" points="-4223.1,180.6 -4223.1,154.8 -4248.9,154.8 -4274.7,154.8 -4274.7,180.6 -4274.7,206.4 
				-4274.7,232.2 -4248.9,232.2 -4223.1,232.2 -4197.3,232.2 -4197.3,206.4 -4171.5,206.4 -4171.5,180.6 -4197.3,180.6 			"/>
			<polygon class="st7" points="-4223.1,154.8 -4223.1,129 -4248.9,129 -4274.7,129 -4274.7,154.8 -4248.9,154.8 			"/>
			<polygon class="st6" points="-4352.1,180.6 -4377.9,180.6 -4377.9,154.8 -4403.8,154.8 -4403.8,180.6 -4403.8,206.4 
				-4403.8,232.2 -4377.9,232.2 -4377.9,206.4 -4352.1,206.4 -4326.3,206.4 -4300.5,206.4 -4300.5,180.6 -4326.3,180.6 			"/>
			<polygon class="st7" points="-4352.1,180.6 -4326.3,180.6 -4326.3,154.8 -4352.1,154.8 -4377.9,154.8 -4377.9,180.6 			"/>
			<rect x="-4403.8" y="129" class="st7" width="25.8" height="25.8"/>
			<rect x="-4455.4" y="154.8" class="st7" width="25.8" height="25.8"/>
			<polygon class="st6" points="-4481.2,180.6 -4507,180.6 -4532.8,180.6 -4558.6,180.6 -4584.4,180.6 -4610.2,180.6 -4636,180.6 
				-4661.8,180.6 -4687.6,180.6 -4713.4,180.6 -4739.2,180.6 -4739.2,154.8 -4765,154.8 -4765,180.6 -4765,206.4 -4765,232.2 
				-4739.2,232.2 -4739.2,206.4 -4713.4,206.4 -4687.6,206.4 -4661.8,206.4 -4636,206.4 -4610.2,206.4 -4584.4,206.4 -4558.6,206.4 
				-4532.8,206.4 -4507,206.4 -4481.2,206.4 -4455.4,206.4 -4429.5,206.4 -4429.5,180.6 -4455.4,180.6 			"/>
			<rect x="-4507" y="154.8" class="st7" width="25.8" height="25.8"/>
			<rect x="-4558.6" y="154.8" class="st7" width="25.8" height="25.8"/>
			<rect x="-4610.2" y="154.8" class="st7" width="25.8" height="25.8"/>
			<rect x="-4661.8" y="154.8" class="st7" width="25.8" height="25.8"/>
			<rect x="-4739.2" y="154.8" class="st7" width="25.8" height="25.8"/>
			<rect x="-4765" y="129" class="st7" width="25.8" height="25.8"/>
			<rect x="-4816.6" y="154.8" class="st7" width="25.8" height="25.8"/>
			<polygon class="st6" points="-4816.6,154.8 -4842.5,154.8 -4868.3,154.8 -4868.3,180.6 -4868.3,206.4 -4868.3,232.2 
				-4842.5,232.2 -4816.6,232.2 -4816.6,206.4 -4790.8,206.4 -4790.8,180.6 -4816.6,180.6 			"/>
			<polygon class="st7" points="-4816.6,154.8 -4816.6,129 -4842.5,129 -4868.3,129 -4868.3,154.8 -4842.5,154.8 			"/>
		</g>
		<g>
			<polygon class="st2" points="-4868.3,129 -4868.3,154.8 -4868.3,180.6 -4868.3,206.4 -4868.3,232.2 -4842.5,232.2 -4816.6,232.2 
				-4816.6,206.4 -4790.8,206.4 -4790.8,180.6 -4790.8,154.8 -4816.6,154.8 -4816.6,129 -4842.5,129 			"/>
			<polygon class="st2" points="-4403.8,180.6 -4403.8,206.4 -4403.8,232.2 -4377.9,232.2 -4377.9,206.4 -4352.1,206.4 
				-4326.3,206.4 -4300.5,206.4 -4300.5,180.6 -4326.3,180.6 -4326.3,154.8 -4352.1,154.8 -4377.9,154.8 -4377.9,129 -4403.8,129 
				-4403.8,154.8 			"/>
			<polygon class="st2" points="-4765,180.6 -4765,206.4 -4765,232.2 -4739.2,232.2 -4739.2,206.4 -4713.4,206.4 -4687.6,206.4 
				-4661.8,206.4 -4636,206.4 -4610.2,206.4 -4584.4,206.4 -4558.6,206.4 -4532.8,206.4 -4507,206.4 -4481.2,206.4 -4455.4,206.4 
				-4429.5,206.4 -4429.5,180.6 -4429.5,154.8 -4455.4,154.8 -4455.4,180.6 -4481.2,180.6 -4481.2,154.8 -4507,154.8 -4507,180.6 
				-4532.8,180.6 -4532.8,154.8 -4558.6,154.8 -4558.6,180.6 -4584.4,180.6 -4584.4,154.8 -4610.2,154.8 -4610.2,180.6 -4636,180.6 
				-4636,154.8 -4661.8,154.8 -4661.8,180.6 -4687.6,180.6 -4713.4,180.6 -4713.4,154.8 -4739.2,154.8 -4739.2,129 -4765,129 
				-4765,154.8 			"/>
			<polygon class="st8" points="-4145.7,129 -4171.5,129 -4197.3,129 -4223.1,129 -4223.1,154.8 -4197.3,154.8 -4171.5,154.8 
				-4145.7,154.8 -4119.9,154.8 -4119.9,129 			"/>
			<rect x="-4171.5" y="180.6" class="st8" width="25.8" height="25.8"/>
			<rect x="-4197.3" y="206.4" class="st8" width="25.8" height="25.8"/>
			<polygon class="st8" points="-4248.9,103.2 -4274.7,103.2 -4274.7,129 -4248.9,129 -4223.1,129 -4223.1,103.2 			"/>
			<polygon class="st9" points="-4274.7,258 -4274.7,283.8 -4248.9,283.8 -4223.1,283.8 -4223.1,258 -4248.9,258 			"/>
			<polygon class="st8" points="-4248.9,258 -4223.1,258 -4197.3,258 -4197.3,232.2 -4223.1,232.2 -4248.9,232.2 -4274.7,232.2 
				-4274.7,258 			"/>
			<polygon class="st8" points="-4300.5,154.8 -4300.5,180.6 -4300.5,206.4 -4326.3,206.4 -4352.1,206.4 -4377.9,206.4 
				-4377.9,232.2 -4352.1,232.2 -4326.3,232.2 -4300.5,232.2 -4274.7,232.2 -4274.7,206.4 -4274.7,180.6 -4274.7,154.8 -4274.7,129 
				-4300.5,129 			"/>
			<polygon class="st9" points="-4326.3,232.2 -4352.1,232.2 -4377.9,232.2 -4377.9,258 -4352.1,258 -4326.3,258 -4300.5,258 
				-4274.7,258 -4274.7,232.2 -4300.5,232.2 			"/>
			<polygon class="st9" points="-4326.3,154.8 -4326.3,180.6 -4300.5,180.6 -4300.5,154.8 -4300.5,129 -4326.3,129 -4352.1,129 
				-4352.1,154.8 			"/>
			<rect x="-4377.9" y="129" class="st8" width="25.8" height="25.8"/>
			<rect x="-4403.8" y="258" class="st9" width="25.8" height="25.8"/>
			<rect x="-4403.8" y="232.2" class="st8" width="25.8" height="25.8"/>
			<rect x="-4403.8" y="103.2" class="st8" width="25.8" height="25.8"/>
			<polygon class="st9" points="-4429.5,232.2 -4455.4,232.2 -4481.2,232.2 -4507,232.2 -4532.8,232.2 -4558.6,232.2 -4584.4,232.2 
				-4610.2,232.2 -4636,232.2 -4661.8,232.2 -4687.6,232.2 -4713.4,232.2 -4739.2,232.2 -4739.2,258 -4713.4,258 -4687.6,258 
				-4661.8,258 -4636,258 -4610.2,258 -4584.4,258 -4558.6,258 -4532.8,258 -4507,258 -4481.2,258 -4455.4,258 -4429.5,258 
				-4403.8,258 -4403.8,232.2 			"/>
			<polygon class="st8" points="-4429.5,154.8 -4429.5,180.6 -4429.5,206.4 -4455.4,206.4 -4481.2,206.4 -4507,206.4 -4532.8,206.4 
				-4558.6,206.4 -4584.4,206.4 -4610.2,206.4 -4636,206.4 -4661.8,206.4 -4687.6,206.4 -4713.4,206.4 -4739.2,206.4 -4739.2,232.2 
				-4713.4,232.2 -4687.6,232.2 -4661.8,232.2 -4636,232.2 -4610.2,232.2 -4584.4,232.2 -4558.6,232.2 -4532.8,232.2 -4507,232.2 
				-4481.2,232.2 -4455.4,232.2 -4429.5,232.2 -4403.8,232.2 -4403.8,206.4 -4403.8,180.6 -4403.8,154.8 -4403.8,129 -4429.5,129 
				-4455.4,129 -4455.4,154.8 			"/>
			<polygon class="st9" points="-4481.2,180.6 -4455.4,180.6 -4455.4,154.8 -4455.4,129 -4481.2,129 -4481.2,154.8 			"/>
			<rect x="-4507" y="129" class="st8" width="25.8" height="25.8"/>
			<polygon class="st9" points="-4532.8,180.6 -4507,180.6 -4507,154.8 -4507,129 -4532.8,129 -4532.8,154.8 			"/>
			<rect x="-4558.6" y="129" class="st8" width="25.8" height="25.8"/>
			<polygon class="st9" points="-4584.4,180.6 -4558.6,180.6 -4558.6,154.8 -4558.6,129 -4584.4,129 -4584.4,154.8 			"/>
			<rect x="-4610.2" y="129" class="st8" width="25.8" height="25.8"/>
			<polygon class="st9" points="-4636,180.6 -4610.2,180.6 -4610.2,154.8 -4610.2,129 -4636,129 -4636,154.8 			"/>
			<rect x="-4661.8" y="129" class="st8" width="25.8" height="25.8"/>
			<polygon class="st9" points="-4713.4,180.6 -4687.6,180.6 -4661.8,180.6 -4661.8,154.8 -4661.8,129 -4687.6,129 -4713.4,129 
				-4713.4,154.8 			"/>
			<rect x="-4739.2" y="129" class="st8" width="25.8" height="25.8"/>
			<rect x="-4765" y="258" class="st9" width="25.8" height="25.8"/>
			<rect x="-4765" y="232.2" class="st8" width="25.8" height="25.8"/>
			<rect x="-4765" y="103.2" class="st8" width="25.8" height="25.8"/>
			<polygon class="st9" points="-4790.8,232.2 -4816.6,232.2 -4816.6,258 -4790.8,258 -4765,258 -4765,232.2 			"/>
			<polygon class="st8" points="-4790.8,154.8 -4790.8,180.6 -4790.8,206.4 -4816.6,206.4 -4816.6,232.2 -4790.8,232.2 -4765,232.2 
				-4765,206.4 -4765,180.6 -4765,154.8 -4765,129 -4790.8,129 -4816.6,129 -4816.6,154.8 			"/>
			<polygon class="st8" points="-4842.5,232.2 -4868.3,232.2 -4868.3,258 -4842.5,258 -4816.6,258 -4816.6,232.2 			"/>
			<polygon class="st9" points="-4868.3,258 -4868.3,232.2 -4868.3,206.4 -4868.3,180.6 -4868.3,154.8 -4868.3,129 -4868.3,103.2 
				-4894.1,103.2 -4894.1,129 -4894.1,154.8 -4894.1,180.6 -4894.1,206.4 -4894.1,232.2 -4894.1,258 -4894.1,283.8 -4868.3,283.8 
				-4842.5,283.8 -4816.6,283.8 -4816.6,258 -4842.5,258 			"/>
			<polygon class="st8" points="-4842.5,129 -4816.6,129 -4816.6,103.2 -4842.5,103.2 -4868.3,103.2 -4868.3,129 			"/>
		</g>
	</g>
	<g>
		<g>
			<g>
				<polygon class="st10" points="-4321,465.3 -4321,491.2 -4346.8,491.2 -4346.8,517 -4321,517 -4321,542.8 -4295.2,542.8 
					-4295.2,517 -4295.2,491.2 -4295.2,465.3 				"/>
				<rect x="-4372.6" y="465.3" class="st10" width="25.8" height="25.8"/>
				<polygon class="st10" points="-4398.4,620.2 -4398.4,646 -4372.6,646 -4372.6,620.2 -4372.6,594.4 -4398.4,594.4 				"/>
				<polygon class="st10" points="-4449,645 -4474.8,645 -4474.8,670.8 -4449,670.8 -4423.2,670.8 -4397.4,670.8 -4397.4,645 
					-4423.2,645 				"/>
			</g>
		</g>
		<rect x="-4475.8" y="594.4" class="st1" width="25.8" height="25.8"/>
		<polygon class="st11" points="-4346.8,439.5 -4346.8,413.7 -4372.6,413.7 -4372.6,387.9 -4398.4,387.9 -4398.4,413.7 
			-4398.4,439.5 -4398.4,465.3 -4398.4,491.2 -4398.4,517 -4398.4,542.8 -4398.4,568.6 -4424.2,568.6 -4450,568.6 -4475.8,568.6 
			-4475.8,594.4 -4450,594.4 -4450,620.2 -4475.8,620.2 -4475.8,594.4 -4501.6,594.4 -4501.6,620.2 -4501.6,646 -4475.8,646 
			-4450,646 -4424.2,646 -4398.4,646 -4398.4,620.2 -4398.4,594.4 -4372.6,594.4 -4372.6,568.6 -4372.6,542.8 -4372.6,517 
			-4372.6,491.2 -4372.6,465.3 -4346.8,465.3 -4346.8,491.2 -4321,491.2 -4321,465.3 -4321,439.5 		"/>
	</g>
	<g>
		<g>
			<g>
				<polygon class="st12" points="-4145.1,491.1 -4145.1,517 -4170.9,517 -4170.9,542.8 -4145.1,542.8 -4145.1,568.6 -4119.3,568.6 
					-4119.3,542.8 -4119.3,517 -4119.3,491.1 				"/>
				<rect x="-4196.8" y="491.1" class="st12" width="25.8" height="25.8"/>
				<polygon class="st12" points="-4222.5,646 -4222.5,671.8 -4196.8,671.8 -4196.8,646 -4196.8,620.2 -4222.5,620.2 				"/>
				<polygon class="st12" points="-4273.2,670.8 -4299,670.8 -4299,696.6 -4273.2,696.6 -4247.4,696.6 -4221.5,696.6 -4221.5,670.8 
					-4247.4,670.8 				"/>
			</g>
		</g>
		<rect x="-4300" y="620.2" class="st1" width="25.8" height="25.8"/>
		<polygon class="st13" points="-4170.9,465.3 -4170.9,439.5 -4196.8,439.5 -4196.8,413.7 -4222.5,413.7 -4222.5,439.5 
			-4222.5,465.3 -4222.5,491.1 -4222.5,517 -4222.5,542.8 -4222.5,568.6 -4222.5,594.4 -4248.4,594.4 -4274.2,594.4 -4300,594.4 
			-4300,620.2 -4274.2,620.2 -4274.2,646 -4300,646 -4300,620.2 -4325.8,620.2 -4325.8,646 -4325.8,671.8 -4300,671.8 
			-4274.2,671.8 -4248.4,671.8 -4222.5,671.8 -4222.5,646 -4222.5,620.2 -4196.8,620.2 -4196.8,594.4 -4196.8,568.6 -4196.8,542.8 
			-4196.8,517 -4196.8,491.1 -4170.9,491.1 -4170.9,517 -4145.1,517 -4145.1,491.1 -4145.1,465.3 		"/>
	</g>
	<g>
		<g>
			<polygon class="st0" points="-3701.6,438.6 -3701.6,464.4 -3727.4,464.4 -3727.4,490.2 -3701.6,490.2 -3701.6,516 -3675.8,516 
				-3675.8,490.2 -3675.8,464.4 -3675.8,438.6 			"/>
			<rect x="-3753.2" y="438.6" class="st0" width="25.8" height="25.8"/>
			<polygon class="st0" points="-3779,593.5 -3779,619.3 -3753.2,619.3 -3753.2,593.5 -3753.2,567.6 -3779,567.6 			"/>
			<polygon class="st0" points="-3829.6,618.3 -3855.4,618.3 -3855.4,644.1 -3829.6,644.1 -3803.8,644.1 -3778,644.1 -3778,618.3 
				-3803.8,618.3 			"/>
		</g>
		<rect x="-3856.4" y="567.6" class="st1" width="25.8" height="25.8"/>
		<g>
			<rect x="-3855.4" y="566.6" class="st2" width="25.8" height="25.8"/>
			<polygon class="st3" points="-3727.4,412.8 -3727.4,387 -3753.2,387 -3753.2,361.2 -3779,361.2 -3779,387 -3779,412.8 
				-3779,438.6 -3779,464.4 -3779,490.2 -3779,516 -3779,541.8 -3804.8,541.8 -3830.6,541.8 -3856.4,541.8 -3856.4,567.6 
				-3830.6,567.6 -3830.6,593.5 -3856.4,593.5 -3856.4,567.6 -3882.3,567.6 -3882.3,593.5 -3882.3,619.3 -3856.4,619.3 
				-3830.6,619.3 -3804.8,619.3 -3779,619.3 -3779,593.5 -3779,567.6 -3753.2,567.6 -3753.2,541.8 -3753.2,516 -3753.2,490.2 
				-3753.2,464.4 -3753.2,438.6 -3727.4,438.6 -3727.4,464.4 -3701.6,464.4 -3701.6,438.6 -3701.6,412.8 			"/>
		</g>
	</g>
	<g>
		<rect x="-4062.7" y="516.1" class="st1" width="25.8" height="25.8"/>
		<g>
			<rect x="-4062.7" y="516.1" class="st2" width="25.8" height="25.8"/>
			<polygon class="st4" points="-3907.9,387 -3907.9,412.8 -3933.7,412.8 -3933.7,438.6 -3907.9,438.6 -3907.9,464.4 -3882.1,464.4 
				-3882.1,438.6 -3882.1,412.8 -3882.1,387 			"/>
			<polygon class="st5" points="-3907.9,387 -3907.9,361.2 -3933.7,361.2 -3933.7,335.4 -3959.5,335.4 -3959.5,309.6 -3985.3,309.6 
				-3985.3,335.4 -3985.3,361.2 -3985.3,387 -3985.3,412.8 -3985.3,438.6 -3985.3,464.4 -3985.3,490.3 -4011.1,490.3 -4036.9,490.3 
				-4062.7,490.3 -4062.7,516.1 -4036.9,516.1 -4036.9,541.9 -4062.7,541.9 -4062.7,516.1 -4088.5,516.1 -4088.5,541.9 
				-4088.5,567.7 -4062.7,567.7 -4036.9,567.7 -4011.1,567.7 -3985.3,567.7 -3985.3,541.9 -3985.3,516.1 -3959.5,516.1 
				-3959.5,490.3 -3959.5,464.4 -3959.5,438.6 -3959.5,412.8 -3959.5,387 -3933.7,387 -3933.7,412.8 -3907.9,412.8 			"/>
			<rect x="-3959.5" y="387" class="st4" width="25.8" height="25.8"/>
			<polygon class="st4" points="-3985.3,541.9 -3985.3,567.7 -3959.5,567.7 -3959.5,541.9 -3959.5,516.1 -3985.3,516.1 			"/>
			<polygon class="st4" points="-4036.9,567.7 -4062.7,567.7 -4062.7,593.5 -4036.9,593.5 -4011.1,593.5 -3985.3,593.5 
				-3985.3,567.7 -4011.1,567.7 			"/>
		</g>
	</g>
	<g>
		<g>
			<rect x="-3341.2" y="180.6" class="st6" width="25.8" height="25.8"/>
			<polygon class="st7" points="-3367,180.6 -3392.8,180.6 -3418.6,180.6 -3418.6,206.4 -3392.8,206.4 -3367,206.4 -3341.2,206.4 
				-3341.2,180.6 			"/>
			<polygon class="st6" points="-3418.6,206.4 -3418.6,180.6 -3444.4,180.6 -3470.2,180.6 -3470.2,206.4 -3470.2,232.2 -3470.2,258 
				-3444.4,258 -3418.6,258 -3392.8,258 -3392.8,232.2 -3367,232.2 -3367,206.4 -3392.8,206.4 			"/>
			<polygon class="st7" points="-3418.6,180.6 -3418.6,154.8 -3444.4,154.8 -3470.2,154.8 -3470.2,180.6 -3444.4,180.6 			"/>
			<polygon class="st6" points="-3547.6,206.4 -3573.4,206.4 -3573.4,180.6 -3599.2,180.6 -3599.2,206.4 -3599.2,232.2 -3599.2,258 
				-3573.4,258 -3573.4,232.2 -3547.6,232.2 -3521.8,232.2 -3496,232.2 -3496,206.4 -3521.8,206.4 			"/>
			<polygon class="st7" points="-3547.6,206.4 -3521.8,206.4 -3521.8,180.6 -3547.6,180.6 -3573.4,180.6 -3573.4,206.4 			"/>
			<rect x="-3599.2" y="154.8" class="st7" width="25.8" height="25.8"/>
			<rect x="-3650.8" y="180.6" class="st7" width="25.8" height="25.8"/>
			<polygon class="st6" points="-3676.6,206.4 -3702.4,206.4 -3728.3,206.4 -3754.1,206.4 -3779.9,206.4 -3805.7,206.4 
				-3831.5,206.4 -3857.3,206.4 -3883.1,206.4 -3908.9,206.4 -3934.7,206.4 -3934.7,180.6 -3960.5,180.6 -3960.5,206.4 
				-3960.5,232.2 -3960.5,258 -3934.7,258 -3934.7,232.2 -3908.9,232.2 -3883.1,232.2 -3857.3,232.2 -3831.5,232.2 -3805.7,232.2 
				-3779.9,232.2 -3754.1,232.2 -3728.3,232.2 -3702.4,232.2 -3676.6,232.2 -3650.8,232.2 -3625,232.2 -3625,206.4 -3650.8,206.4 
							"/>
			<rect x="-3702.4" y="180.6" class="st7" width="25.8" height="25.8"/>
			<rect x="-3754.1" y="180.6" class="st7" width="25.8" height="25.8"/>
			<rect x="-3805.7" y="180.6" class="st7" width="25.8" height="25.8"/>
			<rect x="-3857.3" y="180.6" class="st7" width="25.8" height="25.8"/>
			<rect x="-3934.7" y="180.6" class="st7" width="25.8" height="25.8"/>
			<rect x="-3960.5" y="154.8" class="st7" width="25.8" height="25.8"/>
			<rect x="-4012.1" y="180.6" class="st7" width="25.8" height="25.8"/>
			<polygon class="st6" points="-4012.1,180.6 -4037.9,180.6 -4063.7,180.6 -4063.7,206.4 -4063.7,232.2 -4063.7,258 -4037.9,258 
				-4012.1,258 -4012.1,232.2 -3986.3,232.2 -3986.3,206.4 -4012.1,206.4 			"/>
			<polygon class="st7" points="-4012.1,180.6 -4012.1,154.8 -4037.9,154.8 -4063.7,154.8 -4063.7,180.6 -4037.9,180.6 			"/>
		</g>
		<g>
			<polygon class="st2" points="-4063.7,154.8 -4063.7,180.6 -4063.7,206.4 -4063.7,232.2 -4063.7,258 -4037.9,258 -4012.1,258 
				-4012.1,232.2 -3986.3,232.2 -3986.3,206.4 -3986.3,180.6 -4012.1,180.6 -4012.1,154.8 -4037.9,154.8 			"/>
			<polygon class="st2" points="-3599.2,206.4 -3599.2,232.2 -3599.2,258 -3573.4,258 -3573.4,232.2 -3547.6,232.2 -3521.8,232.2 
				-3496,232.2 -3496,206.4 -3521.8,206.4 -3521.8,180.6 -3547.6,180.6 -3573.4,180.6 -3573.4,154.8 -3599.2,154.8 -3599.2,180.6 
							"/>
			<polygon class="st2" points="-3960.5,206.4 -3960.5,232.2 -3960.5,258 -3934.7,258 -3934.7,232.2 -3908.9,232.2 -3883.1,232.2 
				-3857.3,232.2 -3831.5,232.2 -3805.7,232.2 -3779.9,232.2 -3754.1,232.2 -3728.3,232.2 -3702.4,232.2 -3676.6,232.2 
				-3650.8,232.2 -3625,232.2 -3625,206.4 -3625,180.6 -3650.8,180.6 -3650.8,206.4 -3676.6,206.4 -3676.6,180.6 -3702.4,180.6 
				-3702.4,206.4 -3728.3,206.4 -3728.3,180.6 -3754.1,180.6 -3754.1,206.4 -3779.9,206.4 -3779.9,180.6 -3805.7,180.6 
				-3805.7,206.4 -3831.5,206.4 -3831.5,180.6 -3857.3,180.6 -3857.3,206.4 -3883.1,206.4 -3908.9,206.4 -3908.9,180.6 
				-3934.7,180.6 -3934.7,154.8 -3960.5,154.8 -3960.5,180.6 			"/>
			<polygon class="st8" points="-3341.2,154.8 -3367,154.8 -3392.8,154.8 -3418.6,154.8 -3418.6,180.6 -3392.8,180.6 -3367,180.6 
				-3341.2,180.6 -3315.4,180.6 -3315.4,154.8 			"/>
			<rect x="-3367" y="206.4" class="st8" width="25.8" height="25.8"/>
			<rect x="-3392.8" y="232.2" class="st8" width="25.8" height="25.8"/>
			<polygon class="st8" points="-3444.4,129 -3470.2,129 -3470.2,154.8 -3444.4,154.8 -3418.6,154.8 -3418.6,129 			"/>
			<polygon class="st9" points="-3470.2,283.8 -3470.2,309.6 -3444.4,309.6 -3418.6,309.6 -3418.6,283.8 -3444.4,283.8 			"/>
			<polygon class="st8" points="-3444.4,283.8 -3418.6,283.8 -3392.8,283.8 -3392.8,258 -3418.6,258 -3444.4,258 -3470.2,258 
				-3470.2,283.8 			"/>
			<polygon class="st8" points="-3496,180.6 -3496,206.4 -3496,232.2 -3521.8,232.2 -3547.6,232.2 -3573.4,232.2 -3573.4,258 
				-3547.6,258 -3521.8,258 -3496,258 -3470.2,258 -3470.2,232.2 -3470.2,206.4 -3470.2,180.6 -3470.2,154.8 -3496,154.8 			"/>
			<polygon class="st9" points="-3521.8,258 -3547.6,258 -3573.4,258 -3573.4,283.8 -3547.6,283.8 -3521.8,283.8 -3496,283.8 
				-3470.2,283.8 -3470.2,258 -3496,258 			"/>
			<polygon class="st9" points="-3521.8,180.6 -3521.8,206.4 -3496,206.4 -3496,180.6 -3496,154.8 -3521.8,154.8 -3547.6,154.8 
				-3547.6,180.6 			"/>
			<rect x="-3573.4" y="154.8" class="st8" width="25.8" height="25.8"/>
			<rect x="-3599.2" y="283.8" class="st9" width="25.8" height="25.8"/>
			<rect x="-3599.2" y="258" class="st8" width="25.8" height="25.8"/>
			<rect x="-3599.2" y="129" class="st8" width="25.8" height="25.8"/>
			<polygon class="st9" points="-3625,258 -3650.8,258 -3676.6,258 -3702.4,258 -3728.3,258 -3754.1,258 -3779.9,258 -3805.7,258 
				-3831.5,258 -3857.3,258 -3883.1,258 -3908.9,258 -3934.7,258 -3934.7,283.8 -3908.9,283.8 -3883.1,283.8 -3857.3,283.8 
				-3831.5,283.8 -3805.7,283.8 -3779.9,283.8 -3754.1,283.8 -3728.3,283.8 -3702.4,283.8 -3676.6,283.8 -3650.8,283.8 -3625,283.8 
				-3599.2,283.8 -3599.2,258 			"/>
			<polygon class="st8" points="-3625,180.6 -3625,206.4 -3625,232.2 -3650.8,232.2 -3676.6,232.2 -3702.4,232.2 -3728.3,232.2 
				-3754.1,232.2 -3779.9,232.2 -3805.7,232.2 -3831.5,232.2 -3857.3,232.2 -3883.1,232.2 -3908.9,232.2 -3934.7,232.2 -3934.7,258 
				-3908.9,258 -3883.1,258 -3857.3,258 -3831.5,258 -3805.7,258 -3779.9,258 -3754.1,258 -3728.3,258 -3702.4,258 -3676.6,258 
				-3650.8,258 -3625,258 -3599.2,258 -3599.2,232.2 -3599.2,206.4 -3599.2,180.6 -3599.2,154.8 -3625,154.8 -3650.8,154.8 
				-3650.8,180.6 			"/>
			<polygon class="st9" points="-3676.6,206.4 -3650.8,206.4 -3650.8,180.6 -3650.8,154.8 -3676.6,154.8 -3676.6,180.6 			"/>
			<rect x="-3702.4" y="154.8" class="st8" width="25.8" height="25.8"/>
			<polygon class="st9" points="-3728.3,206.4 -3702.4,206.4 -3702.4,180.6 -3702.4,154.8 -3728.3,154.8 -3728.3,180.6 			"/>
			<rect x="-3754.1" y="154.8" class="st8" width="25.8" height="25.8"/>
			<polygon class="st9" points="-3779.9,206.4 -3754.1,206.4 -3754.1,180.6 -3754.1,154.8 -3779.9,154.8 -3779.9,180.6 			"/>
			<rect x="-3805.7" y="154.8" class="st8" width="25.8" height="25.8"/>
			<polygon class="st9" points="-3831.5,206.4 -3805.7,206.4 -3805.7,180.6 -3805.7,154.8 -3831.5,154.8 -3831.5,180.6 			"/>
			<rect x="-3857.3" y="154.8" class="st8" width="25.8" height="25.8"/>
			<polygon class="st9" points="-3908.9,206.4 -3883.1,206.4 -3857.3,206.4 -3857.3,180.6 -3857.3,154.8 -3883.1,154.8 
				-3908.9,154.8 -3908.9,180.6 			"/>
			<rect x="-3934.7" y="154.8" class="st8" width="25.8" height="25.8"/>
			<rect x="-3960.5" y="283.8" class="st9" width="25.8" height="25.8"/>
			<rect x="-3960.5" y="258" class="st8" width="25.8" height="25.8"/>
			<rect x="-3960.5" y="129" class="st8" width="25.8" height="25.8"/>
			<polygon class="st9" points="-3986.3,258 -4012.1,258 -4012.1,283.8 -3986.3,283.8 -3960.5,283.8 -3960.5,258 			"/>
			<polygon class="st8" points="-3986.3,180.6 -3986.3,206.4 -3986.3,232.2 -4012.1,232.2 -4012.1,258 -3986.3,258 -3960.5,258 
				-3960.5,232.2 -3960.5,206.4 -3960.5,180.6 -3960.5,154.8 -3986.3,154.8 -4012.1,154.8 -4012.1,180.6 			"/>
			<polygon class="st8" points="-4037.9,258 -4063.7,258 -4063.7,283.8 -4037.9,283.8 -4012.1,283.8 -4012.1,258 			"/>
			<polygon class="st9" points="-4063.7,283.8 -4063.7,258 -4063.7,232.2 -4063.7,206.4 -4063.7,180.6 -4063.7,154.8 -4063.7,129 
				-4089.5,129 -4089.5,154.8 -4089.5,180.6 -4089.5,206.4 -4089.5,232.2 -4089.5,258 -4089.5,283.8 -4089.5,309.6 -4063.7,309.6 
				-4037.9,309.6 -4012.1,309.6 -4012.1,283.8 -4037.9,283.8 			"/>
			<polygon class="st8" points="-4037.9,154.8 -4012.1,154.8 -4012.1,129 -4037.9,129 -4063.7,129 -4063.7,154.8 			"/>
		</g>
	</g>
	<g>
		<g>
			<g>
				<polygon class="st10" points="-3547.6,516 -3547.6,541.8 -3573.4,541.8 -3573.4,567.6 -3547.6,567.6 -3547.6,593.4 
					-3521.8,593.4 -3521.8,567.6 -3521.8,541.8 -3521.8,516 				"/>
				<rect x="-3599.2" y="516" class="st10" width="25.8" height="25.8"/>
				<polygon class="st10" points="-3625,670.9 -3625,696.7 -3599.2,696.7 -3599.2,670.9 -3599.2,645 -3625,645 				"/>
				<polygon class="st10" points="-3675.6,695.7 -3701.4,695.7 -3701.4,721.5 -3675.6,721.5 -3649.8,721.5 -3624,721.5 -3624,695.7 
					-3649.8,695.7 				"/>
			</g>
		</g>
		<rect x="-3702.4" y="645" class="st1" width="25.8" height="25.8"/>
		<polygon class="st11" points="-3573.4,490.2 -3573.4,464.4 -3599.2,464.4 -3599.2,438.6 -3625,438.6 -3625,464.4 -3625,490.2 
			-3625,516 -3625,541.8 -3625,567.6 -3625,593.4 -3625,619.2 -3650.8,619.2 -3676.6,619.2 -3702.4,619.2 -3702.4,645 -3676.6,645 
			-3676.6,670.9 -3702.4,670.9 -3702.4,645 -3728.3,645 -3728.3,670.9 -3728.3,696.7 -3702.4,696.7 -3676.6,696.7 -3650.8,696.7 
			-3625,696.7 -3625,670.9 -3625,645 -3599.2,645 -3599.2,619.2 -3599.2,593.4 -3599.2,567.6 -3599.2,541.8 -3599.2,516 
			-3573.4,516 -3573.4,541.8 -3547.6,541.8 -3547.6,516 -3547.6,490.2 		"/>
	</g>
	<g>
		<g>
			<g>
				<polygon class="st12" points="-3340.6,567.6 -3340.6,593.4 -3366.4,593.4 -3366.4,619.2 -3340.6,619.2 -3340.6,645 -3314.8,645 
					-3314.8,619.2 -3314.8,593.4 -3314.8,567.6 				"/>
				<rect x="-3392.2" y="567.6" class="st12" width="25.8" height="25.8"/>
				<polygon class="st12" points="-3418,722.5 -3418,748.3 -3392.2,748.3 -3392.2,722.5 -3392.2,696.6 -3418,696.6 				"/>
				<polygon class="st12" points="-3468.6,747.3 -3494.4,747.3 -3494.4,773.1 -3468.6,773.1 -3442.8,773.1 -3417,773.1 -3417,747.3 
					-3442.8,747.3 				"/>
			</g>
		</g>
		<rect x="-3495.4" y="696.6" class="st1" width="25.8" height="25.8"/>
		<polygon class="st13" points="-3366.4,541.8 -3366.4,516 -3392.2,516 -3392.2,490.2 -3418,490.2 -3418,516 -3418,541.8 
			-3418,567.6 -3418,593.4 -3418,619.2 -3418,645 -3418,670.8 -3443.8,670.8 -3469.6,670.8 -3495.4,670.8 -3495.4,696.6 
			-3469.6,696.6 -3469.6,722.5 -3495.4,722.5 -3495.4,696.6 -3521.3,696.6 -3521.3,722.5 -3521.3,748.3 -3495.4,748.3 
			-3469.6,748.3 -3443.8,748.3 -3418,748.3 -3418,722.5 -3418,696.6 -3392.2,696.6 -3392.2,670.8 -3392.2,645 -3392.2,619.2 
			-3392.2,593.4 -3392.2,567.6 -3366.4,567.6 -3366.4,593.4 -3340.6,593.4 -3340.6,567.6 -3340.6,541.8 		"/>
	</g>
	<g>
		<g>
			<polygon class="st0" points="-2881.6,412.8 -2881.6,438.6 -2907.4,438.6 -2907.4,464.4 -2881.6,464.4 -2881.6,490.2 
				-2855.8,490.2 -2855.8,464.4 -2855.8,438.6 -2855.8,412.8 			"/>
			<rect x="-2933.2" y="412.8" class="st0" width="25.8" height="25.8"/>
			<polygon class="st0" points="-2959,567.7 -2959,593.5 -2933.2,593.5 -2933.2,567.7 -2933.2,541.8 -2959,541.8 			"/>
			<polygon class="st0" points="-3009.6,592.5 -3035.4,592.5 -3035.4,618.3 -3009.6,618.3 -2983.8,618.3 -2958,618.3 -2958,592.5 
				-2983.8,592.5 			"/>
		</g>
		<rect x="-3036.4" y="541.8" class="st1" width="25.8" height="25.8"/>
		<g>
			<rect x="-3035.4" y="540.8" class="st2" width="25.8" height="25.8"/>
			<polygon class="st3" points="-2907.4,387 -2907.4,361.2 -2933.2,361.2 -2933.2,335.4 -2959,335.4 -2959,361.2 -2959,387 
				-2959,412.8 -2959,438.6 -2959,464.4 -2959,490.2 -2959,516 -2984.8,516 -3010.6,516 -3036.4,516 -3036.4,541.8 -3010.6,541.8 
				-3010.6,567.7 -3036.4,567.7 -3036.4,541.8 -3062.3,541.8 -3062.3,567.7 -3062.3,593.5 -3036.4,593.5 -3010.6,593.5 
				-2984.8,593.5 -2959,593.5 -2959,567.7 -2959,541.8 -2933.2,541.8 -2933.2,516 -2933.2,490.2 -2933.2,464.4 -2933.2,438.6 
				-2933.2,412.8 -2907.4,412.8 -2907.4,438.6 -2881.6,438.6 -2881.6,412.8 -2881.6,387 			"/>
		</g>
	</g>
	<g>
		<rect x="-3242.7" y="541.8" class="st1" width="25.8" height="25.8"/>
		<g>
			<rect x="-3242.7" y="541.8" class="st2" width="25.8" height="25.8"/>
			<polygon class="st4" points="-3087.9,412.8 -3087.9,438.6 -3113.7,438.6 -3113.7,464.4 -3087.9,464.4 -3087.9,490.2 
				-3062.1,490.2 -3062.1,464.4 -3062.1,438.6 -3062.1,412.8 			"/>
			<polygon class="st5" points="-3087.9,412.8 -3087.9,386.9 -3113.7,386.9 -3113.7,361.1 -3139.5,361.1 -3139.5,335.3 
				-3165.3,335.3 -3165.3,361.1 -3165.3,386.9 -3165.3,412.8 -3165.3,438.6 -3165.3,464.4 -3165.3,490.2 -3165.3,516 -3191.1,516 
				-3216.9,516 -3242.7,516 -3242.7,541.8 -3216.9,541.8 -3216.9,567.6 -3242.7,567.6 -3242.7,541.8 -3268.5,541.8 -3268.5,567.6 
				-3268.5,593.4 -3242.7,593.4 -3216.9,593.4 -3191.1,593.4 -3165.3,593.4 -3165.3,567.6 -3165.3,541.8 -3139.5,541.8 -3139.5,516 
				-3139.5,490.2 -3139.5,464.4 -3139.5,438.6 -3139.5,412.8 -3113.7,412.8 -3113.7,438.6 -3087.9,438.6 			"/>
			<rect x="-3139.5" y="412.8" class="st4" width="25.8" height="25.8"/>
			<polygon class="st4" points="-3165.3,567.6 -3165.3,593.4 -3139.5,593.4 -3139.5,567.6 -3139.5,541.8 -3165.3,541.8 			"/>
			<polygon class="st4" points="-3216.9,593.4 -3242.7,593.4 -3242.7,619.2 -3216.9,619.2 -3191.1,619.2 -3165.3,619.2 
				-3165.3,593.4 -3191.1,593.4 			"/>
		</g>
	</g>
	<g>
		<g>
			<rect x="-2521.2" y="154.8" class="st6" width="25.8" height="25.8"/>
			<polygon class="st7" points="-2547,154.8 -2572.8,154.8 -2598.6,154.8 -2598.6,180.6 -2572.8,180.6 -2547,180.6 -2521.2,180.6 
				-2521.2,154.8 			"/>
			<polygon class="st6" points="-2598.6,180.6 -2598.6,154.8 -2624.4,154.8 -2650.2,154.8 -2650.2,180.6 -2650.2,206.4 
				-2650.2,232.2 -2624.4,232.2 -2598.6,232.2 -2572.8,232.2 -2572.8,206.4 -2547,206.4 -2547,180.6 -2572.8,180.6 			"/>
			<polygon class="st7" points="-2598.6,154.8 -2598.6,129 -2624.4,129 -2650.2,129 -2650.2,154.8 -2624.4,154.8 			"/>
			<polygon class="st6" points="-2727.6,180.6 -2753.4,180.6 -2753.4,154.8 -2779.2,154.8 -2779.2,180.6 -2779.2,206.4 
				-2779.2,232.2 -2753.4,232.2 -2753.4,206.4 -2727.6,206.4 -2701.8,206.4 -2676,206.4 -2676,180.6 -2701.8,180.6 			"/>
			<polygon class="st7" points="-2727.6,180.6 -2701.8,180.6 -2701.8,154.8 -2727.6,154.8 -2753.4,154.8 -2753.4,180.6 			"/>
			<rect x="-2779.2" y="129" class="st7" width="25.8" height="25.8"/>
			<rect x="-2830.8" y="154.8" class="st7" width="25.8" height="25.8"/>
			<polygon class="st6" points="-2856.6,180.6 -2882.4,180.6 -2908.3,180.6 -2934.1,180.6 -2959.9,180.6 -2985.7,180.6 
				-3011.5,180.6 -3037.3,180.6 -3063.1,180.6 -3088.9,180.6 -3114.7,180.6 -3114.7,154.8 -3140.5,154.8 -3140.5,180.6 
				-3140.5,206.4 -3140.5,232.2 -3114.7,232.2 -3114.7,206.4 -3088.9,206.4 -3063.1,206.4 -3037.3,206.4 -3011.5,206.4 
				-2985.7,206.4 -2959.9,206.4 -2934.1,206.4 -2908.3,206.4 -2882.4,206.4 -2856.6,206.4 -2830.8,206.4 -2805,206.4 -2805,180.6 
				-2830.8,180.6 			"/>
			<rect x="-2882.4" y="154.8" class="st7" width="25.8" height="25.8"/>
			<rect x="-2934.1" y="154.8" class="st7" width="25.8" height="25.8"/>
			<rect x="-2985.7" y="154.8" class="st7" width="25.8" height="25.8"/>
			<rect x="-3037.3" y="154.8" class="st7" width="25.8" height="25.8"/>
			<rect x="-3114.7" y="154.8" class="st7" width="25.8" height="25.8"/>
			<rect x="-3140.5" y="129" class="st7" width="25.8" height="25.8"/>
			<rect x="-3192.1" y="154.8" class="st7" width="25.8" height="25.8"/>
			<polygon class="st6" points="-3192.1,154.8 -3217.9,154.8 -3243.7,154.8 -3243.7,180.6 -3243.7,206.4 -3243.7,232.2 
				-3217.9,232.2 -3192.1,232.2 -3192.1,206.4 -3166.3,206.4 -3166.3,180.6 -3192.1,180.6 			"/>
			<polygon class="st7" points="-3192.1,154.8 -3192.1,129 -3217.9,129 -3243.7,129 -3243.7,154.8 -3217.9,154.8 			"/>
		</g>
		<g>
			<polygon class="st2" points="-3243.7,129 -3243.7,154.8 -3243.7,180.6 -3243.7,206.4 -3243.7,232.2 -3217.9,232.2 -3192.1,232.2 
				-3192.1,206.4 -3166.3,206.4 -3166.3,180.6 -3166.3,154.8 -3192.1,154.8 -3192.1,129 -3217.9,129 			"/>
			<polygon class="st2" points="-2779.2,180.6 -2779.2,206.4 -2779.2,232.2 -2753.4,232.2 -2753.4,206.4 -2727.6,206.4 
				-2701.8,206.4 -2676,206.4 -2676,180.6 -2701.8,180.6 -2701.8,154.8 -2727.6,154.8 -2753.4,154.8 -2753.4,129 -2779.2,129 
				-2779.2,154.8 			"/>
			<polygon class="st2" points="-3140.5,180.6 -3140.5,206.4 -3140.5,232.2 -3114.7,232.2 -3114.7,206.4 -3088.9,206.4 
				-3063.1,206.4 -3037.3,206.4 -3011.5,206.4 -2985.7,206.4 -2959.9,206.4 -2934.1,206.4 -2908.3,206.4 -2882.4,206.4 
				-2856.6,206.4 -2830.8,206.4 -2805,206.4 -2805,180.6 -2805,154.8 -2830.8,154.8 -2830.8,180.6 -2856.6,180.6 -2856.6,154.8 
				-2882.4,154.8 -2882.4,180.6 -2908.3,180.6 -2908.3,154.8 -2934.1,154.8 -2934.1,180.6 -2959.9,180.6 -2959.9,154.8 
				-2985.7,154.8 -2985.7,180.6 -3011.5,180.6 -3011.5,154.8 -3037.3,154.8 -3037.3,180.6 -3063.1,180.6 -3088.9,180.6 
				-3088.9,154.8 -3114.7,154.8 -3114.7,129 -3140.5,129 -3140.5,154.8 			"/>
			<polygon class="st8" points="-2521.2,129 -2547,129 -2572.8,129 -2598.6,129 -2598.6,154.8 -2572.8,154.8 -2547,154.8 
				-2521.2,154.8 -2495.4,154.8 -2495.4,129 			"/>
			<rect x="-2547" y="180.6" class="st8" width="25.8" height="25.8"/>
			<rect x="-2572.8" y="206.4" class="st8" width="25.8" height="25.8"/>
			<polygon class="st8" points="-2624.4,103.2 -2650.2,103.2 -2650.2,129 -2624.4,129 -2598.6,129 -2598.6,103.2 			"/>
			<polygon class="st9" points="-2650.2,258 -2650.2,283.8 -2624.4,283.8 -2598.6,283.8 -2598.6,258 -2624.4,258 			"/>
			<polygon class="st8" points="-2624.4,258 -2598.6,258 -2572.8,258 -2572.8,232.2 -2598.6,232.2 -2624.4,232.2 -2650.2,232.2 
				-2650.2,258 			"/>
			<polygon class="st8" points="-2676,154.8 -2676,180.6 -2676,206.4 -2701.8,206.4 -2727.6,206.4 -2753.4,206.4 -2753.4,232.2 
				-2727.6,232.2 -2701.8,232.2 -2676,232.2 -2650.2,232.2 -2650.2,206.4 -2650.2,180.6 -2650.2,154.8 -2650.2,129 -2676,129 			"/>
			<polygon class="st9" points="-2701.8,232.2 -2727.6,232.2 -2753.4,232.2 -2753.4,258 -2727.6,258 -2701.8,258 -2676,258 
				-2650.2,258 -2650.2,232.2 -2676,232.2 			"/>
			<polygon class="st9" points="-2701.8,154.8 -2701.8,180.6 -2676,180.6 -2676,154.8 -2676,129 -2701.8,129 -2727.6,129 
				-2727.6,154.8 			"/>
			<rect x="-2753.4" y="129" class="st8" width="25.8" height="25.8"/>
			<rect x="-2779.2" y="258" class="st9" width="25.8" height="25.8"/>
			<rect x="-2779.2" y="232.2" class="st8" width="25.8" height="25.8"/>
			<rect x="-2779.2" y="103.2" class="st8" width="25.8" height="25.8"/>
			<polygon class="st9" points="-2805,232.2 -2830.8,232.2 -2856.6,232.2 -2882.4,232.2 -2908.3,232.2 -2934.1,232.2 -2959.9,232.2 
				-2985.7,232.2 -3011.5,232.2 -3037.3,232.2 -3063.1,232.2 -3088.9,232.2 -3114.7,232.2 -3114.7,258 -3088.9,258 -3063.1,258 
				-3037.3,258 -3011.5,258 -2985.7,258 -2959.9,258 -2934.1,258 -2908.3,258 -2882.4,258 -2856.6,258 -2830.8,258 -2805,258 
				-2779.2,258 -2779.2,232.2 			"/>
			<polygon class="st8" points="-2805,154.8 -2805,180.6 -2805,206.4 -2830.8,206.4 -2856.6,206.4 -2882.4,206.4 -2908.3,206.4 
				-2934.1,206.4 -2959.9,206.4 -2985.7,206.4 -3011.5,206.4 -3037.3,206.4 -3063.1,206.4 -3088.9,206.4 -3114.7,206.4 
				-3114.7,232.2 -3088.9,232.2 -3063.1,232.2 -3037.3,232.2 -3011.5,232.2 -2985.7,232.2 -2959.9,232.2 -2934.1,232.2 
				-2908.3,232.2 -2882.4,232.2 -2856.6,232.2 -2830.8,232.2 -2805,232.2 -2779.2,232.2 -2779.2,206.4 -2779.2,180.6 -2779.2,154.8 
				-2779.2,129 -2805,129 -2830.8,129 -2830.8,154.8 			"/>
			<polygon class="st9" points="-2856.6,180.6 -2830.8,180.6 -2830.8,154.8 -2830.8,129 -2856.6,129 -2856.6,154.8 			"/>
			<rect x="-2882.4" y="129" class="st8" width="25.8" height="25.8"/>
			<polygon class="st9" points="-2908.3,180.6 -2882.4,180.6 -2882.4,154.8 -2882.4,129 -2908.3,129 -2908.3,154.8 			"/>
			<rect x="-2934.1" y="129" class="st8" width="25.8" height="25.8"/>
			<polygon class="st9" points="-2959.9,180.6 -2934.1,180.6 -2934.1,154.8 -2934.1,129 -2959.9,129 -2959.9,154.8 			"/>
			<rect x="-2985.7" y="129" class="st8" width="25.8" height="25.8"/>
			<polygon class="st9" points="-3011.5,180.6 -2985.7,180.6 -2985.7,154.8 -2985.7,129 -3011.5,129 -3011.5,154.8 			"/>
			<rect x="-3037.3" y="129" class="st8" width="25.8" height="25.8"/>
			<polygon class="st9" points="-3088.9,180.6 -3063.1,180.6 -3037.3,180.6 -3037.3,154.8 -3037.3,129 -3063.1,129 -3088.9,129 
				-3088.9,154.8 			"/>
			<rect x="-3114.7" y="129" class="st8" width="25.8" height="25.8"/>
			<rect x="-3140.5" y="258" class="st9" width="25.8" height="25.8"/>
			<rect x="-3140.5" y="232.2" class="st8" width="25.8" height="25.8"/>
			<rect x="-3140.5" y="103.2" class="st8" width="25.8" height="25.8"/>
			<polygon class="st9" points="-3166.3,232.2 -3192.1,232.2 -3192.1,258 -3166.3,258 -3140.5,258 -3140.5,232.2 			"/>
			<polygon class="st8" points="-3166.3,154.8 -3166.3,180.6 -3166.3,206.4 -3192.1,206.4 -3192.1,232.2 -3166.3,232.2 
				-3140.5,232.2 -3140.5,206.4 -3140.5,180.6 -3140.5,154.8 -3140.5,129 -3166.3,129 -3192.1,129 -3192.1,154.8 			"/>
			<polygon class="st8" points="-3217.9,232.2 -3243.7,232.2 -3243.7,258 -3217.9,258 -3192.1,258 -3192.1,232.2 			"/>
			<polygon class="st9" points="-3243.7,258 -3243.7,232.2 -3243.7,206.4 -3243.7,180.6 -3243.7,154.8 -3243.7,129 -3243.7,103.2 
				-3269.5,103.2 -3269.5,129 -3269.5,154.8 -3269.5,180.6 -3269.5,206.4 -3269.5,232.2 -3269.5,258 -3269.5,283.8 -3243.7,283.8 
				-3217.9,283.8 -3192.1,283.8 -3192.1,258 -3217.9,258 			"/>
			<polygon class="st8" points="-3217.9,129 -3192.1,129 -3192.1,103.2 -3217.9,103.2 -3243.7,103.2 -3243.7,129 			"/>
		</g>
	</g>
	<g>
		<g>
			<g>
				<polygon class="st10" points="-2747.2,541.8 -2747.2,567.6 -2773,567.6 -2773,593.4 -2747.2,593.4 -2747.2,619.2 -2721.4,619.2 
					-2721.4,593.4 -2721.4,567.6 -2721.4,541.8 				"/>
				<rect x="-2798.8" y="541.8" class="st10" width="25.8" height="25.8"/>
				<polygon class="st10" points="-2824.6,696.7 -2824.6,722.5 -2798.8,722.5 -2798.8,696.7 -2798.8,670.8 -2824.6,670.8 				"/>
				<polygon class="st10" points="-2875.2,721.5 -2901,721.5 -2901,747.3 -2875.2,747.3 -2849.4,747.3 -2823.6,747.3 -2823.6,721.5 
					-2849.4,721.5 				"/>
			</g>
		</g>
		<rect x="-2902" y="670.8" class="st1" width="25.8" height="25.8"/>
		<polygon class="st11" points="-2773,516 -2773,490.2 -2798.8,490.2 -2798.8,464.4 -2824.6,464.4 -2824.6,490.2 -2824.6,516 
			-2824.6,541.8 -2824.6,567.6 -2824.6,593.4 -2824.6,619.2 -2824.6,645 -2850.4,645 -2876.2,645 -2902,645 -2902,670.8 
			-2876.2,670.8 -2876.2,696.7 -2902,696.7 -2902,670.8 -2927.8,670.8 -2927.8,696.7 -2927.8,722.5 -2902,722.5 -2876.2,722.5 
			-2850.4,722.5 -2824.6,722.5 -2824.6,696.7 -2824.6,670.8 -2798.8,670.8 -2798.8,645 -2798.8,619.2 -2798.8,593.4 -2798.8,567.6 
			-2798.8,541.8 -2773,541.8 -2773,567.6 -2747.2,567.6 -2747.2,541.8 -2747.2,516 		"/>
	</g>
	<g>
		<g>
			<g>
				<polygon class="st12" points="-2505.8,464.4 -2505.8,490.2 -2531.6,490.2 -2531.6,516 -2505.8,516 -2505.8,541.8 -2480,541.8 
					-2480,516 -2480,490.2 -2480,464.4 				"/>
				<rect x="-2557.4" y="464.4" class="st12" width="25.8" height="25.8"/>
				<polygon class="st12" points="-2583.2,619.3 -2583.2,645.1 -2557.4,645.1 -2557.4,619.3 -2557.4,593.4 -2583.2,593.4 				"/>
				<polygon class="st12" points="-2633.8,644.1 -2659.6,644.1 -2659.6,669.9 -2633.8,669.9 -2608,669.9 -2582.2,669.9 
					-2582.2,644.1 -2608,644.1 				"/>
			</g>
		</g>
		<rect x="-2660.6" y="593.5" class="st1" width="25.8" height="25.8"/>
		<polygon class="st13" points="-2531.6,438.6 -2531.6,412.8 -2557.4,412.8 -2557.4,387 -2583.2,387 -2583.2,412.8 -2583.2,438.6 
			-2583.2,464.4 -2583.2,490.2 -2583.2,516 -2583.2,541.8 -2583.2,567.6 -2609,567.6 -2634.8,567.6 -2660.6,567.6 -2660.6,593.4 
			-2634.8,593.4 -2634.8,619.3 -2660.6,619.3 -2660.6,593.4 -2686.4,593.4 -2686.4,619.3 -2686.4,645.1 -2660.6,645.1 
			-2634.8,645.1 -2609,645.1 -2583.2,645.1 -2583.2,619.3 -2583.2,593.4 -2557.4,593.4 -2557.4,567.6 -2557.4,541.8 -2557.4,516 
			-2557.4,490.2 -2557.4,464.4 -2531.6,464.4 -2531.6,490.2 -2505.8,490.2 -2505.8,464.4 -2505.8,438.6 		"/>
	</g>
	<polygon class="st14" points="-1921.6,593.4 -1921.6,567.6 -1947.4,567.6 -1973.2,567.6 -1973.2,541.8 -1973.2,516 -1999,516 
		-1999,490.2 -2024.8,490.2 -2050.6,490.2 -2050.6,464.4 -2050.6,438.6 -2076.5,438.6 -2076.5,464.4 -2102.3,464.4 -2102.3,490.2 
		-2102.3,516 -2128.1,516 -2128.1,541.8 -2153.9,541.8 -2153.9,567.6 -2153.9,593.4 -2179.7,593.4 -2179.7,619.2 -2205.5,619.2 
		-2205.5,645 -2205.5,670.9 -2179.7,670.9 -2179.7,696.7 -2153.9,696.7 -2128.1,696.7 -2102.3,696.7 -2076.5,696.7 -2050.6,696.7 
		-2024.8,696.7 -1999,696.7 -1973.2,696.7 -1947.4,696.7 -1921.6,696.7 -1921.6,670.9 -1895.8,670.9 -1895.8,645 -1895.8,619.2 
		-1895.8,593.4 	"/>
	<g>
		<g id="XMLID_2_">
			<rect x="-1973.2" y="593.4" class="st1" width="25.8" height="25.8"/>
			<rect x="-2050.6" y="541.8" class="st1" width="25.8" height="25.8"/>
			<g>
				<rect x="-2050.6" y="541.8" class="st2" width="25.8" height="25.8"/>
				<rect x="-1973.2" y="593.4" class="st2" width="25.8" height="25.8"/>
				<polygon class="st14" points="-1921.6,593.4 -1921.6,619.2 -1921.6,645 -1947.4,645 -1947.4,619.2 -1973.2,619.2 -1973.2,593.4 
					-1947.4,593.4 -1921.6,593.4 -1921.6,567.6 -1947.4,567.6 -1973.2,567.6 -1973.2,541.8 -1973.2,516 -1999,516 -1999,490.2 
					-2024.8,490.2 -2050.6,490.2 -2050.6,464.4 -2050.6,438.6 -2076.5,438.6 -2076.5,464.4 -2102.3,464.4 -2102.3,490.2 
					-2076.5,490.2 -2076.5,516 -2050.6,516 -2024.8,516 -2024.8,541.8 -1999,541.8 -1999,567.6 -1999,593.4 -2024.8,593.4 
					-2024.8,567.6 -2050.6,567.6 -2050.6,541.8 -2076.5,541.8 -2076.5,516 -2102.3,516 -2128.1,516 -2128.1,541.8 -2128.1,567.6 
					-2102.3,567.6 -2076.5,567.6 -2076.5,593.4 -2050.6,593.4 -2050.6,619.2 -2076.5,619.2 -2102.3,619.2 -2128.1,619.2 
					-2128.1,593.4 -2153.9,593.4 -2179.7,593.4 -2179.7,619.2 -2153.9,619.2 -2153.9,645 -2128.1,645 -2102.3,645 -2076.5,645 
					-2076.5,670.9 -2050.6,670.9 -2024.8,670.9 -1999,670.9 -1973.2,670.9 -1947.4,670.9 -1947.4,696.7 -1921.6,696.7 
					-1921.6,670.9 -1895.8,670.9 -1895.8,645 -1895.8,619.2 -1895.8,593.4 				"/>
				<polygon class="st15" points="-1947.4,619.2 -1947.4,645 -1921.6,645 -1921.6,619.2 -1921.6,593.4 -1947.4,593.4 				"/>
				<polygon class="st16" points="-1973.2,670.9 -1999,670.9 -2024.8,670.9 -2050.6,670.9 -2050.6,696.7 -2024.8,696.7 -1999,696.7 
					-1973.2,696.7 -1947.4,696.7 -1947.4,670.9 				"/>
				<polygon class="st15" points="-2024.8,593.4 -1999,593.4 -1999,567.6 -1999,541.8 -2024.8,541.8 -2024.8,567.6 				"/>
				<polygon class="st17" points="-2076.5,670.9 -2102.3,670.9 -2128.1,670.9 -2153.9,670.9 -2153.9,696.7 -2128.1,696.7 
					-2102.3,696.7 -2076.5,696.7 -2050.6,696.7 -2050.6,670.9 				"/>
				<polygon class="st16" points="-2050.6,541.8 -2024.8,541.8 -2024.8,516 -2050.6,516 -2076.5,516 -2076.5,541.8 				"/>
				<rect x="-2102.3" y="490.2" class="st16" width="25.8" height="25.8"/>
				<rect x="-2128.1" y="593.4" class="st17" width="25.8" height="25.8"/>
				<polygon class="st16" points="-2102.3,593.4 -2102.3,619.2 -2076.5,619.2 -2050.6,619.2 -2050.6,593.4 -2076.5,593.4 
					-2076.5,567.6 -2102.3,567.6 -2128.1,567.6 -2128.1,541.8 -2153.9,541.8 -2153.9,567.6 -2153.9,593.4 -2128.1,593.4 				"/>
				<polygon class="st16" points="-2128.1,670.9 -2102.3,670.9 -2076.5,670.9 -2076.5,645 -2102.3,645 -2128.1,645 -2153.9,645 
					-2153.9,670.9 				"/>
				<rect x="-2179.7" y="670.9" class="st16" width="25.8" height="25.8"/>
				<rect x="-2179.7" y="645" class="st17" width="25.8" height="25.8"/>
				<rect x="-2179.7" y="619.2" class="st16" width="25.8" height="25.8"/>
				<rect x="-2205.5" y="645" class="st16" width="25.8" height="25.8"/>
				<rect x="-2205.5" y="619.2" class="st14" width="25.8" height="25.8"/>
			</g>
		</g>
	</g>
	<g>
		<g id="XMLID_3_">
			<g>
				<rect x="-1895.9" y="438.6" class="st18" width="25.8" height="25.8"/>
				<rect x="-2282.9" y="516" class="st18" width="25.8" height="25.8"/>
				<rect x="-2179.7" y="438.6" class="st18" width="25.8" height="25.8"/>
				<rect x="-1999.1" y="283.8" class="st18" width="25.8" height="25.8"/>
				<rect x="-2205.5" y="258" class="st18" width="25.8" height="25.8"/>
				<rect x="-2257.1" y="541.8" class="st18" width="25.8" height="25.8"/>
				<rect x="-1973.3" y="309.6" class="st18" width="25.8" height="25.8"/>
				<rect x="-1921.7" y="464.4" class="st18" width="25.8" height="25.8"/>
				<rect x="-2231.3" y="283.8" class="st18" width="25.8" height="25.8"/>
				<rect x="-2153.9" y="412.8" class="st18" width="25.8" height="25.8"/>
			</g>
			<g>
			</g>
		</g>
	</g>
	<polygon class="st14" points="-1101.6,593.4 -1101.6,567.6 -1127.4,567.6 -1153.2,567.6 -1153.2,541.8 -1153.2,516 -1179,516 
		-1179,490.2 -1204.8,490.2 -1230.6,490.2 -1230.6,464.4 -1230.6,438.6 -1256.5,438.6 -1256.5,464.4 -1282.3,464.4 -1282.3,490.2 
		-1282.3,516 -1308.1,516 -1308.1,541.8 -1333.9,541.8 -1333.9,567.6 -1333.9,593.4 -1359.7,593.4 -1359.7,619.2 -1385.5,619.2 
		-1385.5,645 -1385.5,670.9 -1359.7,670.9 -1359.7,696.7 -1333.9,696.7 -1308.1,696.7 -1282.3,696.7 -1256.5,696.7 -1230.6,696.7 
		-1204.8,696.7 -1179,696.7 -1153.2,696.7 -1127.4,696.7 -1101.6,696.7 -1101.6,670.9 -1075.8,670.9 -1075.8,645 -1075.8,619.2 
		-1075.8,593.4 	"/>
	<g>
		<g id="XMLID_5_">
			<rect x="-1153.2" y="593.4" class="st1" width="25.8" height="25.8"/>
			<rect x="-1230.6" y="541.8" class="st1" width="25.8" height="25.8"/>
			<g>
				<rect x="-1230.6" y="541.8" class="st2" width="25.8" height="25.8"/>
				<rect x="-1153.2" y="593.4" class="st2" width="25.8" height="25.8"/>
				<polygon class="st14" points="-1101.6,593.4 -1101.6,619.2 -1101.6,645 -1127.4,645 -1127.4,619.2 -1153.2,619.2 -1153.2,593.4 
					-1127.4,593.4 -1101.6,593.4 -1101.6,567.6 -1127.4,567.6 -1153.2,567.6 -1153.2,541.8 -1153.2,516 -1179,516 -1179,490.2 
					-1204.8,490.2 -1230.6,490.2 -1230.6,464.4 -1230.6,438.6 -1256.5,438.6 -1256.5,464.4 -1282.3,464.4 -1282.3,490.2 
					-1256.5,490.2 -1256.5,516 -1230.6,516 -1204.8,516 -1204.8,541.8 -1179,541.8 -1179,567.6 -1179,593.4 -1204.8,593.4 
					-1204.8,567.6 -1230.6,567.6 -1230.6,541.8 -1256.5,541.8 -1256.5,516 -1282.3,516 -1308.1,516 -1308.1,541.8 -1308.1,567.6 
					-1282.3,567.6 -1256.5,567.6 -1256.5,593.4 -1230.6,593.4 -1230.6,619.2 -1256.5,619.2 -1282.3,619.2 -1308.1,619.2 
					-1308.1,593.4 -1333.9,593.4 -1359.7,593.4 -1359.7,619.2 -1333.9,619.2 -1333.9,645 -1308.1,645 -1282.3,645 -1256.5,645 
					-1256.5,670.9 -1230.6,670.9 -1204.8,670.9 -1179,670.9 -1153.2,670.9 -1127.4,670.9 -1127.4,696.7 -1101.6,696.7 
					-1101.6,670.9 -1075.8,670.9 -1075.8,645 -1075.8,619.2 -1075.8,593.4 				"/>
				<polygon class="st15" points="-1127.4,619.2 -1127.4,645 -1101.6,645 -1101.6,619.2 -1101.6,593.4 -1127.4,593.4 				"/>
				<polygon class="st16" points="-1153.2,670.9 -1179,670.9 -1204.8,670.9 -1230.6,670.9 -1230.6,696.7 -1204.8,696.7 -1179,696.7 
					-1153.2,696.7 -1127.4,696.7 -1127.4,670.9 				"/>
				<polygon class="st15" points="-1204.8,593.4 -1179,593.4 -1179,567.6 -1179,541.8 -1204.8,541.8 -1204.8,567.6 				"/>
				<polygon class="st17" points="-1256.5,670.9 -1282.3,670.9 -1308.1,670.9 -1333.9,670.9 -1333.9,696.7 -1308.1,696.7 
					-1282.3,696.7 -1256.5,696.7 -1230.6,696.7 -1230.6,670.9 				"/>
				<polygon class="st16" points="-1230.6,541.8 -1204.8,541.8 -1204.8,516 -1230.6,516 -1256.5,516 -1256.5,541.8 				"/>
				<rect x="-1282.3" y="490.2" class="st16" width="25.8" height="25.8"/>
				<rect x="-1308.1" y="593.4" class="st17" width="25.8" height="25.8"/>
				<polygon class="st16" points="-1282.3,593.4 -1282.3,619.2 -1256.5,619.2 -1230.6,619.2 -1230.6,593.4 -1256.5,593.4 
					-1256.5,567.6 -1282.3,567.6 -1308.1,567.6 -1308.1,541.8 -1333.9,541.8 -1333.9,567.6 -1333.9,593.4 -1308.1,593.4 				"/>
				<polygon class="st16" points="-1308.1,670.9 -1282.3,670.9 -1256.5,670.9 -1256.5,645 -1282.3,645 -1308.1,645 -1333.9,645 
					-1333.9,670.9 				"/>
				<rect x="-1359.7" y="670.9" class="st16" width="25.8" height="25.8"/>
				<rect x="-1359.7" y="645" class="st17" width="25.8" height="25.8"/>
				<rect x="-1359.7" y="619.2" class="st16" width="25.8" height="25.8"/>
				<rect x="-1385.5" y="645" class="st16" width="25.8" height="25.8"/>
				<rect x="-1385.5" y="619.2" class="st14" width="25.8" height="25.8"/>
			</g>
		</g>
	</g>
	<g>
		<g id="XMLID_4_">
			<g>
				<rect x="-1024.3" y="516" class="st18" width="25.8" height="25.8"/>
				<rect x="-1050.1" y="541.8" class="st18" width="25.8" height="25.8"/>
				<rect x="-1153.3" y="387" class="st18" width="25.8" height="25.8"/>
				<rect x="-1179.1" y="361.2" class="st18" width="25.8" height="25.8"/>
				<rect x="-1308.1" y="283.8" class="st18" width="25.8" height="25.8"/>
				<rect x="-1333.9" y="309.6" class="st18" width="25.8" height="25.8"/>
				<rect x="-1359.7" y="361.2" class="st18" width="25.8" height="25.8"/>
				<rect x="-1385.5" y="387" class="st18" width="25.8" height="25.8"/>
				<rect x="-1437.2" y="516" class="st18" width="25.8" height="25.8"/>
				<rect x="-1462.9" y="490.2" class="st18" width="25.8" height="25.8"/>
			</g>
			<g>
			</g>
		</g>
	</g>
	<polygon class="st14" points="-281.6,593.4 -281.6,567.6 -307.4,567.6 -333.2,567.6 -333.2,541.8 -333.2,516 -359,516 -359,490.2 
		-384.8,490.2 -410.6,490.2 -410.6,464.4 -410.6,438.6 -436.5,438.6 -436.5,464.4 -462.3,464.4 -462.3,490.2 -462.3,516 -488.1,516 
		-488.1,541.8 -513.9,541.8 -513.9,567.6 -513.9,593.4 -539.7,593.4 -539.7,619.2 -565.5,619.2 -565.5,645 -565.5,670.9 
		-539.7,670.9 -539.7,696.7 -513.9,696.7 -488.1,696.7 -462.3,696.7 -436.5,696.7 -410.6,696.7 -384.8,696.7 -359,696.7 
		-333.2,696.7 -307.4,696.7 -281.6,696.7 -281.6,670.9 -255.8,670.9 -255.8,645 -255.8,619.2 -255.8,593.4 	"/>
	<g>
		<g id="XMLID_7_">
			<rect x="-333.2" y="593.4" class="st1" width="25.8" height="25.8"/>
			<rect x="-410.6" y="541.8" class="st1" width="25.8" height="25.8"/>
			<g>
				<rect x="-410.6" y="541.8" class="st2" width="25.8" height="25.8"/>
				<rect x="-333.2" y="593.4" class="st2" width="25.8" height="25.8"/>
				<polygon class="st14" points="-281.6,593.4 -281.6,619.2 -281.6,645 -307.4,645 -307.4,619.2 -333.2,619.2 -333.2,593.4 
					-307.4,593.4 -281.6,593.4 -281.6,567.6 -307.4,567.6 -333.2,567.6 -333.2,541.8 -333.2,516 -359,516 -359,490.2 -384.8,490.2 
					-410.6,490.2 -410.6,464.4 -410.6,438.6 -436.5,438.6 -436.5,464.4 -462.3,464.4 -462.3,490.2 -436.5,490.2 -436.5,516 
					-410.6,516 -384.8,516 -384.8,541.8 -359,541.8 -359,567.6 -359,593.4 -384.8,593.4 -384.8,567.6 -410.6,567.6 -410.6,541.8 
					-436.5,541.8 -436.5,516 -462.3,516 -488.1,516 -488.1,541.8 -488.1,567.6 -462.3,567.6 -436.5,567.6 -436.5,593.4 
					-410.6,593.4 -410.6,619.2 -436.5,619.2 -462.3,619.2 -488.1,619.2 -488.1,593.4 -513.9,593.4 -539.7,593.4 -539.7,619.2 
					-513.9,619.2 -513.9,645 -488.1,645 -462.3,645 -436.5,645 -436.5,670.9 -410.6,670.9 -384.8,670.9 -359,670.9 -333.2,670.9 
					-307.4,670.9 -307.4,696.7 -281.6,696.7 -281.6,670.9 -255.8,670.9 -255.8,645 -255.8,619.2 -255.8,593.4 				"/>
				<polygon class="st15" points="-307.4,619.2 -307.4,645 -281.6,645 -281.6,619.2 -281.6,593.4 -307.4,593.4 				"/>
				<polygon class="st16" points="-333.2,670.9 -359,670.9 -384.8,670.9 -410.6,670.9 -410.6,696.7 -384.8,696.7 -359,696.7 
					-333.2,696.7 -307.4,696.7 -307.4,670.9 				"/>
				<polygon class="st15" points="-384.8,593.4 -359,593.4 -359,567.6 -359,541.8 -384.8,541.8 -384.8,567.6 				"/>
				<polygon class="st17" points="-436.5,670.9 -462.3,670.9 -488.1,670.9 -513.9,670.9 -513.9,696.7 -488.1,696.7 -462.3,696.7 
					-436.5,696.7 -410.6,696.7 -410.6,670.9 				"/>
				<polygon class="st16" points="-410.6,541.8 -384.8,541.8 -384.8,516 -410.6,516 -436.5,516 -436.5,541.8 				"/>
				<rect x="-462.3" y="490.2" class="st16" width="25.8" height="25.8"/>
				<rect x="-488.1" y="593.4" class="st17" width="25.8" height="25.8"/>
				<polygon class="st16" points="-462.3,593.4 -462.3,619.2 -436.5,619.2 -410.6,619.2 -410.6,593.4 -436.5,593.4 -436.5,567.6 
					-462.3,567.6 -488.1,567.6 -488.1,541.8 -513.9,541.8 -513.9,567.6 -513.9,593.4 -488.1,593.4 				"/>
				<polygon class="st16" points="-488.1,670.9 -462.3,670.9 -436.5,670.9 -436.5,645 -462.3,645 -488.1,645 -513.9,645 
					-513.9,670.9 				"/>
				<rect x="-539.7" y="670.9" class="st16" width="25.8" height="25.8"/>
				<rect x="-539.7" y="645" class="st17" width="25.8" height="25.8"/>
				<rect x="-539.7" y="619.2" class="st16" width="25.8" height="25.8"/>
				<rect x="-565.5" y="645" class="st16" width="25.8" height="25.8"/>
				<rect x="-565.5" y="619.2" class="st14" width="25.8" height="25.8"/>
			</g>
		</g>
	</g>
	<g>
		<g id="XMLID_6_">
			<g>
				<rect x="-230.1" y="490.2" class="st18" width="25.8" height="25.8"/>
				<rect x="-255.9" y="464.4" class="st18" width="25.8" height="25.8"/>
				<rect x="-333.3" y="335.4" class="st18" width="25.8" height="25.8"/>
				<rect x="-359.1" y="361.2" class="st18" width="25.8" height="25.8"/>
				<rect x="-488.1" y="412.8" class="st18" width="25.8" height="25.8"/>
				<rect x="-513.9" y="438.6" class="st18" width="25.8" height="25.8"/>
				<rect x="-539.7" y="258" class="st18" width="25.8" height="25.8"/>
				<rect x="-565.5" y="283.8" class="st18" width="25.8" height="25.8"/>
				<rect x="-643" y="438.6" class="st18" width="25.8" height="25.8"/>
				<rect x="-668.8" y="412.8" class="st18" width="25.8" height="25.8"/>
			</g>
			<g>
			</g>
		</g>
	</g>
	<polygon class="st14" points="538.4,593.4 538.4,567.6 512.6,567.6 486.8,567.6 486.8,541.8 486.8,516 461,516 461,490.2 
		435.2,490.2 409.4,490.2 409.4,464.4 409.4,438.6 383.5,438.6 383.5,464.4 357.7,464.4 357.7,490.2 357.7,516 331.9,516 
		331.9,541.8 306.1,541.8 306.1,567.6 306.1,593.4 280.3,593.4 280.3,619.2 254.5,619.2 254.5,645 254.5,670.9 280.3,670.9 
		280.3,696.7 306.1,696.7 331.9,696.7 357.7,696.7 383.5,696.7 409.4,696.7 435.2,696.7 461,696.7 486.8,696.7 512.6,696.7 
		538.4,696.7 538.4,670.9 564.2,670.9 564.2,645 564.2,619.2 564.2,593.4 	"/>
	<g>
		<g id="XMLID_9_">
			<rect x="486.8" y="593.4" class="st1" width="25.8" height="25.8"/>
			<rect x="409.4" y="541.8" class="st1" width="25.8" height="25.8"/>
			<g>
				<rect x="409.4" y="541.8" class="st2" width="25.8" height="25.8"/>
				<rect x="486.8" y="593.4" class="st2" width="25.8" height="25.8"/>
				<polygon class="st14" points="538.4,593.4 538.4,619.2 538.4,645 512.6,645 512.6,619.2 486.8,619.2 486.8,593.4 512.6,593.4 
					538.4,593.4 538.4,567.6 512.6,567.6 486.8,567.6 486.8,541.8 486.8,516 461,516 461,490.2 435.2,490.2 409.4,490.2 
					409.4,464.4 409.4,438.6 383.5,438.6 383.5,464.4 357.7,464.4 357.7,490.2 383.5,490.2 383.5,516 409.4,516 435.2,516 
					435.2,541.8 461,541.8 461,567.6 461,593.4 435.2,593.4 435.2,567.6 409.4,567.6 409.4,541.8 383.5,541.8 383.5,516 357.7,516 
					331.9,516 331.9,541.8 331.9,567.6 357.7,567.6 383.5,567.6 383.5,593.4 409.4,593.4 409.4,619.2 383.5,619.2 357.7,619.2 
					331.9,619.2 331.9,593.4 306.1,593.4 280.3,593.4 280.3,619.2 306.1,619.2 306.1,645 331.9,645 357.7,645 383.5,645 
					383.5,670.9 409.4,670.9 435.2,670.9 461,670.9 486.8,670.9 512.6,670.9 512.6,696.7 538.4,696.7 538.4,670.9 564.2,670.9 
					564.2,645 564.2,619.2 564.2,593.4 				"/>
				<polygon class="st15" points="512.6,619.2 512.6,645 538.4,645 538.4,619.2 538.4,593.4 512.6,593.4 				"/>
				<polygon class="st16" points="486.8,670.9 461,670.9 435.2,670.9 409.4,670.9 409.4,696.7 435.2,696.7 461,696.7 486.8,696.7 
					512.6,696.7 512.6,670.9 				"/>
				<polygon class="st15" points="435.2,593.4 461,593.4 461,567.6 461,541.8 435.2,541.8 435.2,567.6 				"/>
				<polygon class="st17" points="383.5,670.9 357.7,670.9 331.9,670.9 306.1,670.9 306.1,696.7 331.9,696.7 357.7,696.7 
					383.5,696.7 409.4,696.7 409.4,670.9 				"/>
				<polygon class="st16" points="409.4,541.8 435.2,541.8 435.2,516 409.4,516 383.5,516 383.5,541.8 				"/>
				<rect x="357.7" y="490.2" class="st16" width="25.8" height="25.8"/>
				<rect x="331.9" y="593.4" class="st17" width="25.8" height="25.8"/>
				<polygon class="st16" points="357.7,593.4 357.7,619.2 383.5,619.2 409.4,619.2 409.4,593.4 383.5,593.4 383.5,567.6 
					357.7,567.6 331.9,567.6 331.9,541.8 306.1,541.8 306.1,567.6 306.1,593.4 331.9,593.4 				"/>
				<polygon class="st16" points="331.9,670.9 357.7,670.9 383.5,670.9 383.5,645 357.7,645 331.9,645 306.1,645 306.1,670.9 				
					"/>
				<rect x="280.3" y="670.9" class="st16" width="25.8" height="25.8"/>
				<rect x="280.3" y="645" class="st17" width="25.8" height="25.8"/>
				<rect x="280.3" y="619.2" class="st16" width="25.8" height="25.8"/>
				<rect x="254.5" y="645" class="st16" width="25.8" height="25.8"/>
				<rect x="254.5" y="619.2" class="st14" width="25.8" height="25.8"/>
			</g>
		</g>
	</g>
	<g>
		<g id="XMLID_8_">
			<g>
				<rect x="615.8" y="516" class="st18" width="25.8" height="25.8"/>
				<rect x="590" y="541.8" class="st18" width="25.8" height="25.8"/>
				<rect x="564.1" y="361.2" class="st18" width="25.8" height="25.8"/>
				<rect x="538.3" y="335.4" class="st18" width="25.8" height="25.8"/>
				<rect x="357.7" y="283.8" class="st18" width="25.8" height="25.8"/>
				<rect x="331.9" y="258" class="st18" width="25.8" height="25.8"/>
				<rect x="357.7" y="387" class="st18" width="25.8" height="25.8"/>
				<rect x="383.5" y="361.2" class="st18" width="25.8" height="25.8"/>
				<rect x="202.9" y="541.8" class="st18" width="25.8" height="25.8"/>
				<rect x="228.7" y="516" class="st18" width="25.8" height="25.8"/>
			</g>
			<g>
			</g>
		</g>
	</g>
</g>
<g id="Layer_2" class="st19">
	<g class="st20">
		<rect x="-4920" y="-1" class="st21" width="800" height="800"/>
		<line class="st21" x1="-4920" y1="773.2" x2="-4120" y2="773.2"/>
		<line class="st21" x1="-4920" y1="747.4" x2="-4120" y2="747.4"/>
		<line class="st21" x1="-4920" y1="721.6" x2="-4120" y2="721.6"/>
		<line class="st21" x1="-4920" y1="695.8" x2="-4120" y2="695.8"/>
		<line class="st21" x1="-4920" y1="670" x2="-4120" y2="670"/>
		<line class="st21" x1="-4920" y1="644.2" x2="-4120" y2="644.2"/>
		<line class="st21" x1="-4920" y1="618.4" x2="-4120" y2="618.4"/>
		<line class="st21" x1="-4920" y1="592.5" x2="-4120" y2="592.5"/>
		<line class="st21" x1="-4920" y1="566.7" x2="-4120" y2="566.7"/>
		<line class="st21" x1="-4920" y1="540.9" x2="-4120" y2="540.9"/>
		<line class="st21" x1="-4920" y1="515.1" x2="-4120" y2="515.1"/>
		<line class="st21" x1="-4920" y1="489.3" x2="-4120" y2="489.3"/>
		<line class="st21" x1="-4920" y1="463.5" x2="-4120" y2="463.5"/>
		<line class="st21" x1="-4920" y1="437.7" x2="-4120" y2="437.7"/>
		<line class="st21" x1="-4920" y1="411.9" x2="-4120" y2="411.9"/>
		<line class="st21" x1="-4920" y1="386.1" x2="-4120" y2="386.1"/>
		<line class="st21" x1="-4920" y1="360.3" x2="-4120" y2="360.3"/>
		<line class="st21" x1="-4920" y1="334.5" x2="-4120" y2="334.5"/>
		<line class="st21" x1="-4920" y1="308.7" x2="-4120" y2="308.7"/>
		<line class="st21" x1="-4920" y1="282.9" x2="-4120" y2="282.9"/>
		<line class="st21" x1="-4920" y1="257.1" x2="-4120" y2="257.1"/>
		<line class="st21" x1="-4920" y1="231.3" x2="-4120" y2="231.3"/>
		<line class="st21" x1="-4920" y1="205.5" x2="-4120" y2="205.5"/>
		<line class="st21" x1="-4920" y1="179.6" x2="-4120" y2="179.6"/>
		<line class="st21" x1="-4920" y1="153.8" x2="-4120" y2="153.8"/>
		<line class="st21" x1="-4920" y1="128" x2="-4120" y2="128"/>
		<line class="st21" x1="-4920" y1="102.2" x2="-4120" y2="102.2"/>
		<line class="st21" x1="-4920" y1="76.4" x2="-4120" y2="76.4"/>
		<line class="st21" x1="-4920" y1="50.6" x2="-4120" y2="50.6"/>
		<line class="st21" x1="-4920" y1="24.8" x2="-4120" y2="24.8"/>
		<line class="st21" x1="-4145.8" y1="-1" x2="-4145.8" y2="799"/>
		<line class="st21" x1="-4171.6" y1="-1" x2="-4171.6" y2="799"/>
		<line class="st21" x1="-4197.4" y1="-1" x2="-4197.4" y2="799"/>
		<line class="st21" x1="-4223.2" y1="-1" x2="-4223.2" y2="799"/>
		<line class="st21" x1="-4249" y1="-1" x2="-4249" y2="799"/>
		<line class="st21" x1="-4274.8" y1="-1" x2="-4274.8" y2="799"/>
		<line class="st21" x1="-4300.6" y1="-1" x2="-4300.6" y2="799"/>
		<line class="st21" x1="-4326.5" y1="-1" x2="-4326.5" y2="799"/>
		<line class="st21" x1="-4352.3" y1="-1" x2="-4352.3" y2="799"/>
		<line class="st21" x1="-4378.1" y1="-1" x2="-4378.1" y2="799"/>
		<line class="st21" x1="-4403.9" y1="-1" x2="-4403.9" y2="799"/>
		<line class="st21" x1="-4429.7" y1="-1" x2="-4429.7" y2="799"/>
		<line class="st21" x1="-4455.5" y1="-1" x2="-4455.5" y2="799"/>
		<line class="st21" x1="-4481.3" y1="-1" x2="-4481.3" y2="799"/>
		<line class="st21" x1="-4507.1" y1="-1" x2="-4507.1" y2="799"/>
		<line class="st21" x1="-4532.9" y1="-1" x2="-4532.9" y2="799"/>
		<line class="st21" x1="-4558.7" y1="-1" x2="-4558.7" y2="799"/>
		<line class="st21" x1="-4584.5" y1="-1" x2="-4584.5" y2="799"/>
		<line class="st21" x1="-4610.3" y1="-1" x2="-4610.3" y2="799"/>
		<line class="st21" x1="-4636.1" y1="-1" x2="-4636.1" y2="799"/>
		<line class="st21" x1="-4661.9" y1="-1" x2="-4661.9" y2="799"/>
		<line class="st21" x1="-4687.7" y1="-1" x2="-4687.7" y2="799"/>
		<line class="st21" x1="-4713.5" y1="-1" x2="-4713.5" y2="799"/>
		<line class="st21" x1="-4739.4" y1="-1" x2="-4739.4" y2="799"/>
		<line class="st21" x1="-4765.2" y1="-1" x2="-4765.2" y2="799"/>
		<line class="st21" x1="-4791" y1="-1" x2="-4791" y2="799"/>
		<line class="st21" x1="-4816.8" y1="-1" x2="-4816.8" y2="799"/>
		<line class="st21" x1="-4842.6" y1="-1" x2="-4842.6" y2="799"/>
		<line class="st21" x1="-4868.4" y1="-1" x2="-4868.4" y2="799"/>
		<line class="st21" x1="-4894.2" y1="-1" x2="-4894.2" y2="799"/>
	</g>
</g>
</svg>
