<?xml version="1.0" encoding="utf-8"?>
<!-- Generator: Adobe Illustrator 22.0.1, SVG Export Plug-In . SVG Version: 6.00 Build 0)  -->
<svg version="1.1" id="Layer_1" xmlns="http://www.w3.org/2000/svg" xmlns:xlink="http://www.w3.org/1999/xlink" x="0px" y="0px"
	 viewBox="0 0 324.5 273.5" style="enable-background:new 0 0 324.5 273.5;" xml:space="preserve">
<style type="text/css">
	.st0{fill:#723E00;}
	.st1{fill:#FFFFFF;}
	.st2{fill:none;}
	.st3{fill:#8C5110;}
	.st4{fill:#512A00;}
	.st5{fill:#3D1E00;}
</style>
<polygon class="st0" points="292.8,162.7 292.8,136.9 267,136.9 241.2,136.9 241.2,111.1 241.2,85.2 215.4,85.2 215.4,59.4 
	189.6,59.4 163.8,59.4 163.8,33.6 163.8,7.8 138,7.8 138,33.6 112.2,33.6 112.2,59.4 112.2,85.2 86.4,85.2 86.4,111.1 60.6,111.1 
	60.6,136.9 60.6,162.7 34.8,162.7 34.8,188.5 9,188.5 9,214.3 9,240.1 34.8,240.1 34.8,265.9 60.6,265.9 86.4,265.9 112.2,265.9 
	138,265.9 163.8,265.9 189.6,265.9 215.4,265.9 241.2,265.9 267,265.9 292.8,265.9 292.8,240.1 318.6,240.1 318.6,214.3 
	318.6,188.5 318.6,162.7 "/>
<g>
	<g id="XMLID_1_">
		<rect x="241.2" y="162.7" class="st1" width="25.8" height="25.8"/>
		<rect x="163.8" y="111.1" class="st1" width="25.8" height="25.8"/>
		<g>
			<rect x="163.8" y="111.1" class="st2" width="25.8" height="25.8"/>
			<rect x="241.2" y="162.7" class="st2" width="25.8" height="25.8"/>
			<polygon class="st0" points="292.8,162.7 292.8,188.5 292.8,214.3 267,214.3 267,188.5 241.2,188.5 241.2,162.7 267,162.7 
				292.8,162.7 292.8,136.9 267,136.9 241.2,136.9 241.2,111.1 241.2,85.2 215.4,85.2 215.4,59.4 189.6,59.4 163.8,59.4 163.8,33.6 
				163.8,7.8 138,7.8 138,33.6 112.2,33.6 112.2,59.4 138,59.4 138,85.2 163.8,85.2 189.6,85.2 189.6,111.1 215.4,111.1 
				215.4,136.9 215.4,162.7 189.6,162.7 189.6,136.9 163.8,136.9 163.8,111.1 138,111.1 138,85.2 112.2,85.2 86.4,85.2 86.4,111.1 
				86.4,136.9 112.2,136.9 138,136.9 138,162.7 163.8,162.7 163.8,188.5 138,188.5 112.2,188.5 86.4,188.5 86.4,162.7 60.6,162.7 
				34.8,162.7 34.8,188.5 60.6,188.5 60.6,214.3 86.4,214.3 112.2,214.3 138,214.3 138,240.1 163.8,240.1 189.6,240.1 215.4,240.1 
				241.2,240.1 267,240.1 267,265.9 292.8,265.9 292.8,240.1 318.6,240.1 318.6,214.3 318.6,188.5 318.6,162.7 			"/>
			<polygon class="st3" points="267,188.5 267,214.3 292.8,214.3 292.8,188.5 292.8,162.7 267,162.7 			"/>
			<polygon class="st4" points="241.2,240.1 215.4,240.1 189.6,240.1 163.8,240.1 163.8,265.9 189.6,265.9 215.4,265.9 241.2,265.9 
				267,265.9 267,240.1 			"/>
			<polygon class="st3" points="189.6,162.7 215.4,162.7 215.4,136.9 215.4,111.1 189.6,111.1 189.6,136.9 			"/>
			<polygon class="st5" points="138,240.1 112.2,240.1 86.4,240.1 60.6,240.1 60.6,265.9 86.4,265.9 112.2,265.9 138,265.9 
				163.8,265.9 163.8,240.1 			"/>
			<polygon class="st4" points="163.8,111.1 189.6,111.1 189.6,85.2 163.8,85.2 138,85.2 138,111.1 			"/>
			<rect x="112.2" y="59.4" class="st4" width="25.8" height="25.8"/>
			<rect x="86.4" y="162.7" class="st5" width="25.8" height="25.8"/>
			<polygon class="st4" points="112.2,162.7 112.2,188.5 138,188.5 163.8,188.5 163.8,162.7 138,162.7 138,136.9 112.2,136.9 
				86.4,136.9 86.4,111.1 60.6,111.1 60.6,136.9 60.6,162.7 86.4,162.7 			"/>
			<polygon class="st4" points="86.4,240.1 112.2,240.1 138,240.1 138,214.3 112.2,214.3 86.4,214.3 60.6,214.3 60.6,240.1 			"/>
			<rect x="34.8" y="240.1" class="st4" width="25.8" height="25.8"/>
			<rect x="34.8" y="214.3" class="st5" width="25.8" height="25.8"/>
			<rect x="34.8" y="188.5" class="st4" width="25.8" height="25.8"/>
			<rect x="9" y="214.3" class="st4" width="25.8" height="25.8"/>
			<rect x="9" y="188.5" class="st0" width="25.8" height="25.8"/>
		</g>
	</g>
</g>
</svg>
