<?xml version="1.0" encoding="utf-8"?>
<svg version="1.1" id="Layer_1" xmlns="http://www.w3.org/2000/svg" xmlns:xlink="http://www.w3.org/1999/xlink" x="0px" y="0px"
	 viewBox="0 0 3690.3 464.5" style="enable-background:new 0 0 3690.3 464.5;" xml:space="preserve">
<style type="text/css">
	.st0{fill:#FFFFFF;}
	.st1{fill:#7B7A82;}
	.st2{fill:#EDEDED;}
	.st3{fill:#E6F2FC;}
	.st4{fill:#CDDCF0;}
	.st5{fill:#DA2C15;}
	.st6{fill:#E84135;}
	.st7{fill:#214999;}
	.st8{fill:#ABC3DF;}
	.st9{fill:#CCDDEF;}
	.st10{fill:#96ABCA;}
	.st11{fill:#DDDDDD;}
	.st12{fill:#CFCECE;}
</style>
<g>
	<rect x="61.4" y="64.5" class="st0" width="3603.1" height="374.2"/>
	<polygon class="st1" points="645.2,258.1 645.2,283.9 671,283.9 671,258.1 671,232.3 645.2,232.3 	"/>
	<polygon class="st1" points="567.7,103.2 567.7,129 567.7,154.8 567.7,180.6 567.7,206.5 567.7,232.3 567.7,258.1 567.7,283.9 
		567.7,309.7 567.7,335.5 567.7,361.3 567.7,387.1 567.7,412.9 567.7,438.7 567.7,464.5 593.5,464.5 593.5,438.7 593.5,412.9 
		593.5,387.1 593.5,361.3 593.5,335.5 593.5,309.7 593.5,283.9 593.5,258.1 593.5,232.3 593.5,206.5 593.5,180.6 593.5,154.8 
		593.5,129 593.5,103.2 593.5,77.4 567.7,77.4 	"/>
	<polygon class="st1" points="412.9,258.1 412.9,283.9 438.7,283.9 438.7,258.1 438.7,232.3 412.9,232.3 	"/>
	<polygon class="st1" points="180.7,335.5 180.7,361.3 206.5,361.3 232.3,361.3 232.3,335.5 206.5,335.5 	"/>
	<polygon class="st1" points="180.7,283.9 180.7,258.1 180.7,232.3 154.8,232.3 129,232.3 129,258.1 154.8,258.1 154.8,283.9 	"/>
	<polygon class="st1" points="25.8,412.9 25.8,438.7 51.6,438.7 51.6,412.9 51.6,387.1 25.8,387.1 	"/>
	<polygon class="st1" points="25.8,335.5 25.8,309.7 0,309.7 0,335.5 0,361.3 25.8,361.3 	"/>
	<rect y="77.4" class="st1" width="25.8" height="25.8"/>
	<polygon class="st1" points="1471,232.3 1471,258.1 1471,283.9 1496.8,283.9 1496.8,258.1 1496.8,232.3 	"/>
	<polygon class="st1" points="1264.5,232.3 1264.5,258.1 1290.3,258.1 1290.3,283.9 1316.1,283.9 1316.1,258.1 1316.1,232.3 
		1290.3,232.3 	"/>
	<polygon class="st1" points="1109.7,258.1 1109.7,283.9 1135.5,283.9 1135.5,258.1 1135.5,232.3 1109.7,232.3 	"/>
	<polygon class="st1" points="1006.5,335.5 1006.5,361.3 1032.3,361.3 1058.1,361.3 1058.1,335.5 1032.3,335.5 	"/>
	<polygon class="st1" points="877.4,232.3 877.4,258.1 903.2,258.1 903.2,283.9 929,283.9 929,258.1 929,232.3 903.2,232.3 	"/>
	<polygon class="st2" points="3664.5,110.3 3664.5,143.1 3664.5,175.9 3664.5,208.8 3664.5,241.6 3664.5,274.5 3664.5,307.3 
		3664.5,340.2 3664.5,373 3664.5,405.9 3664.5,438.7 3690.3,438.7 3690.3,405.9 3690.3,373 3690.3,340.2 3690.3,307.3 3690.3,274.5 
		3690.3,241.6 3690.3,208.8 3690.3,175.9 3690.3,143.1 3690.3,110.3 3690.3,77.4 3664.5,77.4 	"/>
	<g id="XMLID_1_">
		<g>
			<polygon class="st3" points="696.8,103.2 671,103.2 671,129 696.8,129 722.6,129 722.6,103.2 			"/>
			<polygon class="st3" points="438.7,103.2 438.7,129 464.5,129 490.3,129 490.3,103.2 464.5,103.2 			"/>
		</g>
		<rect x="0" y="283.9" class="st4" width="25.8" height="25.8"/>
		<rect x="0" y="258.1" class="st4" width="25.8" height="25.8"/>
		<rect x="0" y="232.3" class="st4" width="25.8" height="25.8"/>
		<rect x="0" y="206.5" class="st4" width="25.8" height="25.8"/>
		<rect x="0" y="180.6" class="st4" width="25.8" height="25.8"/>
		<rect x="0" y="154.8" class="st4" width="25.8" height="25.8"/>
		<rect x="0" y="129" class="st4" width="25.8" height="25.8"/>
		<rect x="0" y="103.2" class="st4" width="25.8" height="25.8"/>
	</g>
	<g id="XMLID_2_">
		<g>
			<polygon class="st5" points="516.1,154.8 516.1,180.6 516.1,206.5 516.1,232.3 516.1,258.1 516.1,283.9 490.3,283.9 490.3,309.7 
				464.5,309.7 438.7,309.7 438.7,283.9 412.9,283.9 412.9,258.1 412.9,232.3 412.9,206.5 412.9,180.6 412.9,154.8 387.1,154.8 
				361.3,154.8 361.3,180.6 361.3,206.5 361.3,232.3 361.3,258.1 361.3,283.9 361.3,309.7 361.3,335.5 361.3,361.3 361.3,387.1 
				361.3,412.9 361.3,438.7 361.3,464.5 387.1,464.5 412.9,464.5 438.7,464.5 464.5,464.5 490.3,464.5 516.1,464.5 541.9,464.5 
				567.7,464.5 567.7,438.7 567.7,412.9 567.7,387.1 567.7,361.3 567.7,335.5 567.7,309.7 567.7,283.9 567.7,258.1 567.7,232.3 
				567.7,206.5 567.7,180.6 567.7,154.8 541.9,154.8 			"/>
			<path class="st5" d="M51.6,51.6H25.8V25.8H0v25.8v25.8h25.8v25.8V129v25.8v25.8v25.8v25.8v25.8v25.8v25.8v25.8v25.8H0v25.8v25.8
				v25.8v25.8h25.8h25.8h25.8v-25.8v-25.8v-25.8v-25.8v-25.8v-25.8v-25.8v-25.8v-25.8v-25.8v-25.8v-25.8V129v-25.8V77.4H51.6V51.6z
				 M51.6,412.9v25.8H25.8v-25.8v-25.8h25.8V412.9z"/>
			<polygon class="st5" points="774.2,154.8 748.4,154.8 748.4,180.6 748.4,206.5 748.4,232.3 748.4,258.1 748.4,283.9 722.6,283.9 
				722.6,309.7 696.8,309.7 671,309.7 671,283.9 645.2,283.9 645.2,258.1 645.2,232.3 645.2,206.5 645.2,180.6 645.2,154.8 
				619.4,154.8 593.5,154.8 593.5,180.6 593.5,206.5 593.5,232.3 593.5,258.1 593.5,283.9 593.5,309.7 593.5,335.5 593.5,361.3 
				593.5,387.1 593.5,412.9 593.5,438.7 593.5,464.5 619.4,464.5 645.2,464.5 671,464.5 696.8,464.5 722.6,464.5 748.4,464.5 
				774.2,464.5 800,464.5 800,438.7 800,412.9 800,387.1 800,361.3 800,335.5 800,309.7 800,283.9 800,258.1 800,232.3 800,206.5 
				800,180.6 800,154.8 			"/>
		</g>
		<g>
			<polygon class="st6" points="516.1,77.4 490.3,77.4 464.5,77.4 438.7,77.4 412.9,77.4 387.1,77.4 361.3,77.4 361.3,103.2 
				361.3,129 361.3,154.8 387.1,154.8 412.9,154.8 412.9,129 438.7,129 438.7,103.2 464.5,103.2 490.3,103.2 490.3,129 516.1,129 
				516.1,154.8 541.9,154.8 567.7,154.8 567.7,129 567.7,103.2 567.7,77.4 541.9,77.4 			"/>
			<polygon class="st6" points="774.2,77.4 748.4,77.4 722.6,77.4 696.8,77.4 671,77.4 645.2,77.4 619.4,77.4 593.5,77.4 
				593.5,103.2 593.5,129 593.5,154.8 619.4,154.8 645.2,154.8 645.2,129 671,129 671,103.2 696.8,103.2 722.6,103.2 722.6,129 
				748.4,129 748.4,154.8 774.2,154.8 800,154.8 800,129 800,103.2 800,77.4 			"/>
		</g>
	</g>
	<g>
		<polygon class="st7" points="283.9,387.1 258.1,387.1 232.3,387.1 206.5,387.1 180.7,387.1 154.8,387.1 129,387.1 103.2,387.1 
			77.4,387.1 77.4,412.9 77.4,438.7 77.4,464.5 103.2,464.5 129,464.5 154.8,464.5 180.7,464.5 206.5,464.5 232.3,464.5 
			258.1,464.5 283.9,464.5 309.7,464.5 335.5,464.5 335.5,438.7 335.5,412.9 335.5,387.1 309.7,387.1 		"/>
		<polygon class="st7" points="1883.9,361.3 1858.1,361.3 1832.3,361.3 1806.5,361.3 1806.5,387.1 1780.7,387.1 1754.8,387.1 
			1729,387.1 1703.2,387.1 1677.4,387.1 1651.6,387.1 1625.8,387.1 1600,387.1 1574.2,387.1 1548.4,387.1 1522.6,387.1 
			1496.8,387.1 1471,387.1 1445.2,387.1 1419.4,387.1 1393.6,387.1 1367.7,387.1 1341.9,387.1 1316.1,387.1 1290.3,387.1 
			1264.5,387.1 1238.7,387.1 1212.9,387.1 1187.1,387.1 1161.3,387.1 1135.5,387.1 1109.7,387.1 1083.9,387.1 1058.1,387.1 
			1032.3,387.1 1006.5,387.1 980.7,387.1 954.8,387.1 929,387.1 903.2,387.1 877.4,387.1 851.6,387.1 825.8,387.1 825.8,412.9 
			825.8,438.7 825.8,464.5 851.6,464.5 877.4,464.5 903.2,464.5 929,464.5 954.8,464.5 980.7,464.5 1006.5,464.5 1032.3,464.5 
			1058.1,464.5 1083.9,464.5 1109.7,464.5 1135.5,464.5 1161.3,464.5 1187.1,464.5 1212.9,464.5 1238.7,464.5 1264.5,464.5 
			1290.3,464.5 1316.1,464.5 1341.9,464.5 1367.7,464.5 1393.6,464.5 1419.4,464.5 1445.2,464.5 1471,464.5 1496.8,464.5 
			1522.6,464.5 1548.4,464.5 1574.2,464.5 1600,464.5 1625.8,464.5 1651.6,464.5 1677.4,464.5 1703.2,464.5 1729,464.5 
			1754.8,464.5 1780.7,464.5 1806.5,464.5 1832.3,464.5 1858.1,464.5 1883.9,464.5 1909.7,464.5 1909.7,438.7 1909.7,412.9 
			1909.7,387.1 1909.7,361.3 		"/>
	</g>
	<g>
		<polygon class="st8" points="696.8,232.3 671,232.3 671,258.1 671,283.9 671,309.7 696.8,309.7 722.6,309.7 722.6,283.9 
			748.4,283.9 748.4,258.1 748.4,232.3 722.6,232.3 		"/>
		<polygon class="st8" points="464.5,232.3 438.7,232.3 438.7,258.1 438.7,283.9 438.7,309.7 464.5,309.7 490.3,309.7 490.3,283.9 
			516.1,283.9 516.1,258.1 516.1,232.3 490.3,232.3 		"/>
		<polygon class="st8" points="232.3,232.3 206.5,232.3 180.7,232.3 180.7,258.1 180.7,283.9 206.5,283.9 232.3,283.9 258.1,283.9 
			258.1,258.1 283.9,258.1 283.9,232.3 258.1,232.3 		"/>
		<polygon class="st8" points="1419.4,232.3 1393.6,232.3 1367.7,232.3 1341.9,232.3 1316.1,232.3 1316.1,258.1 1316.1,283.9 
			1341.9,283.9 1367.7,283.9 1393.6,283.9 1419.4,283.9 1445.2,283.9 1471,283.9 1471,258.1 1471,232.3 1445.2,232.3 		"/>
		<polygon class="st8" points="1135.5,232.3 1135.5,258.1 1135.5,283.9 1161.3,283.9 1161.3,258.1 1187.1,258.1 1187.1,232.3 
			1161.3,232.3 		"/>
		<polygon class="st8" points="1058.1,232.3 1032.3,232.3 1006.5,232.3 980.7,232.3 954.8,232.3 929,232.3 929,258.1 929,283.9 
			954.8,283.9 980.7,283.9 1006.5,283.9 1032.3,283.9 1058.1,283.9 1083.9,283.9 1109.7,283.9 1109.7,258.1 1109.7,232.3 
			1083.9,232.3 		"/>
		<polygon class="st8" points="1548.4,232.3 1522.6,232.3 1496.8,232.3 1496.8,258.1 1496.8,283.9 1522.6,283.9 1548.4,283.9 
			1548.4,258.1 1574.2,258.1 1574.2,232.3 		"/>
	</g>
	<g>
		<polygon class="st9" points="696.8,129 671,129 671,154.8 671,180.6 671,206.5 671,232.3 696.8,232.3 722.6,232.3 748.4,232.3 
			748.4,206.5 748.4,180.6 748.4,154.8 748.4,129 722.6,129 		"/>
		<polygon class="st9" points="464.5,129 438.7,129 438.7,154.8 438.7,180.6 438.7,206.5 438.7,232.3 464.5,232.3 490.3,232.3 
			516.1,232.3 516.1,206.5 516.1,180.6 516.1,154.8 516.1,129 490.3,129 		"/>
		<polygon class="st9" points="232.3,180.6 206.5,180.6 180.7,180.6 180.7,206.5 180.7,232.3 206.5,232.3 232.3,232.3 258.1,232.3 
			283.9,232.3 283.9,206.5 283.9,180.6 258.1,180.6 		"/>
		<polygon class="st9" points="1419.4,180.6 1393.6,180.6 1367.7,180.6 1341.9,180.6 1316.1,180.6 1316.1,206.5 1316.1,232.3 
			1341.9,232.3 1367.7,232.3 1393.6,232.3 1419.4,232.3 1445.2,232.3 1471,232.3 1471,206.5 1471,180.6 1445.2,180.6 		"/>
		<polygon class="st9" points="1135.5,180.6 1135.5,206.5 1135.5,232.3 1161.3,232.3 1187.1,232.3 1187.1,206.5 1187.1,180.6 
			1161.3,180.6 		"/>
		<polygon class="st9" points="1058.1,180.6 1032.3,180.6 1006.5,180.6 980.7,180.6 954.8,180.6 929,180.6 929,206.5 929,232.3 
			954.8,232.3 980.7,232.3 1006.5,232.3 1032.3,232.3 1058.1,232.3 1083.9,232.3 1109.7,232.3 1109.7,206.5 1109.7,180.6 
			1083.9,180.6 		"/>
		<polygon class="st9" points="1548.4,180.6 1522.6,180.6 1496.8,180.6 1496.8,206.5 1496.8,232.3 1522.6,232.3 1548.4,232.3 
			1574.2,232.3 1574.2,206.5 1574.2,180.6 		"/>
	</g>
	<g>
		<polygon class="st10" points="645.2,154.8 645.2,180.6 645.2,206.5 645.2,232.3 671,232.3 671,206.5 671,180.6 671,154.8 671,129 
			645.2,129 		"/>
		<polygon class="st10" points="412.9,154.8 412.9,180.6 412.9,206.5 412.9,232.3 438.7,232.3 438.7,206.5 438.7,180.6 438.7,154.8 
			438.7,129 412.9,129 		"/>
		<polygon class="st10" points="258.1,129 232.3,129 206.5,129 180.7,129 154.8,129 154.8,154.8 129,154.8 129,180.6 129,206.5 
			129,232.3 154.8,232.3 180.7,232.3 180.7,206.5 180.7,180.6 206.5,180.6 232.3,180.6 258.1,180.6 283.9,180.6 283.9,154.8 
			258.1,154.8 		"/>
		<polygon class="st10" points="1161.3,129 1135.5,129 1109.7,129 1083.9,129 1058.1,129 1032.3,129 1006.5,129 980.7,129 
			954.8,129 929,129 903.2,129 903.2,154.8 877.4,154.8 877.4,180.6 877.4,206.5 877.4,232.3 903.2,232.3 929,232.3 929,206.5 
			929,180.6 954.8,180.6 980.7,180.6 1006.5,180.6 1032.3,180.6 1058.1,180.6 1083.9,180.6 1109.7,180.6 1109.7,206.5 1109.7,232.3 
			1135.5,232.3 1135.5,206.5 1135.5,180.6 1161.3,180.6 1187.1,180.6 1187.1,154.8 1161.3,154.8 		"/>
		<polygon class="st10" points="1548.4,154.8 1548.4,129 1522.6,129 1496.8,129 1471,129 1445.2,129 1419.4,129 1393.6,129 
			1367.7,129 1341.9,129 1316.1,129 1290.3,129 1290.3,154.8 1264.5,154.8 1264.5,180.6 1264.5,206.5 1264.5,232.3 1290.3,232.3 
			1316.1,232.3 1316.1,206.5 1316.1,180.6 1341.9,180.6 1367.7,180.6 1393.6,180.6 1419.4,180.6 1445.2,180.6 1471,180.6 
			1471,206.5 1471,232.3 1496.8,232.3 1496.8,206.5 1496.8,180.6 1522.6,180.6 1548.4,180.6 1574.2,180.6 1574.2,154.8 		"/>
	</g>
	<g>
		<polygon class="st2" points="335.5,136.1 335.5,168.9 335.5,201.8 335.5,234.6 335.5,267.4 335.5,300.3 335.5,333.1 335.5,366 
			335.5,398.8 335.5,431.7 335.5,464.5 361.3,464.5 361.3,431.7 361.3,398.8 361.3,366 361.3,333.1 361.3,300.3 361.3,267.4 
			361.3,234.6 361.3,201.8 361.3,168.9 361.3,136.1 361.3,103.2 335.5,103.2 		"/>
		<polygon class="st2" points="800,136.1 800,168.9 800,201.8 800,234.6 800,267.4 800,300.3 800,333.1 800,366 800,398.8 
			800,431.7 800,464.5 825.8,464.5 825.8,431.7 825.8,398.8 825.8,366 825.8,333.1 825.8,300.3 825.8,267.4 825.8,234.6 
			825.8,201.8 825.8,168.9 825.8,136.1 825.8,103.2 800,103.2 		"/>
		<polygon class="st2" points="3463.7,51.6 3413.5,51.6 3363.3,51.6 3313.1,51.6 3262.9,51.6 3212.7,51.6 3162.6,51.6 3112.3,51.6 
			3062.1,51.6 3012,51.6 2961.8,51.6 2911.5,51.6 2861.4,51.6 2811.2,51.6 2761,51.6 2710.8,51.6 2660.6,51.6 2610.4,51.6 
			2560.2,51.6 2510,51.6 2459.8,51.6 2409.6,51.6 2359.4,51.6 2309.2,51.6 2259,51.6 2208.8,51.6 2158.6,51.6 2108.4,51.6 
			2058.2,51.6 2008,51.6 1957.8,51.6 1907.6,51.6 1857.4,51.6 1807.2,51.6 1757,51.6 1706.8,51.6 1656.6,51.6 1606.4,51.6 
			1556.2,51.6 1506,51.6 1455.8,51.6 1405.6,51.6 1355.4,51.6 1305.2,51.6 1255,51.6 1204.8,51.6 1154.6,51.6 1104.4,51.6 
			1054.2,51.6 1004,51.6 953.8,51.6 903.7,51.6 853.5,51.6 803.2,51.6 753.1,51.6 702.9,51.6 652.7,51.6 602.5,51.6 552.3,51.6 
			502.1,51.6 451.9,51.6 401.7,51.6 351.5,51.6 301.3,51.6 251.1,51.6 200.9,51.6 150.7,51.6 100.5,51.6 50.3,51.6 50.3,77.4 
			100.5,77.4 150.7,77.4 200.9,77.4 251.1,77.4 301.3,77.4 351.5,77.4 401.7,77.4 451.9,77.4 502.1,77.4 552.3,77.4 602.5,77.4 
			652.7,77.4 702.9,77.4 753.1,77.4 803.2,77.4 853.5,77.4 903.7,77.4 953.8,77.4 1004,77.4 1054.2,77.4 1104.4,77.4 1154.6,77.4 
			1204.8,77.4 1255,77.4 1305.2,77.4 1355.4,77.4 1405.6,77.4 1455.8,77.4 1506,77.4 1556.2,77.4 1606.4,77.4 1656.6,77.4 
			1706.8,77.4 1757,77.4 1807.2,77.4 1857.4,77.4 1907.6,77.4 1957.8,77.4 2008,77.4 2058.2,77.4 2108.4,77.4 2158.6,77.4 
			2208.8,77.4 2259,77.4 2309.2,77.4 2359.4,77.4 2409.6,77.4 2459.8,77.4 2510,77.4 2560.2,77.4 2610.4,77.4 2660.6,77.4 
			2710.8,77.4 2761,77.4 2811.2,77.4 2861.4,77.4 2911.5,77.4 2961.8,77.4 3012,77.4 3062.1,77.4 3112.3,77.4 3162.6,77.4 
			3212.7,77.4 3262.9,77.4 3313.1,77.4 3363.3,77.4 3413.5,77.4 3463.7,77.4 3664.5,77.4 3664.5,51.6 		"/>
	</g>
	<polygon class="st11" points="3465.1,25.8 3415.3,25.8 3365.4,25.8 3315.6,25.8 3265.8,25.8 3215.9,25.8 3166.1,25.8 3116.2,25.8 
		3066.4,25.8 3016.5,25.8 2966.7,25.8 2966.7,25.8 2966.7,25.8 2916.8,25.8 2867,25.8 2817.1,25.8 2767.3,25.8 2717.5,25.8 
		2667.6,25.8 2617.8,25.8 2567.9,25.8 2518.1,25.8 2468.2,25.8 2418.4,25.8 2368.5,25.8 2318.7,25.8 2268.8,25.8 2219,25.8 
		2169.2,25.8 2119.3,25.8 2069.5,25.8 2019.6,25.8 1969.8,25.8 1919.9,25.8 1870.1,25.8 1820.2,25.8 1770.4,25.8 1720.6,25.8 
		1670.7,25.8 1620.9,25.8 1571,25.8 1521.2,25.8 1471.3,25.8 1421.5,25.8 1371.6,25.8 1321.8,25.8 1271.9,25.8 1222.1,25.8 
		1172.3,25.8 1122.4,25.8 1072.6,25.8 1022.7,25.8 972.9,25.8 923,25.8 873.2,25.8 823.3,25.8 773.5,25.8 723.6,25.8 673.8,25.8 
		624,25.8 574.1,25.8 524.3,25.8 474.4,25.8 424.6,25.8 374.7,25.8 324.9,25.8 275,25.8 225.2,25.8 175.3,25.8 125.5,25.8 
		75.7,25.8 25.8,25.8 25.8,51.6 75.7,51.6 125.5,51.6 175.3,51.6 225.2,51.6 275,51.6 324.9,51.6 374.7,51.6 424.6,51.6 474.4,51.6 
		524.3,51.6 574.1,51.6 624,51.6 673.8,51.6 723.6,51.6 773.5,51.6 823.3,51.6 873.2,51.6 923,51.6 972.9,51.6 1022.7,51.6 
		1072.6,51.6 1122.4,51.6 1172.3,51.6 1222.1,51.6 1271.9,51.6 1321.8,51.6 1371.6,51.6 1421.5,51.6 1471.3,51.6 1521.2,51.6 
		1571,51.6 1620.9,51.6 1670.7,51.6 1720.6,51.6 1770.4,51.6 1820.2,51.6 1870.1,51.6 1919.9,51.6 1969.8,51.6 2019.6,51.6 
		2069.5,51.6 2119.3,51.6 2169.2,51.6 2219,51.6 2268.8,51.6 2318.7,51.6 2368.5,51.6 2418.4,51.6 2468.2,51.6 2518.1,51.6 
		2567.9,51.6 2617.8,51.6 2667.6,51.6 2717.5,51.6 2767.3,51.6 2817.1,51.6 2867,51.6 2916.8,51.6 2966.7,51.6 2966.7,51.6 
		2966.7,51.6 3016.5,51.6 3066.4,51.6 3116.2,51.6 3166.1,51.6 3215.9,51.6 3265.8,51.6 3315.6,51.6 3365.4,51.6 3415.3,51.6 
		3465.1,51.6 3664.5,51.6 3664.5,25.8 	"/>
	<g>
		<polygon class="st12" points="2090.3,103.2 2090.3,77.4 2064.5,77.4 2038.7,77.4 2012.9,77.4 1987.1,77.4 1961.3,77.4 
			1935.5,77.4 1909.7,77.4 1909.7,103.2 1909.7,129 1883.9,129 1858.1,129 1832.3,129 1806.5,129 1780.7,129 1754.8,129 1729,129 
			1703.2,129 1677.4,129 1651.6,129 1651.6,154.8 1651.6,180.6 1651.6,206.5 1651.6,232.3 1651.6,258.1 1651.6,283.9 1677.4,283.9 
			1703.2,283.9 1729,283.9 1754.8,283.9 1780.7,283.9 1806.5,283.9 1832.3,283.9 1858.1,283.9 1883.9,283.9 1909.7,283.9 
			1909.7,309.7 1909.7,335.5 1909.7,361.3 1909.7,387.1 1909.7,412.9 1909.7,438.7 1909.7,464.5 1935.5,464.5 1961.3,464.5 
			1987.1,464.5 2012.9,464.5 2038.7,464.5 2064.5,464.5 2090.3,464.5 2116.1,464.5 2116.1,438.7 2116.1,412.9 2116.1,387.1 
			2116.1,361.3 2116.1,335.5 2116.1,309.7 2116.1,283.9 2116.1,258.1 2116.1,232.3 2116.1,206.5 2116.1,180.6 2116.1,154.8 
			2116.1,129 2116.1,103.2 		"/>
		<polygon class="st12" points="3465.1,0 3415.3,0 3365.4,0 3315.6,0 3265.8,0 3215.9,0 3166.1,0 3116.2,0 3066.4,0 3016.5,0 
			2966.7,0 2966.7,0 2966.7,0 2916.8,0 2867,0 2817.1,0 2767.3,0 2717.5,0 2667.6,0 2617.8,0 2567.9,0 2518.1,0 2468.2,0 2418.4,0 
			2368.5,0 2318.7,0 2268.8,0 2219,0 2169.2,0 2119.3,0 2069.5,0 2019.6,0 1969.8,0 1919.9,0 1870.1,0 1820.2,0 1770.4,0 1720.6,0 
			1670.7,0 1620.9,0 1571,0 1521.2,0 1471.3,0 1421.5,0 1371.6,0 1321.8,0 1271.9,0 1222.1,0 1172.3,0 1122.4,0 1072.6,0 1022.7,0 
			972.9,0 923,0 873.2,0 823.3,0 773.5,0 723.6,0 673.8,0 624,0 574.1,0 524.3,0 474.4,0 424.6,0 374.7,0 324.9,0 275,0 225.2,0 
			175.3,0 125.5,0 75.7,0 25.8,0 25.8,25.8 75.7,25.8 125.5,25.8 175.3,25.8 225.2,25.8 275,25.8 324.9,25.8 374.7,25.8 424.6,25.8 
			474.4,25.8 524.3,25.8 574.1,25.8 624,25.8 673.8,25.8 723.6,25.8 773.5,25.8 823.3,25.8 873.2,25.8 923,25.8 972.9,25.8 
			1022.7,25.8 1072.6,25.8 1122.4,25.8 1172.3,25.8 1222.1,25.8 1271.9,25.8 1321.8,25.8 1371.6,25.8 1421.5,25.8 1471.3,25.8 
			1521.2,25.8 1571,25.8 1620.9,25.8 1670.7,25.8 1720.6,25.8 1770.4,25.8 1820.2,25.8 1870.1,25.8 1919.9,25.8 1969.8,25.8 
			2019.6,25.8 2069.5,25.8 2119.3,25.8 2169.2,25.8 2219,25.8 2268.8,25.8 2318.7,25.8 2368.5,25.8 2418.4,25.8 2468.2,25.8 
			2518.1,25.8 2567.9,25.8 2617.8,25.8 2667.6,25.8 2717.5,25.8 2767.3,25.8 2817.1,25.8 2867,25.8 2916.8,25.8 2966.7,25.8 
			2966.7,25.8 2966.7,25.8 3016.5,25.8 3066.4,25.8 3116.2,25.8 3166.1,25.8 3215.9,25.8 3265.8,25.8 3315.6,25.8 3365.4,25.8 
			3415.3,25.8 3465.1,25.8 3638.5,25.8 3638.5,0 		"/>
	</g>
	<polygon class="st3" points="1987.1,103.2 1961.3,103.2 1961.3,129 1987.1,129 2012.9,129 2012.9,103.2 	"/>
	<polygon class="st5" points="1806.5,154.8 1806.5,180.6 1806.5,206.5 1806.5,232.3 1806.5,258.1 1806.5,283.9 1780.7,283.9 
		1780.7,309.7 1754.8,309.7 1729,309.7 1729,283.9 1703.2,283.9 1703.2,258.1 1703.2,232.3 1703.2,206.5 1703.2,180.6 1703.2,154.8 
		1677.4,154.8 1651.6,154.8 1651.6,180.6 1651.6,206.5 1651.6,232.3 1651.6,258.1 1651.6,283.9 1651.6,309.7 1651.6,335.5 
		1651.6,361.3 1651.6,387.1 1651.6,412.9 1651.6,438.7 1651.6,464.5 1677.4,464.5 1703.2,464.5 1729,464.5 1754.8,464.5 
		1780.7,464.5 1806.5,464.5 1832.3,464.5 1858.1,464.5 1858.1,438.7 1858.1,412.9 1858.1,387.1 1858.1,361.3 1858.1,335.5 
		1858.1,309.7 1858.1,283.9 1858.1,258.1 1858.1,232.3 1858.1,206.5 1858.1,180.6 1858.1,154.8 1832.3,154.8 	"/>
	<polygon class="st5" points="2064.5,154.8 2038.7,154.8 2038.7,180.6 2038.7,206.5 2038.7,232.3 2038.7,258.1 2038.7,283.9 
		2012.9,283.9 2012.9,309.7 1987.1,309.7 1961.3,309.7 1961.3,283.9 1935.5,283.9 1935.5,258.1 1935.5,232.3 1935.5,206.5 
		1935.5,180.6 1935.5,154.8 1909.7,154.8 1883.9,154.8 1883.9,180.6 1883.9,206.5 1883.9,232.3 1883.9,258.1 1883.9,283.9 
		1883.9,309.7 1883.9,335.5 1883.9,361.3 1883.9,387.1 1883.9,412.9 1883.9,438.7 1883.9,464.5 1909.7,464.5 1935.5,464.5 
		1961.3,464.5 1987.1,464.5 2012.9,464.5 2038.7,464.5 2064.5,464.5 2090.3,464.5 2090.3,438.7 2090.3,412.9 2090.3,387.1 
		2090.3,361.3 2090.3,335.5 2090.3,309.7 2090.3,283.9 2090.3,258.1 2090.3,232.3 2090.3,206.5 2090.3,180.6 2090.3,154.8 	"/>
	<g>
		<polygon class="st6" points="1806.5,77.4 1780.7,77.4 1754.8,77.4 1729,77.4 1703.2,77.4 1677.4,77.4 1651.6,77.4 1651.6,103.2 
			1651.6,129 1651.6,154.8 1677.4,154.8 1703.2,154.8 1703.2,129 1729,129 1729,103.2 1754.8,103.2 1780.7,103.2 1780.7,129 
			1806.5,129 1806.5,154.8 1832.3,154.8 1858.1,154.8 1858.1,129 1858.1,103.2 1858.1,77.4 1832.3,77.4 		"/>
		<polygon class="st6" points="2064.5,77.4 2038.7,77.4 2012.9,77.4 1987.1,77.4 1961.3,77.4 1935.5,77.4 1909.7,77.4 1883.9,77.4 
			1883.9,103.2 1883.9,129 1883.9,154.8 1909.7,154.8 1935.5,154.8 1935.5,129 1961.3,129 1961.3,103.2 1987.1,103.2 2012.9,103.2 
			2012.9,129 2038.7,129 2038.7,154.8 2064.5,154.8 2090.3,154.8 2090.3,129 2090.3,103.2 2090.3,77.4 		"/>
	</g>
	<polygon class="st1" points="1935.5,258.1 1935.5,283.9 1961.3,283.9 1961.3,258.1 1961.3,232.3 1935.5,232.3 	"/>
	<polygon class="st1" points="1858.1,103.2 1858.1,129 1858.1,154.8 1858.1,180.6 1858.1,206.5 1858.1,232.3 1858.1,258.1 
		1858.1,283.9 1858.1,309.7 1858.1,335.5 1858.1,361.3 1858.1,387.1 1858.1,412.9 1858.1,438.7 1858.1,464.5 1883.9,464.5 
		1883.9,438.7 1883.9,412.9 1883.9,387.1 1883.9,361.3 1883.9,335.5 1883.9,309.7 1883.9,283.9 1883.9,258.1 1883.9,232.3 
		1883.9,206.5 1883.9,180.6 1883.9,154.8 1883.9,129 1883.9,103.2 1883.9,77.4 1858.1,77.4 	"/>
	<polygon class="st1" points="1703.2,258.1 1703.2,283.9 1729,283.9 1729,258.1 1729,232.3 1703.2,232.3 	"/>
	<polygon class="st8" points="1987.1,232.3 1961.3,232.3 1961.3,258.1 1961.3,283.9 1961.3,309.7 1987.1,309.7 2012.9,309.7 
		2012.9,283.9 2038.7,283.9 2038.7,258.1 2038.7,232.3 2012.9,232.3 	"/>
	<polygon class="st8" points="1754.8,232.3 1729,232.3 1729,258.1 1729,283.9 1729,309.7 1754.8,309.7 1780.7,309.7 1780.7,283.9 
		1806.5,283.9 1806.5,258.1 1806.5,232.3 1780.7,232.3 	"/>
	<polygon class="st9" points="1987.1,129 1961.3,129 1961.3,154.8 1961.3,180.6 1961.3,206.5 1961.3,232.3 1987.1,232.3 
		2012.9,232.3 2038.7,232.3 2038.7,206.5 2038.7,180.6 2038.7,154.8 2038.7,129 2012.9,129 	"/>
	<polygon class="st9" points="1754.8,129 1729,129 1729,154.8 1729,180.6 1729,206.5 1729,232.3 1754.8,232.3 1780.7,232.3 
		1806.5,232.3 1806.5,206.5 1806.5,180.6 1806.5,154.8 1806.5,129 1780.7,129 	"/>
	<polygon class="st10" points="1935.5,154.8 1935.5,180.6 1935.5,206.5 1935.5,232.3 1961.3,232.3 1961.3,206.5 1961.3,180.6 
		1961.3,154.8 1961.3,129 1935.5,129 	"/>
	<polygon class="st10" points="1703.2,154.8 1703.2,180.6 1703.2,206.5 1703.2,232.3 1729,232.3 1729,206.5 1729,180.6 1729,154.8 
		1729,129 1703.2,129 	"/>
	<polygon class="st2" points="1625.8,136.1 1625.8,168.9 1625.8,201.8 1625.8,234.6 1625.8,267.4 1625.8,300.3 1625.8,333.1 
		1625.8,366 1625.8,398.8 1625.8,431.7 1625.8,464.5 1651.6,464.5 1651.6,431.7 1651.6,398.8 1651.6,366 1651.6,333.1 1651.6,300.3 
		1651.6,267.4 1651.6,234.6 1651.6,201.8 1651.6,168.9 1651.6,136.1 1651.6,103.2 1625.8,103.2 	"/>
	<polygon class="st2" points="2090.3,136.1 2090.3,168.9 2090.3,201.8 2090.3,234.6 2090.3,267.4 2090.3,300.3 2090.3,333.1 
		2090.3,366 2090.3,398.8 2090.3,431.7 2090.3,464.5 2116.1,464.5 2116.1,431.7 2116.1,398.8 2116.1,366 2116.1,333.1 2116.1,300.3 
		2116.1,267.4 2116.1,234.6 2116.1,201.8 2116.1,168.9 2116.1,136.1 2116.1,103.2 2090.3,103.2 	"/>
	<polygon class="st3" points="1754.8,103.2 1729,103.2 1729,129 1754.8,129 1780.6,129 1780.6,103.2 	"/>
	<polyline class="st7" points="3664.5,387.1 3623.8,387.1 3583,387.1 3542.3,387.1 3501.5,387.1 3460.8,387.1 3420.1,387.1 
		3379.3,387.1 3338.5,387.1 3297.8,387.1 3257.1,387.1 3216.3,387.1 3175.6,387.1 3134.8,387.1 3094.1,387.1 3053.3,387.1 
		3012.6,387.1 2971.8,387.1 2931.1,387.1 2890.3,387.1 2849.6,387.1 2808.8,387.1 2768.1,387.1 2727.3,387.1 2686.6,387.1 
		2645.8,387.1 2605.1,387.1 2564.4,387.1 2523.6,387.1 2482.9,387.1 2442.1,387.1 2401.4,387.1 2360.6,387.1 2319.9,387.1 
		2279.1,387.1 2238.4,387.1 2197.6,387.1 2156.9,387.1 2116.1,387.1 2116.1,412.9 2116.1,438.7 2116.1,464.5 2156.9,464.5 
		2197.6,464.5 2238.4,464.5 2279.1,464.5 2319.9,464.5 2360.6,464.5 2401.4,464.5 2442.1,464.5 2482.9,464.5 2523.6,464.5 
		2564.4,464.5 2605.1,464.5 2645.8,464.5 2686.6,464.5 2727.3,464.5 2768.1,464.5 2808.8,464.5 2849.6,464.5 2890.3,464.5 
		2931.1,464.5 2971.8,464.5 3012.6,464.5 3053.3,464.5 3094.1,464.5 3134.8,464.5 3175.6,464.5 3216.3,464.5 3257.1,464.5 
		3297.8,464.5 3338.5,464.5 3379.3,464.5 3420.1,464.5 3460.8,464.5 3501.5,464.5 3542.3,464.5 3583,464.5 3623.8,464.5 
		3664.5,464.5 	"/>
	<polygon class="st1" points="2761.3,232.3 2761.3,258.1 2761.3,283.9 2787.1,283.9 2787.1,258.1 2787.1,232.3 	"/>
	<polygon class="st1" points="2554.8,232.3 2554.8,258.1 2580.6,258.1 2580.6,283.9 2606.4,283.9 2606.4,258.1 2606.4,232.3 
		2580.6,232.3 	"/>
	<polygon class="st1" points="2400,258.1 2400,283.9 2425.8,283.9 2425.8,258.1 2425.8,232.3 2400,232.3 	"/>
	<polygon class="st1" points="2296.8,335.5 2296.8,361.3 2322.6,361.3 2348.4,361.3 2348.4,335.5 2322.6,335.5 	"/>
	<polygon class="st1" points="2167.7,232.3 2167.7,258.1 2193.6,258.1 2193.6,283.9 2219.4,283.9 2219.4,258.1 2219.4,232.3 
		2193.6,232.3 	"/>
	<polygon class="st8" points="2709.7,232.3 2683.9,232.3 2658.1,232.3 2632.3,232.3 2606.5,232.3 2606.5,258.1 2606.5,283.9 
		2632.3,283.9 2658.1,283.9 2683.9,283.9 2709.7,283.9 2735.5,283.9 2761.3,283.9 2761.3,258.1 2761.3,232.3 2735.5,232.3 	"/>
	<polygon class="st8" points="2425.8,232.3 2425.8,258.1 2425.8,283.9 2451.6,283.9 2451.6,258.1 2477.4,258.1 2477.4,232.3 
		2451.6,232.3 	"/>
	<polygon class="st8" points="2348.4,232.3 2322.6,232.3 2296.8,232.3 2271,232.3 2245.2,232.3 2219.4,232.3 2219.4,258.1 
		2219.4,283.9 2245.2,283.9 2271,283.9 2296.8,283.9 2322.6,283.9 2348.4,283.9 2374.2,283.9 2400,283.9 2400,258.1 2400,232.3 
		2374.2,232.3 	"/>
	<polygon class="st8" points="2838.7,232.3 2812.9,232.3 2787.1,232.3 2787.1,258.1 2787.1,283.9 2812.9,283.9 2838.7,283.9 
		2838.7,258.1 2864.5,258.1 2864.5,232.3 	"/>
	<polygon class="st9" points="2709.7,180.6 2683.9,180.6 2658.1,180.6 2632.3,180.6 2606.5,180.6 2606.5,206.5 2606.5,232.3 
		2632.3,232.3 2658.1,232.3 2683.9,232.3 2709.7,232.3 2735.5,232.3 2761.3,232.3 2761.3,206.5 2761.3,180.6 2735.5,180.6 	"/>
	<polygon class="st9" points="2425.8,180.6 2425.8,206.5 2425.8,232.3 2451.6,232.3 2477.4,232.3 2477.4,206.5 2477.4,180.6 
		2451.6,180.6 	"/>
	<polygon class="st9" points="2348.4,180.6 2322.6,180.6 2296.8,180.6 2271,180.6 2245.2,180.6 2219.4,180.6 2219.4,206.5 
		2219.4,232.3 2245.2,232.3 2271,232.3 2296.8,232.3 2322.6,232.3 2348.4,232.3 2374.2,232.3 2400,232.3 2400,206.5 2400,180.6 
		2374.2,180.6 	"/>
	<polygon class="st9" points="2838.7,180.6 2812.9,180.6 2787.1,180.6 2787.1,206.5 2787.1,232.3 2812.9,232.3 2838.7,232.3 
		2864.5,232.3 2864.5,206.5 2864.5,180.6 	"/>
	<polygon class="st10" points="2451.6,129 2425.8,129 2400,129 2374.2,129 2348.4,129 2322.6,129 2296.8,129 2271,129 2245.2,129 
		2219.4,129 2193.6,129 2193.6,154.8 2167.7,154.8 2167.7,180.6 2167.7,206.5 2167.7,232.3 2193.6,232.3 2219.4,232.3 2219.4,206.5 
		2219.4,180.6 2245.2,180.6 2271,180.6 2296.8,180.6 2322.6,180.6 2348.4,180.6 2374.2,180.6 2400,180.6 2400,206.5 2400,232.3 
		2425.8,232.3 2425.8,206.5 2425.8,180.6 2451.6,180.6 2477.4,180.6 2477.4,154.8 2451.6,154.8 	"/>
	<polygon class="st10" points="2838.7,154.8 2838.7,129 2812.9,129 2787.1,129 2761.3,129 2735.5,129 2709.7,129 2683.9,129 
		2658.1,129 2632.3,129 2606.5,129 2580.7,129 2580.7,154.8 2554.8,154.8 2554.8,180.6 2554.8,206.5 2554.8,232.3 2580.7,232.3 
		2606.5,232.3 2606.5,206.5 2606.5,180.6 2632.3,180.6 2658.1,180.6 2683.9,180.6 2709.7,180.6 2735.5,180.6 2761.3,180.6 
		2761.3,206.5 2761.3,232.3 2787.1,232.3 2787.1,206.5 2787.1,180.6 2812.9,180.6 2838.7,180.6 2864.5,180.6 2864.5,154.8 	"/>
	<polygon class="st1" points="1393.6,335.5 1393.6,361.3 1419.4,361.3 1445.2,361.3 1445.2,335.5 1419.4,335.5 	"/>
	<polygon class="st1" points="2678.7,335.5 2678.7,361.3 2704.5,361.3 2730.3,361.3 2730.3,335.5 2704.5,335.5 	"/>
	<g>
		<polygon class="st3" points="3277.4,103.2 3251.6,103.2 3251.6,129 3277.4,129 3303.2,129 3303.2,103.2 		"/>
		<polygon class="st5" points="3096.8,154.8 3096.8,180.6 3096.8,206.4 3096.8,232.2 3096.8,258.1 3096.8,283.9 3071,283.9 
			3071,309.7 3045.2,309.7 3019.4,309.7 3019.4,283.9 2993.6,283.9 2993.6,258.1 2993.6,232.2 2993.6,206.4 2993.6,180.6 
			2993.6,154.8 2967.8,154.8 2941.9,154.8 2941.9,180.6 2941.9,206.4 2941.9,232.2 2941.9,258.1 2941.9,283.9 2941.9,309.7 
			2941.9,335.5 2941.9,361.3 2941.9,387.1 2941.9,412.9 2941.9,438.7 2941.9,464.5 2967.8,464.5 2993.6,464.5 3019.4,464.5 
			3045.2,464.5 3071,464.5 3096.8,464.5 3122.6,464.5 3148.4,464.5 3148.4,438.7 3148.4,412.9 3148.4,387.1 3148.4,361.3 
			3148.4,335.5 3148.4,309.7 3148.4,283.9 3148.4,258.1 3148.4,232.2 3148.4,206.4 3148.4,180.6 3148.4,154.8 3122.6,154.8 		"/>
		<polygon class="st5" points="3354.9,154.8 3329,154.8 3329,180.6 3329,206.4 3329,232.2 3329,258.1 3329,283.9 3303.2,283.9 
			3303.2,309.7 3277.4,309.7 3251.6,309.7 3251.6,283.9 3225.8,283.9 3225.8,258.1 3225.8,232.2 3225.8,206.4 3225.8,180.6 
			3225.8,154.8 3200,154.8 3174.2,154.8 3174.2,180.6 3174.2,206.4 3174.2,232.2 3174.2,258.1 3174.2,283.9 3174.2,309.7 
			3174.2,335.5 3174.2,361.3 3174.2,387.1 3174.2,412.9 3174.2,438.7 3174.2,464.5 3200,464.5 3225.8,464.5 3251.6,464.5 
			3277.4,464.5 3303.2,464.5 3329,464.5 3354.9,464.5 3380.6,464.5 3380.6,438.7 3380.6,412.9 3380.6,387.1 3380.6,361.3 
			3380.6,335.5 3380.6,309.7 3380.6,283.9 3380.6,258.1 3380.6,232.2 3380.6,206.4 3380.6,180.6 3380.6,154.8 		"/>
		<g>
			<polygon class="st6" points="3096.8,77.4 3071,77.4 3045.2,77.4 3019.4,77.4 2993.6,77.4 2967.8,77.4 2941.9,77.4 2941.9,103.2 
				2941.9,129 2941.9,154.8 2967.8,154.8 2993.6,154.8 2993.6,129 3019.4,129 3019.4,103.2 3045.2,103.2 3071,103.2 3071,129 
				3096.8,129 3096.8,154.8 3122.6,154.8 3148.4,154.8 3148.4,129 3148.4,103.2 3148.4,77.4 3122.6,77.4 			"/>
			<polygon class="st6" points="3354.9,77.4 3329,77.4 3303.2,77.4 3277.4,77.4 3251.6,77.4 3225.8,77.4 3200,77.4 3174.2,77.4 
				3174.2,103.2 3174.2,129 3174.2,154.8 3200,154.8 3225.8,154.8 3225.8,129 3251.6,129 3251.6,103.2 3277.4,103.2 3303.2,103.2 
				3303.2,129 3329,129 3329,154.8 3354.9,154.8 3380.6,154.8 3380.6,129 3380.6,103.2 3380.6,77.4 			"/>
		</g>
		<polygon class="st1" points="3225.8,258.1 3225.8,283.9 3251.6,283.9 3251.6,258.1 3251.6,232.2 3225.8,232.2 		"/>
		<polygon class="st1" points="3148.4,103.2 3148.4,129 3148.4,154.8 3148.4,180.6 3148.4,206.4 3148.4,232.2 3148.4,258.1 
			3148.4,283.9 3148.4,309.7 3148.4,335.5 3148.4,361.3 3148.4,387.1 3148.4,412.9 3148.4,438.7 3148.4,464.5 3174.2,464.5 
			3174.2,438.7 3174.2,412.9 3174.2,387.1 3174.2,361.3 3174.2,335.5 3174.2,309.7 3174.2,283.9 3174.2,258.1 3174.2,232.2 
			3174.2,206.4 3174.2,180.6 3174.2,154.8 3174.2,129 3174.2,103.2 3174.2,77.4 3148.4,77.4 		"/>
		<polygon class="st1" points="2993.6,258.1 2993.6,283.9 3019.4,283.9 3019.4,258.1 3019.4,232.2 2993.6,232.2 		"/>
		<polygon class="st8" points="3277.4,232.2 3251.6,232.2 3251.6,258.1 3251.6,283.9 3251.6,309.7 3277.4,309.7 3303.2,309.7 
			3303.2,283.9 3329,283.9 3329,258.1 3329,232.2 3303.2,232.2 		"/>
		<polygon class="st8" points="3045.2,232.2 3019.4,232.2 3019.4,258.1 3019.4,283.9 3019.4,309.7 3045.2,309.7 3071,309.7 
			3071,283.9 3096.8,283.9 3096.8,258.1 3096.8,232.2 3071,232.2 		"/>
		<polygon class="st9" points="3277.4,129 3251.6,129 3251.6,154.8 3251.6,180.6 3251.6,206.4 3251.6,232.2 3277.4,232.2 
			3303.2,232.2 3329,232.2 3329,206.4 3329,180.6 3329,154.8 3329,129 3303.2,129 		"/>
		<polygon class="st9" points="3045.2,129 3019.4,129 3019.4,154.8 3019.4,180.6 3019.4,206.4 3019.4,232.2 3045.2,232.2 
			3071,232.2 3096.8,232.2 3096.8,206.4 3096.8,180.6 3096.8,154.8 3096.8,129 3071,129 		"/>
		<polygon class="st10" points="3225.8,154.8 3225.8,180.6 3225.8,206.4 3225.8,232.2 3251.6,232.2 3251.6,206.4 3251.6,180.6 
			3251.6,154.8 3251.6,129 3225.8,129 		"/>
		<polygon class="st10" points="2993.6,154.8 2993.6,180.6 2993.6,206.4 2993.6,232.2 3019.4,232.2 3019.4,206.4 3019.4,180.6 
			3019.4,154.8 3019.4,129 2993.6,129 		"/>
		<polygon class="st2" points="2916.1,136.1 2916.1,168.9 2916.1,201.8 2916.1,234.6 2916.1,267.4 2916.1,300.3 2916.1,333.1 
			2916.1,366 2916.1,398.8 2916.1,431.7 2916.1,464.5 2941.9,464.5 2941.9,431.7 2941.9,398.8 2941.9,366 2941.9,333.1 
			2941.9,300.3 2941.9,267.4 2941.9,234.6 2941.9,201.8 2941.9,168.9 2941.9,136.1 2941.9,103.2 2916.1,103.2 		"/>
		<polygon class="st2" points="3380.7,136.1 3380.7,168.9 3380.7,201.8 3380.7,234.6 3380.7,267.4 3380.7,300.3 3380.7,333.1 
			3380.7,366 3380.7,398.8 3380.7,431.7 3380.7,464.5 3406.5,464.5 3406.5,431.7 3406.5,398.8 3406.5,366 3406.5,333.1 
			3406.5,300.3 3406.5,267.4 3406.5,234.6 3406.5,201.8 3406.5,168.9 3406.5,136.1 3406.5,103.2 3380.7,103.2 		"/>
		<polygon class="st3" points="3045.2,103.2 3019.4,103.2 3019.4,129 3045.2,129 3071,129 3071,103.2 		"/>
	</g>
	<g>
		<polygon class="st1" points="3509.7,335.6 3509.7,361.4 3535.5,361.4 3561.3,361.4 3561.3,335.6 3535.5,335.6 		"/>
		<polygon class="st1" points="3509.7,284 3509.7,258.2 3509.7,232.3 3483.9,232.3 3458.1,232.3 3458.1,258.2 3483.9,258.2 
			3483.9,284 		"/>
		<polygon class="st8" points="3561.3,232.3 3535.5,232.3 3509.7,232.3 3509.7,258.2 3509.7,284 3535.5,284 3561.3,284 3587.1,284 
			3587.1,258.2 3612.9,258.2 3612.9,232.3 3587.1,232.3 		"/>
		<polygon class="st9" points="3561.3,180.7 3535.5,180.7 3509.7,180.7 3509.7,206.5 3509.7,232.3 3535.5,232.3 3561.3,232.3 
			3587.1,232.3 3612.9,232.3 3612.9,206.5 3612.9,180.7 3587.1,180.7 		"/>
		<polygon class="st10" points="3587.1,129.1 3561.3,129.1 3535.5,129.1 3509.7,129.1 3483.9,129.1 3483.9,154.9 3458.1,154.9 
			3458.1,180.7 3458.1,206.5 3458.1,232.3 3483.9,232.3 3509.7,232.3 3509.7,206.5 3509.7,180.7 3535.5,180.7 3561.3,180.7 
			3587.1,180.7 3612.9,180.7 3612.9,154.9 3587.1,154.9 		"/>
	</g>
	<rect x="3628.4" y="387.1" class="st7" width="61.9" height="51.6"/>
</g>
</svg>
