<?xml version="1.0" encoding="UTF-8"?>
<svg enable-background="new 0 0 3935.3 800" version="1.1" viewBox="0 0 3935.3 800" xml:space="preserve" xmlns="http://www.w3.org/2000/svg">
<style type="text/css">
	.st0{fill:#E8E9E8;}
	.st1{fill:#FFFFFF;}
	.st2{fill:#233688;}
	.st3{fill:#676770;}
	.st4{fill:#C4D3EC;}
	.st5{fill:#C21109;}
	.st6{fill:#9EB4D7;}
	.st7{fill:#C3D4EB;}
	.st8{fill:#8799BE;}
	.st9{fill:#D4D4D4;}
	.st10{fill:#9B9B9B;}
	.st11{fill:#BABABA;}
	.st12{fill:#DDDDDD;}
	.st13{fill:#F3E715;}
	.st14{fill:#333333;}
	.st15{fill:#E1EEFB;}
	.st16{fill:#D22724;}
	.door-left {
		transform:translate(-0px, 0);
		animation: open-left 3s ease-out;

	}
	.door-right {
		transform:translate(0px, 0);
		animation: open-right 3s ease-out;
	}
	@keyframes open-left {
  	40% {	transform:translate(-220px, 0); }
		60% {	transform:translate(-220px, 0); }
		100% {	transform:translate(-0px, 0); }
	}
	@keyframes open-right {
  	40% {	transform:translate(220px, 0); }
		60% {	transform:translate(220px, 0); }
		100% {	transform:translate(-0px, 0); }
	}
</style>
	<polygon class="st0" points="3785.4 265.9 3785.4 298.8 3785.4 331.6 3785.4 364.4 3785.4 397.3 3785.4 430.1 3785.4 463 3785.4 495.8 3785.4 528.7 3785.4 561.5 3785.4 594.4 3811.2 594.4 3811.2 561.5 3811.2 528.7 3811.2 495.8 3811.2 463 3811.2 430.1 3811.2 397.3 3811.2 364.4 3811.2 331.6 3811.2 298.8 3811.2 265.9 3811.2 233.1 3785.4 233.1"/>
	<rect class="st1" x="182.2" y="220.2" width="3603.1" height="374.2"/>
	<polygon class="st2" points="3811.2 542.7 3785.4 542.7 3749.2 542.7 3510.1 542.7 3510.1 620.2 3785.4 620.2 3785.4 594.4 3811.2 594.4"/>
	<rect class="st3" x="301.5" y="491.1" width="51.6" height="25.8"/>
	<polygon class="st3" points="301.5 439.5 301.5 413.7 301.5 387.9 275.7 387.9 249.9 387.9 249.9 413.7 275.7 413.7 275.7 439.5"/>
	<polygon class="st3" points="146.6 568.5 146.6 594.3 172.5 594.3 172.5 568.5 172.5 542.7 146.6 542.7"/>
	<polygon class="st3" points="146.6 491.1 146.6 465.3 120.8 465.3 120.8 491.1 120.8 516.9 146.6 516.9"/>
	<rect class="st3" x="120.8" y="233.1" width="25.8" height="25.8"/>
	<rect class="st3" x="1591.8" y="387.9" width="25.8" height="51.6"/>
	<polygon class="st3" points="1385.4 387.9 1385.4 413.7 1411.2 413.7 1411.2 439.5 1437 439.5 1437 413.7 1437 387.9 1411.2 387.9"/>
	<polygon class="st3" points="1230.5 413.7 1230.5 439.5 1256.3 439.5 1256.3 413.7 1256.3 387.9 1230.5 387.9"/>
	<rect class="st3" x="1127.3" y="491.1" width="51.6" height="25.8"/>
	<polygon class="st3" points="998.3 387.9 998.3 413.7 1024.1 413.7 1024.1 439.5 1049.9 439.5 1049.9 413.7 1049.9 387.9 1024.1 387.9"/>
	<polygon class="st4" points="120.8 258.9 120.8 284.7 120.8 310.5 120.8 336.3 120.8 362.1 120.8 387.9 120.8 413.7 120.8 439.5 120.8 465.3 146.6 465.3 146.6 439.5 146.6 413.7 146.6 387.9 146.6 362.1 146.6 336.3 146.6 310.5 146.6 284.7 146.6 258.9"/>
	<path class="st5" d="m172.5 207.3h-25.8v-25.8h-25.8v51.6h25.8v283.8h-25.8v103.2h77.4v-387h-25.8v-25.8zm0 361.2v25.8h-25.8v-51.6h25.8v25.8z"/>
		<rect class="st2" x="198.3" y="542.7" width="258.1" height="77.4"/>
		<rect class="st2" x="946.7" y="542.7" width="825.8" height="77.4"/>
		<polygon class="st6" points="353.1 387.9 327.3 387.9 301.5 387.9 301.5 413.7 301.5 439.5 327.3 439.5 353.1 439.5 378.9 439.5 378.9 413.7 404.7 413.7 404.7 387.9 378.9 387.9"/>
		<polygon class="st6" points="1540.2 387.9 1514.4 387.9 1488.6 387.9 1462.8 387.9 1437 387.9 1437 413.7 1437 439.5 1462.8 439.5 1488.6 439.5 1514.4 439.5 1540.2 439.5 1566 439.5 1591.8 439.5 1591.8 387.9"/>
		<polygon class="st6" points="1256.3 387.9 1256.3 413.7 1256.3 439.5 1282.1 439.5 1282.1 413.7 1307.9 413.7 1307.9 387.9 1282.1 387.9"/>
		<polygon class="st6" points="1178.9 387.9 1153.1 387.9 1127.3 387.9 1101.5 387.9 1075.7 387.9 1049.9 387.9 1049.9 413.7 1049.9 439.5 1075.7 439.5 1101.5 439.5 1127.3 439.5 1153.1 439.5 1178.9 439.5 1204.7 439.5 1230.5 439.5 1230.5 413.7 1230.5 387.9 1204.7 387.9"/>
		<polygon class="st6" points="1617.6 387.9 1617.6 439.5 1669.2 439.5 1669.2 413.7 1695 413.7 1695 387.9"/>
		<polygon class="st7" points="353.1 336.3 327.3 336.3 301.5 336.3 301.5 362.1 301.5 387.9 327.3 387.9 353.1 387.9 378.9 387.9 404.7 387.9 404.7 362.1 404.7 336.3 378.9 336.3"/>
		<polygon class="st7" points="1540.2 336.3 1514.4 336.3 1488.6 336.3 1462.8 336.3 1437 336.3 1437 362.1 1437 387.9 1462.8 387.9 1488.6 387.9 1514.4 387.9 1540.2 387.9 1566 387.9 1591.8 387.9 1591.8 362.1 1591.8 336.3 1566 336.3"/>
		<polygon class="st7" points="1256.3 336.3 1256.3 362.1 1256.3 387.9 1282.1 387.9 1307.9 387.9 1307.9 362.1 1307.9 336.3 1282.1 336.3"/>
		<polygon class="st7" points="1178.9 336.3 1153.1 336.3 1127.3 336.3 1101.5 336.3 1075.7 336.3 1049.9 336.3 1049.9 362.1 1049.9 387.9 1075.7 387.9 1101.5 387.9 1127.3 387.9 1153.1 387.9 1178.9 387.9 1204.7 387.9 1230.5 387.9 1230.5 362.1 1230.5 336.3 1204.7 336.3"/>
		<polygon class="st7" points="1669.2 336.3 1643.4 336.3 1617.6 336.3 1617.6 362.1 1617.6 387.9 1643.4 387.9 1669.2 387.9 1695 387.9 1695 362.1 1695 336.3"/>
		<polygon class="st8" points="378.9 284.7 353.1 284.7 327.3 284.7 301.5 284.7 275.7 284.7 275.7 310.5 249.9 310.5 249.9 336.3 249.9 362.1 249.9 387.9 275.7 387.9 301.5 387.9 301.5 362.1 301.5 336.3 327.3 336.3 353.1 336.3 378.9 336.3 404.7 336.3 404.7 310.5 378.9 310.5"/>
		<polygon class="st8" points="1282.1 284.7 1256.3 284.7 1230.5 284.7 1204.7 284.7 1178.9 284.7 1153.1 284.7 1127.3 284.7 1101.5 284.7 1075.7 284.7 1049.9 284.7 1024.1 284.7 1024.1 310.5 998.3 310.5 998.3 336.3 998.3 362.1 998.3 387.9 1024.1 387.9 1049.9 387.9 1049.9 362.1 1049.9 336.3 1075.7 336.3 1101.5 336.3 1127.3 336.3 1153.1 336.3 1178.9 336.3 1204.7 336.3 1230.5 336.3 1230.5 362.1 1230.5 387.9 1256.3 387.9 1256.3 362.1 1256.3 336.3 1282.1 336.3 1307.9 336.3 1307.9 310.5 1282.1 310.5"/>
		<polygon class="st8" points="1669.2 310.5 1669.2 284.7 1643.4 284.7 1617.6 284.7 1591.8 284.7 1566 284.7 1540.2 284.7 1514.4 284.7 1488.6 284.7 1462.8 284.7 1437 284.7 1411.2 284.7 1411.2 310.5 1385.4 310.5 1385.4 336.3 1385.4 362.1 1385.4 387.9 1411.2 387.9 1437 387.9 1437 362.1 1437 336.3 1462.8 336.3 1488.6 336.3 1514.4 336.3 1540.2 336.3 1566 336.3 1591.8 336.3 1591.8 362.1 1591.8 387.9 1617.6 387.9 1617.6 362.1 1617.6 336.3 1643.4 336.3 1669.2 336.3 1695 336.3 1695 310.5"/>
		<polygon class="st0" points="456.3 291.7 456.3 324.6 456.3 357.4 456.3 390.3 456.3 423.1 456.3 455.9 456.3 488.8 456.3 521.6 456.3 554.5 456.3 587.3 456.3 620.2 482.1 620.2 482.1 587.3 482.1 554.5 482.1 521.6 482.1 488.8 482.1 455.9 482.1 423.1 482.1 390.3 482.1 357.4 482.1 324.6 482.1 291.7 482.1 258.9 456.3 258.9"/>
		<polygon class="st0" points="920.8 291.7 920.8 324.6 920.8 357.4 920.8 390.3 920.8 423.1 920.8 455.9 920.8 488.8 920.8 521.6 920.8 554.5 920.8 587.3 920.8 620.2 946.7 620.2 946.7 587.3 946.7 554.5 946.7 521.6 946.7 488.8 946.7 455.9 946.7 423.1 946.7 390.3 946.7 357.4 946.7 324.6 946.7 291.7 946.7 258.9 920.8 258.9"/>
		<rect class="st0" x="171.1" y="207.3" width="3614.2" height="25.8"/>
	<rect class="st9" x="146.6" y="181.5" width="3638.7" height="25.8"/>
	<polygon class="st0" points="1746.7 291.7 1746.7 324.6 1746.7 357.4 1746.7 390.3 1746.7 423.1 1746.7 455.9 1746.7 488.8 1746.7 521.6 1746.7 554.5 1746.7 587.3 1746.7 620.2 1772.5 620.2 1772.5 587.3 1772.5 554.5 1772.5 521.6 1772.5 488.8 1772.5 455.9 1772.5 423.1 1772.5 390.3 1772.5 357.4 1772.5 324.6 1772.5 291.7 1772.5 258.9 1746.7 258.9"/>
	<polygon class="st3" points="2882.1 387.9 2882.1 413.7 2882.1 439.5 2907.9 439.5 2907.9 413.7 2907.9 387.9"/>
	<polygon class="st3" points="2675.7 387.9 2675.7 413.7 2701.5 413.7 2701.5 439.5 2727.3 439.5 2727.3 413.7 2727.3 387.9 2701.5 387.9"/>
	<polygon class="st3" points="2520.8 413.7 2520.8 439.5 2546.6 439.5 2546.6 413.7 2546.6 387.9 2520.8 387.9"/>
	<polygon class="st3" points="2417.6 491.1 2417.6 516.9 2443.4 516.9 2469.2 516.9 2469.2 491.1 2443.4 491.1"/>
	<polygon class="st3" points="2288.6 387.9 2288.6 413.7 2314.4 413.7 2314.4 439.5 2340.2 439.5 2340.2 413.7 2340.2 387.9 2314.4 387.9"/>
	<polygon class="st6" points="2830.5 387.9 2804.7 387.9 2778.9 387.9 2753.1 387.9 2727.3 387.9 2727.3 413.7 2727.3 439.5 2753.1 439.5 2778.9 439.5 2804.7 439.5 2830.5 439.5 2856.3 439.5 2882.1 439.5 2882.1 413.7 2882.1 387.9 2856.3 387.9"/>
	<polygon class="st6" points="2546.7 387.9 2546.7 413.7 2546.7 439.5 2572.5 439.5 2572.5 413.7 2598.3 413.7 2598.3 387.9 2572.5 387.9"/>
	<polygon class="st6" points="2469.2 387.9 2443.4 387.9 2417.6 387.9 2391.8 387.9 2366 387.9 2340.2 387.9 2340.2 413.7 2340.2 439.5 2366 439.5 2391.8 439.5 2417.6 439.5 2443.4 439.5 2469.2 439.5 2495 439.5 2520.8 439.5 2520.8 413.7 2520.8 387.9 2495 387.9"/>
	<polygon class="st6" points="2959.6 387.9 2933.7 387.9 2907.9 387.9 2907.9 413.7 2907.9 439.5 2933.7 439.5 2959.6 439.5 2959.6 413.7 2985.4 413.7 2985.4 387.9"/>
	<polygon class="st7" points="2830.5 336.3 2804.7 336.3 2778.9 336.3 2753.1 336.3 2727.3 336.3 2727.3 362.1 2727.3 387.9 2753.1 387.9 2778.9 387.9 2804.7 387.9 2830.5 387.9 2856.3 387.9 2882.1 387.9 2882.1 362.1 2882.1 336.3 2856.3 336.3"/>
	<polygon class="st7" points="2546.7 336.3 2546.7 362.1 2546.7 387.9 2572.5 387.9 2598.3 387.9 2598.3 362.1 2598.3 336.3 2572.5 336.3"/>
	<polygon class="st7" points="2469.2 336.3 2443.4 336.3 2417.6 336.3 2391.8 336.3 2366 336.3 2340.2 336.3 2340.2 362.1 2340.2 387.9 2366 387.9 2391.8 387.9 2417.6 387.9 2443.4 387.9 2469.2 387.9 2495 387.9 2520.8 387.9 2520.8 362.1 2520.8 336.3 2495 336.3"/>
	<polygon class="st7" points="2959.6 336.3 2933.7 336.3 2907.9 336.3 2907.9 362.1 2907.9 387.9 2933.7 387.9 2959.6 387.9 2985.4 387.9 2985.4 362.1 2985.4 336.3"/>
	<polygon class="st8" points="2572.5 284.7 2546.7 284.7 2520.8 284.7 2495 284.7 2469.2 284.7 2443.4 284.7 2417.6 284.7 2391.8 284.7 2366 284.7 2340.2 284.7 2314.4 284.7 2314.4 310.5 2288.6 310.5 2288.6 336.3 2288.6 362.1 2288.6 387.9 2314.4 387.9 2340.2 387.9 2340.2 362.1 2340.2 336.3 2366 336.3 2391.8 336.3 2417.6 336.3 2443.4 336.3 2469.2 336.3 2495 336.3 2520.8 336.3 2520.8 362.1 2520.8 387.9 2546.7 387.9 2546.7 362.1 2546.7 336.3 2572.5 336.3 2598.3 336.3 2598.3 310.5 2572.5 310.5"/>
	<polygon class="st8" points="2959.6 310.5 2959.6 284.7 2933.7 284.7 2907.9 284.7 2882.1 284.7 2856.3 284.7 2830.5 284.7 2804.7 284.7 2778.9 284.7 2753.1 284.7 2727.3 284.7 2701.5 284.7 2701.5 310.5 2675.7 310.5 2675.7 336.3 2675.7 362.1 2675.7 387.9 2701.5 387.9 2727.3 387.9 2727.3 362.1 2727.3 336.3 2753.1 336.3 2778.9 336.3 2804.7 336.3 2830.5 336.3 2856.3 336.3 2882.1 336.3 2882.1 362.1 2882.1 387.9 2907.9 387.9 2907.9 362.1 2907.9 336.3 2933.7 336.3 2959.6 336.3 2985.4 336.3 2985.4 310.5"/>
	<rect class="st3" x="1514.4" y="491.1" width="51.6" height="25.8"/>
	<polygon class="st3" points="2799.5 491.1 2799.5 516.9 2825.3 516.9 2851.1 516.9 2851.1 491.1 2825.3 491.1"/>
		<polygon class="st3" points="3630.5 491.2 3630.5 517 3656.3 517 3682.1 517 3682.1 491.2 3656.3 491.2"/>
		<polygon class="st3" points="3630.5 439.6 3630.5 413.8 3630.5 388 3604.7 388 3578.9 388 3578.9 413.8 3604.7 413.8 3604.7 439.6"/>
		<polygon class="st6" points="3682.1 388 3656.3 388 3630.5 388 3630.5 413.8 3630.5 439.6 3656.3 439.6 3682.1 439.6 3707.9 439.6 3707.9 413.8 3733.7 413.8 3733.7 388 3707.9 388"/>
		<polygon class="st7" points="3682.1 336.4 3656.3 336.4 3630.5 336.4 3630.5 362.2 3630.5 388 3656.3 388 3682.1 388 3707.9 388 3733.7 388 3733.7 362.2 3733.7 336.4 3707.9 336.4"/>
		<polygon class="st8" points="3707.9 284.8 3682.1 284.8 3656.3 284.8 3630.5 284.8 3604.7 284.8 3604.7 310.6 3578.9 310.6 3578.9 336.4 3578.9 362.2 3578.9 388 3604.7 388 3630.5 388 3630.5 362.2 3630.5 336.4 3656.3 336.4 3682.1 336.4 3707.9 336.4 3733.7 336.4 3733.7 310.6 3707.9 310.6"/>
	<rect class="st2" x="2224.1" y="542.7" width="825.8" height="77.4"/>
	<polygon class="st0" points="2211.2 291.7 2211.2 324.6 2211.2 357.4 2211.2 390.3 2211.2 423.1 2211.2 455.9 2211.2 488.8 2211.2 521.6 2211.2 554.5 2211.2 587.3 2211.2 620.2 2237 620.2 2237 587.3 2237 554.5 2237 521.6 2237 488.8 2237 455.9 2237 423.1 2237 390.3 2237 357.4 2237 324.6 2237 291.7 2237 258.9 2211.2 258.9"/>
	<polygon class="st0" points="3037 291.7 3037 324.6 3037 357.4 3037 390.3 3037 423.1 3037 455.9 3037 488.8 3037 521.6 3037 554.5 3037 587.3 3037 620.2 3062.8 620.2 3062.8 587.3 3062.8 554.5 3062.8 521.6 3062.8 488.8 3062.8 455.9 3062.8 423.1 3062.8 390.3 3062.8 357.4 3062.8 324.6 3062.8 291.7 3062.8 258.9 3037 258.9"/>
	<polygon class="st0" points="3501.5 291.7 3501.5 324.6 3501.5 357.4 3501.5 390.3 3501.5 423.1 3501.5 455.9 3501.5 488.8 3501.5 521.6 3501.5 554.5 3501.5 587.3 3501.5 620.2 3527.3 620.2 3527.3 587.3 3527.3 554.5 3527.3 521.6 3527.3 488.8 3527.3 455.9 3527.3 423.1 3527.3 390.3 3527.3 357.4 3527.3 324.6 3527.3 291.7 3527.3 258.9 3501.5 258.9"/>
	<rect class="st3" x="482.3" y="491.1" width="438.7" height="129.1"/>
	<rect class="st3" x="482.3" y="413.8" width="438.7" height="77.3"/>
	<rect class="st10" x="482.3" y="387.9" width="438.7" height="103.3"/>
	<rect class="st9" x="533.8" y="387.9" width="335.5" height="103.3"/>
	<rect class="st0" x="533.9" y="233.1" width="335.5" height="154.9"/>
	<rect class="st11" x="482.3" y="233.1" width="438.7" height="154.9"/>
	<rect class="st12" x="533.8" y="233.1" width="335.5" height="154.9"/>
	<rect class="st13" x="688.8" y="233.1" width="25.8" height="309.7"/>
	<rect class="st14" x="688.8" y="516.9" width="25.8" height="25.8"/>
	<polygon class="st3" points="611.7 439.5 611.7 387.9 560.1 387.9 560.1 413.7 585.9 413.7 585.9 439.5"/>
	<polygon class="st6" points="611.7 387.9 611.7 413.7 611.7 439.5 637.5 439.5 637.1 439.5 637.1 413.7 662.9 413.7 663.1 387.9"/>
	<rect class="st7" x="611.7" y="336.3" width="51.4" height="51.6"/>
	<polygon class="st8" points="637.4 284.7 586 284.7 586 310.5 560.2 310.5 560.2 387.9 611.8 387.9 611.8 336.3 663.2 336.3 663.2 310.5 637.4 310.5"/>
	<polygon class="st3" points="792 439.5 792 387.9 740.4 387.9 740.4 413.7 766.2 413.7 766.2 439.5"/>
	<polygon class="st6" points="792 387.9 792 413.7 792 439.5 817.8 439.5 817.4 439.5 817.4 413.7 843.2 413.7 843.4 387.9"/>
	<rect class="st7" x="792" y="336.3" width="51.4" height="51.6"/>
	<polygon class="st8" points="817.7 284.7 766.3 284.7 766.3 310.5 740.5 310.5 740.5 387.9 792.1 387.9 792.1 336.3 843.5 336.3 843.5 310.5 817.7 310.5"/>
	<rect class="st14" x="482.3" y="594.4" width="438.7" height="25.8"/>
	<rect class="st3" x="1772.3" y="491.1" width="438.7" height="129.1"/>
	<rect class="st3" x="1772.3" y="413.8" width="438.7" height="77.3"/>
	<rect class="st10" x="1772.3" y="387.9" width="438.7" height="103.3"/>
	<rect class="st9" x="1823.8" y="387.9" width="335.5" height="103.3"/>
	<rect class="st0" x="1823.9" y="233.1" width="335.5" height="154.9"/>
	<rect class="st11" x="1772.3" y="233.1" width="438.7" height="154.9"/>
	<rect class="st12" x="1823.8" y="233.1" width="335.5" height="154.9"/>
	<rect class="st13" x="1978.8" y="233.1" width="25.8" height="309.7"/>
	<rect class="st14" x="1978.8" y="516.9" width="25.8" height="25.8"/>
	<polygon class="st3" points="1901.7 439.5 1901.7 387.9 1850.1 387.9 1850.1 413.7 1875.9 413.7 1875.9 439.5"/>
	<polygon class="st6" points="1901.7 387.9 1901.7 413.7 1901.7 439.5 1927.5 439.5 1927.1 439.5 1927.1 413.7 1952.9 413.7 1953.1 387.9"/>
	<rect class="st7" x="1901.7" y="336.3" width="51.4" height="51.6"/>
	<polygon class="st8" points="1927.4 284.7 1876 284.7 1876 310.5 1850.2 310.5 1850.2 387.9 1901.8 387.9 1901.8 336.3 1953.2 336.3 1953.2 310.5 1927.4 310.5"/>
	<polygon class="st3" points="2082 439.5 2082 387.9 2030.4 387.9 2030.4 413.7 2056.2 413.7 2056.2 439.5"/>
	<polygon class="st6" points="2082 387.9 2082 413.7 2082 439.5 2107.8 439.5 2107.4 439.5 2107.4 413.7 2133.2 413.7 2133.4 387.9"/>
	<rect class="st7" x="2082" y="336.3" width="51.4" height="51.6"/>
	<polygon class="st8" points="2107.7 284.7 2056.3 284.7 2056.3 310.5 2030.5 310.5 2030.5 387.9 2082.1 387.9 2082.1 336.3 2133.5 336.3 2133.5 310.5 2107.7 310.5"/>
	<rect class="st14" x="1772.3" y="594.4" width="438.7" height="25.8"/>
	<rect class="st3" x="3062.8" y="491.1" width="438.7" height="129.1"/>
	<rect class="st3" x="3062.8" y="413.8" width="438.7" height="77.3"/>
	<rect class="st10" x="3062.8" y="387.9" width="438.7" height="103.3"/>
	<rect class="st9" x="3114.3" y="387.9" width="335.5" height="103.3"/>
	<rect class="st0" x="3114.4" y="233.1" width="335.5" height="154.9"/>
	<rect class="st11" x="3062.8" y="233.1" width="438.7" height="154.9"/>
	<rect class="st12" x="3114.3" y="233.1" width="335.5" height="154.9"/>
	<rect class="st13" x="3269.2" y="233.1" width="25.8" height="309.7"/>
	<rect class="st14" x="3269.2" y="516.9" width="25.8" height="25.8"/>
	<polygon class="st3" points="3192.1 439.5 3192.1 387.9 3140.5 387.9 3140.5 413.7 3166.3 413.7 3166.3 439.5"/>
	<polygon class="st6" points="3192.1 387.9 3192.1 413.7 3192.1 439.5 3217.9 439.5 3217.6 439.5 3217.6 413.7 3243.4 413.7 3243.6 387.9"/>
	<rect class="st7" x="3192.1" y="336.3" width="51.4" height="51.6"/>
	<polygon class="st8" points="3217.8 284.7 3166.4 284.7 3166.4 310.5 3140.6 310.5 3140.6 387.9 3192.2 387.9 3192.2 336.3 3243.7 336.3 3243.7 310.5 3217.8 310.5"/>
	<polygon class="st3" points="3372.4 439.5 3372.4 387.9 3320.8 387.9 3320.8 413.7 3346.6 413.7 3346.6 439.5"/>
	<polygon class="st6" points="3372.5 387.9 3372.5 413.7 3372.5 439.5 3398.3 439.5 3397.9 439.5 3397.9 413.7 3423.7 413.7 3423.9 387.9"/>
	<rect class="st7" x="3372.5" y="336.3" width="51.4" height="51.6"/>
	<polygon class="st8" points="3398.2 284.7 3346.7 284.7 3346.7 310.5 3320.9 310.5 3320.9 387.9 3372.5 387.9 3372.5 336.3 3424 336.3 3424 310.5 3398.2 310.5"/>
	<rect class="st14" x="3062.8" y="594.4" width="438.7" height="25.8"/>
	<g class="door-left">
			<rect class="st3" x="3113.2" y="387.9" width="25.8" height="51.6"/>
			<rect class="st15" x="3139" y="258.9" width="51.6" height="25.8"/>
			<polygon class="st5" points="3268.1 620.2 3061.6 620.2 3061.6 310.5 3113.2 310.5 3113.2 439.5 3139 439.5 3139 465.3 3190.7 465.3 3190.7 439.5 3216.5 439.5 3216.5 310.5 3268.1 310.5"/>
			<polygon class="st6" points="3139.1 387.9 3139.1 465.3 3190.7 465.3 3190.7 439.5 3216.5 439.5 3216.5 387.9"/>
			<rect class="st7" x="3139.1" y="284.7" width="77.4" height="103.2"/>
			<rect class="st8" x="3113.3" y="284.7" width="25.8" height="103.2"/>
			<polygon class="st16" points="3268.1 233.1 3268.1 310.5 3216.5 310.5 3216.5 284.7 3190.7 284.7 3190.7 258.9 3139 258.9 3139 284.7 3113.2 284.7 3113.2 310.5 3061.6 310.5 3061.6 233.1"/>
		<rect class="st3" x="3268.1" y="233.1" width="25.8" height="387.1"/>
	</g>
	<g class="door-left">
			<rect class="st3" x="1822.9" y="387.9" width="25.8" height="51.6"/>
			<rect class="st15" x="1848.7" y="258.9" width="51.6" height="25.8"/>
			<polygon class="st5" points="1977.7 620.2 1771.3 620.2 1771.3 310.5 1822.9 310.5 1822.9 439.5 1848.7 439.5 1848.7 465.3 1900.3 465.3 1900.3 439.5 1926.1 439.5 1926.1 310.5 1977.7 310.5"/>
			<polygon class="st6" points="1848.7 387.9 1848.7 465.3 1900.3 465.3 1900.3 439.5 1926.1 439.5 1926.1 387.9"/>
			<rect class="st7" x="1848.7" y="284.7" width="77.4" height="103.2"/>
			<rect class="st8" x="1822.9" y="284.7" width="25.8" height="103.2"/>
			<polygon class="st16" points="1977.7 233.1 1977.7 310.5 1926.1 310.5 1926.1 284.7 1900.3 284.7 1900.3 258.9 1848.7 258.9 1848.7 284.7 1822.9 284.7 1822.9 310.5 1771.3 310.5 1771.3 233.1"/>
		<rect class="st3" x="1977.8" y="233.1" width="25.8" height="387.1"/>
	</g>
	<g class="door-left">
			<rect class="st3" x="532.6" y="387.9" width="25.8" height="51.6"/>
			<rect class="st15" x="558.4" y="258.9" width="51.6" height="25.8"/>
			<polygon class="st5" points="687.4 620.2 481 620.2 481 310.5 532.6 310.5 532.6 439.5 558.4 439.5 558.4 465.3 610 465.3 610 439.5 635.8 439.5 635.8 310.5 687.4 310.5"/>
			<polygon class="st6" points="558.4 387.9 558.4 465.3 610 465.3 610 439.5 635.8 439.5 635.8 387.9"/>
			<rect class="st7" x="558.4" y="284.7" width="77.4" height="103.2"/>
			<rect class="st8" x="532.6" y="284.7" width="25.8" height="103.2"/>
			<polygon class="st16" points="687.4 233.1 687.4 310.5 635.8 310.5 635.8 284.7 610 284.7 610 258.9 558.4 258.9 558.4 284.7 532.6 284.7 532.6 310.5 481 310.5 481 233.1"/>
		<rect class="st3" x="687.4" y="233.1" width="25.8" height="387.1"/>
	</g>
	<g class="door-right">
			<rect class="st3" x="764.9" y="387.9" width="25.8" height="51.6"/>
			<rect class="st15" x="790.7" y="258.9" width="51.6" height="25.8"/>
			<polygon class="st5" points="919.7 620.2 713.2 620.2 713.2 310.5 764.9 310.5 764.9 439.5 790.7 439.5 790.7 465.3 842.3 465.3 842.3 439.5 868.1 439.5 868.1 310.5 919.7 310.5"/>
			<polygon class="st6" points="790.7 387.9 790.7 465.3 842.3 465.3 842.3 439.5 868.1 439.5 868.1 387.9"/>
			<rect class="st7" x="790.7" y="284.7" width="77.4" height="103.2"/>
			<rect class="st8" x="764.9" y="284.7" width="25.8" height="103.2"/>
			<polygon class="st16" points="919.7 233.1 919.7 310.5 868.1 310.5 868.1 284.7 842.3 284.7 842.3 258.9 790.7 258.9 790.7 284.7 764.8 284.7 764.8 310.5 713.2 310.5 713.2 233.1"/>
		<rect class="st3" x="687.4" y="233.1" width="25.8" height="387.1"/>
	</g>
	<g class="door-right">
			<rect class="st3" x="2056" y="387.9" width="25.8" height="51.6"/>
			<rect class="st15" x="2081.8" y="258.9" width="51.6" height="25.8"/>
			<polygon class="st5" points="2210.8 620.2 2004.4 620.2 2004.4 310.5 2056 310.5 2056 439.5 2081.8 439.5 2081.8 465.3 2133.4 465.3 2133.4 439.5 2159.2 439.5 2159.2 310.5 2210.8 310.5"/>
			<polygon class="st6" points="2081.8 387.9 2081.8 465.3 2133.4 465.3 2133.4 439.5 2159.2 439.5 2159.2 387.9"/>
			<rect class="st7" x="2081.8" y="284.7" width="77.4" height="103.2"/>
			<rect class="st8" x="2056" y="284.7" width="25.8" height="103.2"/>
			<polygon class="st16" points="2210.8 233.1 2210.8 310.5 2159.2 310.5 2159.2 284.7 2133.4 284.7 2133.4 258.9 2081.8 258.9 2081.8 284.7 2056 284.7 2056 310.5 2004.4 310.5 2004.4 233.1"/>
		<rect class="st3" x="1977.8" y="233.1" width="25.8" height="387.1"/>
	</g>
	<g class="door-right">
			<rect class="st3" x="3345.5" y="387.9" width="25.8" height="51.6"/>
			<rect class="st15" x="3371.3" y="258.9" width="51.6" height="25.8"/>
			<polygon class="st5" points="3500.3 620.2 3293.9 620.2 3293.9 310.5 3345.5 310.5 3345.5 439.5 3371.3 439.5 3371.3 465.3 3422.9 465.3 3422.9 439.5 3448.7 439.5 3448.7 310.5 3500.3 310.5"/>
			<polygon class="st6" points="3371.3 387.9 3371.3 465.3 3422.9 465.3 3422.9 439.5 3448.7 439.5 3448.7 387.9"/>
			<rect class="st7" x="3371.3" y="284.7" width="77.4" height="103.2"/>
			<rect class="st8" x="3345.5" y="284.7" width="25.8" height="103.2"/>
			<polygon class="st16" points="3500.3 233.1 3500.3 310.5 3448.7 310.5 3448.7 284.7 3422.9 284.7 3422.9 258.9 3371.3 258.9 3371.3 284.7 3345.5 284.7 3345.5 310.5 3293.9 310.5 3293.9 233.1"/>
		<rect class="st3" x="3268.1" y="233.1" width="25.8" height="387.1"/>
	</g>
</svg>
