<?xml version="1.0" encoding="utf-8"?>
<!-- Generator: Adobe Illustrator 22.0.1, SVG Export Plug-In . SVG Version: 6.00 Build 0)  -->
<svg version="1.1" id="Layer_1" xmlns="http://www.w3.org/2000/svg" xmlns:xlink="http://www.w3.org/1999/xlink" x="0px" y="0px"
	 viewBox="0 0 129 519" style="enable-background:new 0 0 129 519;" xml:space="preserve">
<style type="text/css">
	.st0{fill:#7B7A82;}
	.st1{fill:#424242;}
	.st2{fill:#333333;}
	.st3{fill:#222323;}
	.st4{fill:#182C2A;}
</style>
<polygon class="st0" points="0,0.1 129,0.1 129,519 0,518.9 "/>
<polygon class="st1" points="51.6,106.1 51.6,131.9 51.6,157.7 51.6,183.5 51.6,209.3 51.6,235.1 51.6,261 51.6,286.8 51.6,312.6 
	51.6,338.4 51.6,364.2 51.6,390 51.6,415.8 51.6,441.6 51.6,467.4 51.6,493.2 51.6,519 77.4,519 77.4,493.2 77.4,467.4 77.4,441.6 
	77.4,415.8 77.4,390 77.4,364.2 77.4,338.4 77.4,312.6 77.4,286.8 77.4,261 77.4,235.1 77.4,209.3 77.4,183.5 77.4,157.7 
	77.4,131.9 77.4,106.1 "/>
<polygon class="st2" points="25.8,131.9 25.8,157.7 25.8,183.5 25.8,209.3 25.8,235.1 25.8,261 25.8,286.8 25.8,312.6 25.8,338.4 
	25.8,364.2 25.8,390 25.8,415.8 25.8,441.6 25.8,467.4 25.8,493.2 25.8,519 51.6,519 51.6,493.2 51.6,467.4 51.6,441.6 51.6,415.8 
	51.6,390 51.6,364.2 51.6,338.4 51.6,312.6 51.6,286.8 51.6,261 51.6,235.1 51.6,209.3 51.6,183.5 51.6,157.7 51.6,131.9 "/>
<polygon class="st3" points="0,183.5 0,209.3 0,235.1 0,261 0,286.8 0,312.6 0,338.4 0,364.2 0,390 0,415.8 0,441.6 0,467.4 
	0,493.2 0,518.9 0,519 25.8,519 25.8,493.2 25.8,467.4 25.8,441.6 25.8,415.8 25.8,390 25.8,364.2 25.8,338.4 25.8,312.6 
	25.8,286.8 25.8,261 25.8,235.1 25.8,209.3 25.8,183.5 "/>
<path class="st4" d="M51.6,519"/>
</svg>
