<svg xmlns="http://www.w3.org/2000/svg" viewBox="0 0 542.32 567.94">
<path d="M516.52,0H26.19V154.84H542.32V0ZM103.61,129H52V51.61H77.81V77.42h25.8V51.61h25.81V25.8h25.81V51.61H129.42V77.42H103.61v25.8h25.81V129Zm129,0H181V25.8h77.42V51.61H206.84V77.42h25.81v25.8h25.8V129Zm103.22,0V103.22h-25.8V129H284.26V103.22h25.81V51.61H284.26V25.8h25.81V51.61h25.8V25.8h25.81V51.61H335.87v51.61h25.81V129Zm51.61,0V25.8h25.81V129Zm129-77.42H490.71V129H464.9V51.61H439.1V25.8h77.42Z" style="fill:#fff"/><polygon points="464.9 25.8 439.11 25.8 439.11 51.61 464.9 51.61 464.9 77.42 464.9 103.22 464.9 129.03 490.71 129.03 490.71 103.22 490.71 77.42 490.71 51.61 516.52 51.61 516.52 25.8 490.71 25.8 464.9 25.8" style="fill:#66b32e"/><polygon points="413.3 77.42 413.3 51.61 413.3 25.8 387.49 25.8 387.49 51.61 387.49 77.42 387.49 103.22 387.49 129.03 413.3 129.03 413.3 103.22 413.3 77.42" style="fill:#66b32e"/><rect x="335.87" y="103.22" width="25.81" height="25.81" style="fill:#66b32e"/><rect x="335.87" y="25.8" width="25.81" height="25.81" style="fill:#66b32e"/><polygon points="335.88 51.61 310.07 51.61 310.07 77.42 310.07 103.22 335.88 103.22 335.88 77.42 335.88 51.61" style="fill:#66b32e"/><rect x="284.26" y="103.22" width="25.81" height="25.81" style="fill:#66b32e"/><rect x="284.26" y="25.8" width="25.81" height="25.81" style="fill:#66b32e"/><polygon points="232.66 103.22 232.66 77.42 206.84 77.42 206.84 51.61 232.66 51.61 258.45 51.61 258.45 25.8 232.66 25.8 206.84 25.8 181.03 25.8 181.03 51.61 181.03 77.42 181.03 103.22 181.03 129.03 206.84 129.03 232.66 129.03 258.45 129.03 258.45 103.22 232.66 103.22" style="fill:#66b32e"/><rect x="129.42" y="25.8" width="25.81" height="25.81" style="fill:#66b32e"/><polygon points="103.61 103.22 103.61 77.42 77.81 77.42 77.81 51.61 52.01 51.61 52.01 77.42 52.01 103.22 52.01 129.03 77.81 129.03 103.61 129.03 129.43 129.03 129.43 103.22 103.61 103.22" style="fill:#66b32e"/><rect x="103.61" y="51.61" width="25.81" height="25.81" style="fill:#66b32e"/><polygon points="77.42 387.29 77.42 413.1 77.42 438.89 77.42 464.7 77.42 490.51 77.42 516.32 77.42 542.13 77.42 567.93 103.23 567.93 103.23 542.13 103.23 516.32 103.23 490.51 103.23 464.7 103.23 438.89 103.23 413.1 103.23 387.29 103.23 361.49 77.42 361.49 77.42 387.29" style="fill:#999"/><polygon points="103.23 387.29 103.23 413.1 103.23 438.89 103.23 464.7 103.23 490.51 103.23 516.32 103.23 542.13 103.23 567.93 129.04 567.93 129.04 542.13 129.04 516.32 129.04 490.51 129.04 464.7 129.04 438.89 129.04 413.1 129.04 387.29 129.04 361.49 103.23 361.49 103.23 387.29" style="fill:#6e6e6d"/><rect x="77.42" y="335.68" width="25.81" height="25.81" style="fill:#7c7c7c"/><polygon points="77.42 516.32 77.42 490.51 77.42 464.7 77.42 438.89 77.42 413.1 77.42 387.29 77.42 361.49 51.62 361.49 51.62 387.29 51.62 413.1 51.62 438.89 51.62 464.7 51.62 490.51 51.62 516.32 51.62 542.13 51.62 567.93 77.42 567.93 77.42 542.13 77.42 516.32" style="fill:#7c7c7c"/><polygon points="77.42 284.06 77.42 258.25 51.62 258.25 25.81 258.25 25.81 284.06 51.62 284.06 77.42 284.06" style="fill:#e0ca02"/><polygon points="25.81 387.29 25.81 413.1 25.81 438.89 25.81 464.7 25.81 490.51 25.81 516.32 25.81 542.13 25.81 567.93 51.62 567.93 51.62 542.13 51.62 516.32 51.62 490.51 51.62 464.7 51.62 438.89 51.62 413.1 51.62 387.29 51.62 361.49 77.42 361.49 77.42 335.68 51.62 335.68 25.81 335.68 25.81 361.49 25.81 387.29" style="fill:#6e6e6d"/><polygon points="0 387.29 0 413.1 0 438.89 0 464.7 0 490.51 0 516.32 0 542.13 0 567.93 25.81 567.93 25.81 542.13 25.81 516.32 25.81 490.51 25.81 464.7 25.81 438.89 25.81 413.1 25.81 387.29 25.81 361.49 25.81 335.68 0 335.68 0 361.49 0 387.29" style="fill:#575656"/><polygon points="0 335.68 25.81 335.68 51.62 335.68 77.42 335.68 103.23 335.68 103.23 361.49 129.04 361.49 129.04 335.68 129.04 309.87 103.23 309.87 103.23 284.06 77.42 284.06 51.62 284.06 25.81 284.06 0 284.06 0 335.68" style="fill:#3a3a3a"/><rect x="0.39" width="25.8" height="154.83" style="fill:#777776"/></svg>