<?xml version="1.0" encoding="utf-8"?>
<!-- Generator: Adobe Illustrator 22.0.1, SVG Export Plug-In . SVG Version: 6.00 Build 0)  -->
<svg version="1.1" id="Layer_1" xmlns="http://www.w3.org/2000/svg" xmlns:xlink="http://www.w3.org/1999/xlink" x="0px" y="0px"
	 viewBox="0 0 618 206" style="enable-background:new 0 0 618 206;" xml:space="preserve">
<style type="text/css">
	.st0{fill:#0074FF;}
	.st1{opacity:0.8;fill:#0074FF;}
	.st2{opacity:0.6;fill:#0074FF;}
	.st3{opacity:0.4;fill:#0074FF;}
	.st4{opacity:0.2;fill:#0074FF;}
	.st5{opacity:0.1;fill:#0074FF;}
</style>
<rect y="76" class="st0" width="52" height="51"/>
<rect x="52" y="24" class="st0" width="51" height="52"/>
<rect x="103" class="st0" width="52" height="24"/>
<rect x="52" y="127" class="st0" width="51" height="52"/>
<rect x="103" y="179" class="st0" width="52" height="27"/>
<rect x="232" class="st1" width="52" height="24"/>
<rect x="181" y="24" class="st1" width="51" height="52"/>
<rect x="129" y="76" class="st1" width="52" height="51"/>
<rect x="181" y="127" class="st1" width="51" height="52"/>
<rect x="232" y="179" class="st1" width="52" height="27"/>
<rect x="361" class="st2" width="52" height="24"/>
<rect x="310" y="24" class="st2" width="51" height="52"/>
<rect x="258" y="76" class="st2" width="52" height="51"/>
<rect x="310" y="127" class="st2" width="51" height="52"/>
<rect x="361" y="179" class="st2" width="52" height="27"/>
<rect x="490" class="st3" width="52" height="24"/>
<rect x="439" y="24" class="st3" width="51" height="52"/>
<rect x="387" y="76" class="st3" width="52" height="51"/>
<rect x="439" y="127" class="st3" width="51" height="52"/>
<rect x="490" y="179" class="st3" width="52" height="27"/>
<rect x="516" y="50" class="st4" width="26" height="26"/>
<rect x="516" y="127" class="st4" width="26" height="26"/>
<rect x="567" y="25" class="st5" width="26" height="26"/>
<rect x="567" y="155" class="st5" width="26" height="26"/>
</svg>
